<mxfile host="65bd71144e">
    <diagram id="_BNuX3UM49pTpZUFN6Gq" name="Page-1">
        <mxGraphModel dx="2095" dy="579" grid="1" gridSize="10" guides="1" tooltips="1" connect="1" arrows="1" fold="1" page="1" pageScale="1" pageWidth="850" pageHeight="1100" math="0" shadow="0">
            <root>
                <mxCell id="0"/>
                <mxCell id="1" parent="0"/>
                <mxCell id="5" value="HTTP Library" style="shape=image;verticalLabelPosition=bottom;labelBackgroundColor=#ffffff;verticalAlign=top;aspect=fixed;imageAspect=0;image=data:image/png,iVBORw0KGgoAAAANSUhEUgAACgAAAAVZCAYAAACgnVIOAAAABGdBTUEAALGPC/xhBQAAACBjSFJNAAB6JgAAgIQAAPoAAACA6AAAdTAAAOpgAAA6mAAAF3CculE8AAAABmJLR0QA/wD/AP+gvaeTAACAAElEQVR42uz9a5Cd9WHve/6e7tYFyRIgMAYMwhiMjYPNzSBhe2/jXSE5sb0TJyGzHTuOE7NDYmOwAUtGin1GNVPnzBghiVDedYqpOXVqTs0rnZozp+rMeFed2TXs2RtdGuQLTvAltlFLfZFa95bUrb6t9Z8X2Ul8AwvRl2et5/N5oyoVb/TVs/5rdenHf1UB4Jdt3/tkUjYIAQAAAAAAAFAL/488ds/9MgD8vEoCgF+wffeapBpIskoMAAAAAAAAgFooSe978tjdL0sB8M96JAD4BVX1cIz/AAAAAAAAAOqkSlq+xQ3glw9HAP7J1pdWpndiIMnlYgAAAAAAAADUykyq3JRH7xmQAuAfuAEQ4Gf1nvurGP8BAAAAAAAA1NGStMuXZQD4Z24ABPhHz3xzWWYv/WmSt4oBAAAAAAAAUEuTmWndkK98cEQKADcAAvyz2Uv/PMZ/AAAAAAAAAHW2PH29X5QB4B+4ARAgSXbu7M3QtT9McqMYAAAAAAAAALU2nqU91+UL645LATSdGwABkmRw7R/H+A8AAAAAAACgE6zMdOshGQAMAAGSUqqkfEUIAAAAAAAAgE5RfTH/7rk36QA0nQEgwNN7fi9VbhECAAAAAAAAoGOsyeTyB2UAms4AEKD0bBQBAAAAAAAAoMNU2ZAtzy0XAmgyA0Cg2Z7ae19S7hECAAAAAAAAoONcmVXLPiMD0GQGgEDDT8GySQQAAAAAAACADlVlY7Y81ycE0FQGgEBzPb1nXZIPCwEAAAAAAADQqaq35+Ll/0YHoKkMAIHmauevRQAAAAAAAADocCV/nS3FBgZoJIcf0ExP731vko8JAQAAAAAAANDxbs7q/n8tA9BEBoBAM7XLpiSVEAAAAAAAAABdoBTfAAc0kvEL0DxP7rohfT0/TNInBgAAAAAAAECXqHJfHr3nPwgBNIkbAIHm6e15IsZ/AAAAAAAAAN2llE0iAE3jBkCgWZ7Ze01my0+TLBUDAAAAAAAAoMuU8oE8/v7dQgBN4QZAoFlm21+O8R8AAAAAAABAd6qqJ0QAGnXsSQA0xjf6L8t0eyDJm8QAAAAAAAAA6EolpdyZx9//HSmAJnADINAcM+1HY/wHAAAAAAAA0M2qpGeDDECDDj2ABnhm7+rM5kBSLhEDAAAAAAAAoKu10lvdnC+u/7EUQLdzAyDQDDPth4z/AAAAAAAAABqhN63iFkCgEdwACHS/Lc8tz+plryTVVWIAAAAAAAAANMJMels35osfPCgF0M3cAAh0v1XLHzT+AwAAAAAAAGiUJWn3PSoD0O3cAAh0t2f3Lcn4zI+TXCcGAAAAAAAAQKNMpG/mbXnkXx6VAuhWbgAEuvzj3PSnY/wHAAAAAAAA0EQrMrvkERmAbuYGQKB7bSk9Wd3//aS8UwwAAAAAAACARhpLNfm2PPrhU1IA3cgNgED3Wr33fuM/AAAAAAAAgEa7OOWiv5IB6FYGgED3qrJRBAAAAAAAAICmK4/m2X0rdAC6kQEg0J129H80JXcKAQAAAAAAANB4V2Ri5gEZgG5kAAh0qfYTGgAAAAAAAACQJCnZkC0vLxUC6DYGgED32b77Qyn5oBAAAAAAAAAA/BfXZvWZT8kAdBsDQKD7lJ5NIgAAAAAAAADw88rm7NzZqwPQTQwAge6ybfftqcpvCQEAAAAAAADAL7gxg9f8gQxANzEABLpLVX01SSUEAAAAAAAAAL+kqv46pfg3ZaBrGAAC3eOp3e9K8nEhAAAAAAAAAHgVt2Z7/+/IAHQLA0Cge/T2bHKuAQAAAAAAAPCaqvI1EYCuOdIkALrC3zy/Nq3enyRZIgYAAAAAAAAAr6mn/aF86QP/SQig448zCYCu0O59IsZ/AAAAAAAAAJyPVu9mEYBu4AZAoPM9vfctaZf9SS4SAwAAAAAAAIDz03NXHlu3Twego08yCYCO187jMf4DAAAAAAAA4HVpP6EB0OncAAh0tu271yTVQJJVYgAAAAAAAADwOpSk9z157O6XpQA6lRsAgc5WVQ/H+A8AAAAAAACA169KWhtkADr8IAPoUFtfWpneiYEkl4sBAAAAAAAAwAWYSZWb8ug9A1IAncgNgEDn6j33VzH+AwAAAAAAAODCLUmJWwCBjuUGQKAzPfPNZWld+kpKrhYDAAAAAAAAgDdgKjOtt+crHxyRAug0bgAEOtPspX9u/AcAAAAAAADAHFiWvt4vygB0IjcAAp1n587eDF37wyQ3igEAAAAAAADAHBjP0p7r8oV1x6UAOokbAIHOM7j2j2P8BwAAAAAAAMDcWZnp1kMyAJ3GABDoLKVUSfmKEAAAAAAAAADMreqL+frzq3QAOokBINBZduz5eKrcIgQAAAAAAAAAc2xNlvQ9KAPQSQwAgU47tjZoAAAAAAAAAMD8KF/OlueW6wB0CgNAoHM8tfe+pNwjBAAAAAAAAADz5MqsWvYZGYBOYQAIdNCJVTaJAAAAAAAAAMC8qrIxW57rEwLoBAaAQGd4es+6JB8WAgAAAAAAAID5Vb09Fy//NzoAncAAEOgM7XxVBAAAAAAAAAAWRMlfZ0uxqwFqz0EF1N/Te9+b5KNCAAAAAAAAALBAbs7Fe35XBqDuDACB+muXTUkqIQAAAAAAAABYMO1qswhA3RnUAPX25K4b0tfzwyR9YgAAAAAAAACwoKrcl0fv+Q9CAHXlBkCg3np7nojxHwAAAAAAAACLoZRNIgB15gZAoL6e2XtNZstPkywVAwAAAAAAAIBFUeWDefSeXUIAdeQGQKC+ZttfjvEfAAAAAAAAAIup5CsiAHXlBkCgnr7Rf1mm2wNJ3iQGAAAAAAAAAIuopJQ78/j7vyMFUDduAATqaab9aIz/AAAAAAAAAFh8VdKzQQagpgcUQM08s3d1ZnMgKZeIAQAAAAAAAEANtNJb3Zwvrv+xFECduAEQqJ+Z9kPGfwAAAAAAAADUSG9my0YZgLpxAyBQL1ueW57Vy/cnuVIMAAAAAAAAAGpkJr2tG/PFDx6UAqgLNwAC9bJq+YMx/gMAAAAAAACgfpak3feoDECduAEQqI9n9y3J+MyPk1wnBgAAAAAAAAA1NJG+mbflkX95VAqgDtwACNToY9L0p2P8BwAAAAAAAEB9rcjskkdkAOrCDYBAPezc2ZuhtS8n5Z1iAAAAAAAAAFBjY6km35ZHP3xKCmCxuQEQqIfBa+83/gMAAAAAAACgA1yc9rLPyQDUgQEgUA9VNooAAAAAAAAAQEeoqi/l2X0rhAAWmwEgsPh29H80yR1CAAAAAAAAANAhrsjEzAMyAIvNABCogfYTGgAAAAAAAADQUUo2ZMvLS4UAFpMBILC4tu/+UEo+KAQAAAAAAAAAHebarD7zKRmAxWQACCy2zRIAAAAAAAAA0JnK5uzc2asDsFgMAIHFs2337Ul1nxAAAAAAAAAAdKgbM3TtH8oALBYDQGDxVNVXk1RCAAAAAAAAANDBNqcU//YNLAoDQGBxPLX7XUk+LgQAAAAAAAAAHe7WbO//HRmAxWAACCyO3p5NziAAAAAAAAAAukJVviYCsCjHjwTAgvub59em1fuTJEvEAAAAAAAAAKAr9LQ/lC994D8JASzo0SMBsODavU/E+A8AAAAAAACAbtLq3SwCsNDcAAgsrKf3viXtsj/JRWIAAAAAAAAA0F167spj6/bpACzYqSMBsKDaeTzGfwAAAAAAAAB0pfYTGgALyQ2AwMLZvntNUg0kWSUGAAAAAAAAAF2oJL3vyWN3vywFsBDcAAgsnKp6OMZ/AAAAAAAAAHSvKlV7owzAwh06AAth60sr0zsxkORyMQAAAAAAAADoYrNp9dyUDev2SwHMNzcAAguj79znYvwHAAAAAAAAQPfrS2/7yzIAC8ENgMD8e+aby9K69JWUXC0GAAAAAAAAAA0wlZnW2/OVD45IAcwnNwAC82/20j83/gMAAAAAAACgQZalr/eLMgDzzQ2AwPzaubM3Q9f+MMmNYgAAAAAAAADQIONZ2nNdvrDuuBTAfHEDIDC/Btf+cYz/AAAAAAAAAGielZluPSQDMJ8MAIH5U0qVlK8IAQAAAAAAAEAzVV/M159fpQMwXwwAgfmzY8/HU+UWIQAAAAAAAABoqDVZ0vegDMB8MQAE5vOI2aABAAAAAAAAAM1Wvpwtzy3XAZgPBoDA/Hhq731JuUcIAAAAAAAAABruyqxa9hkZgPlgAAjM0+lSNosAAAAAAAAAAEmqbMyW5/qEAOaaASAw957esy7JvUIAAAAAAAAAQJJUb8+qiz6hAzDXDACBudfOV0UAAAAAAAAAgJ9Rlc3ZUmx1gDnlUAHm1tN735vko0IAAAAAAAAAwM+5ORfv+V0ZgLlkAAjMrXbZlKQSAgAAAAAAAAB+QbvaLAIwl4x0gLnz5K4b0tfzwyR9YgAAAAAAAADAr1Dlvjx6z38QApgLbgAE5k5fz6YY/wEAAAAAAADAqytxCyAwZ9wACMyNZ/Zek9ny0yRLxQAAAAAAAACA11Dlg3n0nl1CAG+UGwCBuTHb/nKM/wAAAAAAAADg1yv5igjAXHADIPDGfaP/sky3B5K8SQwAAAAAAAAA+LVKSrkzj7//O1IAb4QbAIE3bqb9aIz/AAAAAAAAAOB8VUnPBhmAOThMAN6AZ/auzmwOJOUSMQAAAAAAAADgvLVSet6dx9f9vRTAheqTAHhDZtoPpaouEaJh2u1zKWVKCAAAAAAAADpST8/KVNUSIVhkvanaG5P8WymAC+UGQODCbXlueVYv35/kSjEa5rs/+Nu0Wu8RAgAAAAAAgI508cr/X268/kNCUAMz6W3dmC9+8KAUwIXokQC4YKuWPxjjv+Y5OfYd4z8AAAAAAAA62tj4+zI7e0IIamBJ2n2PygBcKANA4MI8u29JqjwmRAMdHNEAAAAAAACATrcyBw/9rQzUQikP5pn/9GYhgAthAAhcmInpTye5ToiGOTPxcmZbtwsBAAAAAABAxzs19t60W2eFoAZWpLXkizIAF8IAEHj9du7sTam+IkQDHRjyAxAAAAAAAADdoeTSHBz9lhDU5Hl8ODueu0QI4PUyAARev8Fr709ykxANMzH500xN3yUEAAAAAAAAXeP4iZvTbp8TghpYnfayz8kAvF4GgMDrV2WjCA00MDjqfQMAAAAAAIAuc0VGjr4oA7VQVV/Ks/tWCAG8HoYcwOuzo/+jSe4QomEmpwZzbupuIQAAAAAAAOg6o8euTymzQlADV2Ri5gEZgNfDABB4ndpPaNBAB4YGkvQJAQAAAAAAQPcp1+bwsX4dqMfjmA3Z8vJSIYDzZQAInL8de+5NyQeFaJjZ2SM5e+4uIQAAAAAAAOhah45clZS2ENTAtbl47E9kAM6XASBw/krZJEIDvTL4gyTLhQAAAAAAAKBrlfL2HD35ohDUQ7U5O3f26gCcDwNA4Pxs2317Ut0nRMPMtk7kzPj7hAAAAAAAAKDrDR++OCVFCBZdyQ0ZuvYPhQDOhwEgcH6q6qtJKiEa5sDI95KsFAIAAAAAAICu12q/K6fGvi0ENbE5pfg3euDXMgAEfr2ndr8ryceFaJh262zGTt8mBAAAAAAAAI1x8JCvXaUubs32/t+RAfh1DACB8zkpNjsvGvnDzbdSyiVCAAAAAAAA0Bizs7fl9Nm/FYJaqMrXRAB+HYMe4LX9zfNrk+oTQjRMKZM5PvYuIQAAAAAAAGicgyPnRKAm1mf77g/JALwWA0DgtbV7n0iyRIiGGR7tT8pbhAAAAAAAAKBxpqbvztmJHwpBLZSeTSIAr8UAEHh1T+99S0r+TIimfYAsMzly/AYhAAAAAAAAaKyBoZMiUAtV+e1s73+fEMCrMQAEXl07jye5SIiGOXS0P6VcIwQAAAAAAACNNTV9dyYnB4SgHtpPaAC8GgNA4FfbvntNUv5KiKYp7Yweu1IHAAAAAAAAGq43+4cHZaAm/iBbd90iA/CrGAACv1qpHkmySoiGOXL8hbTbNwoBAAAAAABA402cW5+p6WEhqIEqfb0bZAB+FQNA4JdtfWllqjwkRAMNH1ktAgAAAAAAACRJluTA8E9koBZK+WS29l8vBPCLDACBX9Z37nNJLheiYY6f2pd2+91CAAAAAAAAwH9xZvyuzM4cEYIa6Etv+8syAL/IABD4ec98c1lSHhWigQZHlooAAAAAAAAAP2dFDox8XwZq4oF8/fmrZQB+lgEg8PNmL/3zlPjA0DRjZ/8urfZ7hQAAAAAAAIBfcOrMnWm1x4SgBpalr/eLMgA/ywAQ+Gc7d/YmeVyIBjo4PCkCAAAAAAAA/EqrMjTyHRmohSoP5al9lwsB/CMDQOCfDa/9ZJIbhWiY8XM/yvTMnUIAAAAAAADAqzh26r1plXEhqIGV6Z15SAbgHxkAAv+glCrtslGIBhoYPJGkEgIAAAAAAABe1ZoMH94nA7VQ8ki+/vwqIYDEABD4Rzv2fDxVbhGiYc5N7c/k9DohAAAAAAAA4Nc4dvymlDItBDWwJkv6HpQBSAwAgX8+DjZo0EADg8PeCwAAAAAAAOA8lFyVQ0f7haAmD+SXs+W55ToARh9A8tTe+5JyjxANMz0zkonJu4UAAAAAAACA8zR69LqUtISgBq7MqmWfkQEwAASSnrJZhAZ6ZfDHSZYKAQAAAAAAAOepXdbm6LEXhKAWquor2fJcnxDQbAaA0HRP71mX5F4hGmZm5mjGJ9z+BwAAAAAAAK/X8JE1KSlCUAPXZ9VFn5ABms0AEJquna+K0EAHhr+f5CIhAAAAAAAA4HVqt9+Zk2MvCkEtVGVzthT7H2gwBwA02dN735vko0I0TKt1OmPjtwsBAAAAAAAAF+jgyEoRqImbc/Ge35UBmssAEJqslM1JKiEa98PIt5OyWggAAAAAAAC4QK3Wb+TUme8KQS20q80iQHMZAEJTPbnrhpTcL0TDlDKek2PvEQIAAAAAAADeoAPDLRGohSp35am99wkBzWQACE3V17MpSa8QDTN4aF9KLhMCAAAAAAAA3qDZ2TtzZvxvhaAWesomEaChL38JoIGe2XtNkk8L0TClzOToyXcIAQAAAAAAAHNkYGhcBGriw9mx5wMyQPMYAEITzba/nGSpEA0zcmRPUq4WAgAAAAAAAObI9My6TEz+RAhqoeQrIkDzGABC03yj/7KkekCIxn3Qa+XI8bVCAAAAAAAAwJyqMjA0KgM18bFs2327DNAsBoDQNNPtx5K8SYiGOXKsP+3224QAAAAAAACAOXZucn0mpw4IQQ1UqaqNMkCzGABCkzyzd3VSfV6IhikpGT7yZiEAAAAAAABgXvTmwJABIHXxR9nWf5MM0BwGgNAks+ULSblEiIY5fuKFlPY7hAAAAAAAAIB5cubcukzP+ipg6qA3aW+QAZrDABCaYstzy5M8LEQDDY2uEAEAAAAAAADmUZVlOTj4QyGoyfP4mfzN82uFgGYwAISmWLX8wSRXCtEwJ8e+k1brPUIAAAAAAADAPBsbf19mZ08IQQ0sSbvvURmgGQwAoQme3bckVR4TooEGDxURAAAAAAAAYEGszMFD35OBWijlwWzddYUQ0P0MAKEJxqf/NMl1QjTMmYmXMzN7hxAAAAAAAACwQE6N3Zp266wQ1MCK9PU8IgN0PwNA6HY7d/Ym1UYhGmhgyA8WAAAAAAAAsJBKLs3gkX1CUJPn8eHseO4SIaC7GQBCtxu89v4kNwnRMOfO/TTT03cJAQAAAAAAAAvs2PF3p90+JwQ1sDrtZZ+TAbqbASB0uypu/2ui/UOjzngAAAAAAABYFFfk0OiLMlALVfWlPLtvhRDQvYxDoJvt6P9okjuEaJjJqcGcm7pbCAAAAAAAAFgkh09cn1JmhKAGrsjEzAMyQPcyAIRuVtqbRGiggeH9SfqEAAAAAAAAgMVSrs3o8X4dqMfjmI3Z8vJSIaA7GQBCt9qx594kHxCiYWZmRzM+4fY/AAAAAAAAWGyHRq9KSlsIauCaXDz2JzJAdzIAhG5Vitv/mmj/4A+TLBcCAAAAAAAAFlm73JBjJ18QgnqoNmfnzl4doPsYAEI32rb79qS6T4iGmW2dyJnx9wkBAAAAAAAANTF0+JKUFCFYdCU3ZOjaPxQCuo8BIHSjqvpqkkqIhjkw8r0kK4UAAAAAAACAmmi135VTY98WgprYnFJsCaDLGABCt9mx5+YkHxeiaT84tM5k7PRtQgAAAAAAAEDNHBzxtavUxa3Z3v87MkB3MQCEblPKJq/tJv7QcOhbKeUSIQAAAAAAAKBmZlu35fTZ7wlBLVTlayJAdzESgm7yN8+vTapPCNEwpUzmxNjNQgAAAAAAAEBNHRyZFIGaWJ/tuz8kA3QPA0DoJu3eJ5IsEaJhhkf7k/IWIQAAAAAAAKCmpqbvztmJHwpBLZSeTSJA9zAAhG7x9N63pOTPhGjaB7MykyPHbxACAAAAAAAAam5g+IQI1EJVfjvb+98nBHQHA0DoFq32l5NcJETDHDran1KuEQIAAAAAAABqbmpqXc5N7ReCemi7BRC6hAEgdIPtu9ekqv5SiKYp7Yweu1IHAAAAAAAA6Ai9GRgakoGa+P1s3XWLDND5DAChG5TqkSSrhGiYoyf6027fKAQAAAAAAAB0iIlz6zM1PSwENVClr3eDDND5DACh0219aWWqPCREAw2NXiwCAAAAAAAAdJQlOTD8ExmohVI+lSd33SAEdDYDQOh0fec+l+RyIRrm+Kl9abffLQQAAAAAAAB0mDPjd2V25ogQ1EBv+noekwE6mwEgdLJnvrksKY8K0UCDI0tFAAAAAAAAgI60IvtHvi8DNfFAvv781TJA5zIAhE42c+lnU+KNuGnGzn43rfZ7hQAAAAAAAIAOdfrMnWm1x4SgBpZlSd+XZIDOZQAInWrnzt5UcRVvEw0Mz4oAAAAAAAAAHW1Vhka+IwP1UD6fp/ZdrgN0JgNA6FTDaz+Z5EYhGmb83I8yO3OnEAAAAAAAANDhjp16b1plXAhqYGV6Zx6SATqTASB0olKqtMtGIRpoYPBEkkoIAAAAAAAA6HhrMnx4nwzUQskj+frzq4SAzmMACJ1ox56Pp8otQjTM5NQrmZxeJwQAAAAAAAB0iWPHb0op00JQA2uypO9BGaDzGABCJyrVJhEaaP/giHMbAAAAAAAAukjJVTl0pF8IavJAfjnbd1+kA3QWQxLoNNv3/laq3CVEw0zPjGRi8m4hAAAAAAAAoMuMHrsuJbNCUANXJtVnZIDOYgAIHae4/a+JXhn8cZKlQgAAAAAAAECXaZe1OXL8BSGoiY3Z8lyfDNA5DAChkzy9Z12Se4VomJmZoxmfcPsfAAAAAAAAdKuR0ctSUoSgBq7Pqos+IQN0DgNA6CTtfFWEBhoYfjnJRUIAAAAAAABAl2q335mTYy8KQS1UZXO2FJsi6BBerNAptvXfmuSjQjRMq3U6Y2dvFwIAAAAAAAC63MHhFSJQEzfn4j2/KwN0BgNA6JhXa3tTkkqIpn3IH/l2qlwsBAAAAAAAAHS5VvuWnDrzHSGohVL91ynFRgE6gAEgdIInd92QkvuFaNoHqjKek2PvEQIAAAAAAAAa4sBwWwRq4vZs6/9NGaD+DAChE/T1bErSK0TDDB7al5LLhAAAAAAAAICGmJ29M2fG/1YIaqGnbBIBOuClKgHU3DN7r0nyaSEappSpHDtxoxAAAAAAAADQMAND4yJQEx/Ojj0fkAHqzQAQ6m62bEiyVIiGGTnSn5K3CgEAAAAAAAANMz2zLhOTPxGCWih5QgSoNwNAqLNv9F+W5AEhGvcBqpUjx9cKAQAAAAAAAI1UZeDgqAzUxMeyY88dMkB9GQBCnU23H0uyUoiGGT2+N+3224QAAAAAAACAhjo3vT6TUweEoBZKNogA9WUACHX1zN7VSfV5IRr3walkZPQKIQAAAAAAAKDRenNgyACQuvijbOu/SQaoJwNAqKvZ8oWkXCJEwxw/8UJK+x1CAAAAAAAAQMOdObcu0zOHhaAGepO2WwChpgwAoY6e3bciyReFaKCh0RUiAAAAAAAAAKmyLAPDPxSCmjyPn8nfPL9WCKgfA0Coo7Mz/zaJr4FtmlNj306r9R4hAAAAAAAAgCTJmbN3ZXb2hBDUwJK0eh6TAerHABDq5tl9S1LFm2YTHTykAQAAAAAAAPCzVubgoe/JQD1Uf5Gtu1xmBDVjAAh1Mz79p0muE6Jhzky8nJnZO4QAAAAAAAAAfs6psVvTbp0VghpYkb6eR2SAejEAhDrZubM3qTYK0UADQz6wAwAAAAAAAL+s5NIMHtknBDV5Hh/OjucuEQLqwwAQ6mTw2vuT3CREw5w799NMT98lBAAAAAAAAPArHTv+7rTb54SgBlanvexzMkB9GABCnVRx+18T7R8+7DwGAAAAAAAAXsMVGTnyggzUQlU9lq0vrRQC6sHgBOpi2+6PJblDiIaZnBrMucl1QgAAAAAAAACvafT421PKjBDUwOXpmXhABqgHA0Coi6p6QoQGGhjen6RPCAAAAAAAAOC1lWszerxfB2qhyoZseXmpELD4DAChDnbsuTfJB4RomOmZQxmfuFsIAAAAAAAA4LwcGr0qKW0hqIFrcvHYn8gAi88AEOqglE0iNNDA8I+SLBcCAAAAAAAAOC/tckOOnXALIDVRbc7Onb06wOIyAITFtm337Ul1nxANM9s6kTNn7xICAAAAAAAAeF2GRi9NSRGCRVdyQ4au/UMhYHEZAMJiq6qvJamEaJgDI99LslIIAAAAAAAA4HVptd+Vk6e/JQQ1sTml2DzAIjIAhMW0Y8/NSX5PiKZ9IG+dydjp24QAAAAAAAAALsjgcJ8I1MStefqFj8gAi8cAEBZTKZu8Dhvo4KFvpZRLhAAAAAAAAAAuyGzrtpw++z0hqIXS/qoIsHgMj2CxbO2/Pqn+WIimffApkzkxdrMQAAAAAAAAwBsyMDwpAjWxPtt3f0gGWBwGgLBY+tobkriWuWmGDvcn5S1CAAAAAAAAAG/IzMzdGR//gRDUQunZJAIsDgNAWAxPvnBlSv5MiKZ94CkzOXriBiEAAAAAAACAOXFg5KQI1EJVfjtP77pLCFh4BoCwGHpnH09ykRANc/jo3pRyjRAAAAAAAADAnDg3tS6Tkz8Rglpo9zwhAiw8A0BYaNt3r0lV/aUQTVPaOXzsKh0AAAAAAACAOdSb/cOHZKAmfj9bd90iAywsA0BYaKV6JMkqIRrm6In+tNs3CgEAAAAAAADMqYlz6zM1PSwENVClr3eDDLCwDABhIW19aWWqPCREAw2NXiwCAAAAAAAAMA+W5MDIj2WgFkr5VJ7cdYMQsHAMAGEh9Z37XJLLhWiYE6deTLv9biEAAAAAAACAeXHm7N2ZmR0VghrozZKex2WAhWMACAvlmW8uS8qjQjTQwUNLRQAAAAAAAADm0YoMDP9ABmqh5LP5+vNXCwELwwAQFsrMpZ9NiTe4phk7+920WrcKAQAAAAAAAMyr02fuTKs9JgQ1sCxL+r4kAywMA0BYCDt39qbKY0I00IHhGREAAAAAAACABbAqQyPfkYF6KJ/PU/su1wHmnwEgLIThtZ9McqMQDTN+7keZmXmfEAAAAAAAAMCCOHbqvWmVcSGogZXpnXlIBph/BoAw30qp0i4bhWig/YMnklRCAAAAAAAAAAtkTYZHX5SBWih5JF9/fpUQML8MAGG+Pb3391PlFiEaZnLqlUxNrxMCAAAAAAAAWFDHjr0zpUwLQQ2sydK+v5QB5pcBIMy3dp4QoYH2D444YwEAAAAAAIAFV3JVDh3dKwT1eB7L49m++yIhYP4Yp8B82r73t1LlLiEaZmp2OBOTdwsBAAAAAAAALIrRo29LyawQ1MCVSfUZGWD+GADCvCqbNGig/Qd/kmSpEAAAAAAAAMCiaJe1OXqiXwhqYmO2PNcnA8wPA0CYL0/vWZfkXiEaZmbmaMYn3P4HAAAAAAAALK6hQ5enpC0ENXB9Vl30CRlgfhgAwnxpl6+J0EADwy8nuUgIAAAAAAAAYFGV8s6cOLVPCGqhKpuzpdgpwTzwwoL5sK3/1qT6iBAN02qdztjZ24UAAAAAAAAAamFwZIUI1MTNWb3n92SAuWcACPPyympvSlIJ0TAHR76dKhcLAQAAAAAAANRCq31LTp35jhDUQ/W1lGJLAXPMABDm2pO7bkjJ/UI0TCnjOTn2HiEAAAAAAACAWjkw3BaBmrg92/p/UwaYWwaAMNf6ejYl6RWiYQ4efjEllwkBAAAAAAAA1Mrs7J05M/63QlALPWWTCDDHLysJYA49s/eaJJ8WomFKmcrx4+8QAgAAAAAAAKilgaFxEaiJD2fHng/IAHPHABDm0mzZkGSpEA0zcqQ/JW8VAgAAAAAAAKil6Zl1mZj8iRDUQskTIsDcMQCEufKN/suSPCBE4z6YtHLk+FohAAAAAAAAgBqrcmDwsAzUxMeyY88dMsDcMACEuTLdfizJSiEa5sixPWm33yYEAAAAAAAAUGsTU/dkcmpACGqhZIMIMDcMAGEuPLN3dVJ9XojGfSApGT7yFiEAAAAAAACADtCbgeEDMlATf5Rt/TfJAG+cASDMhdnyhaRcIkTDHD/Zn9J+hxAAAAAAAABARzg7sT7TM74KmDroTdXeKAO8cQaA8EY9u29Fki8K0UBDh33lMwAAAAAAANA5qizLwPAPhaAm/jRP7bpOBnhjDADhjRqf/YskVwjRMKfGvp1W6z1CAAAAAAAAAB3lzNm7MtM6LgQ1sCQ91aMywBtjAAhvxLP7liTFm1ETHRjRAAAAAAAAAOhEKzM48rcyUA/VX2TrLpcuwRtgAAhvxPj0nyZxHW3TnB5/ObOtO4QAAAAAAAAAOtKpsVvTbp0WghpYkb6eR2SAC2cACBdq587epNooRAMdGD4rAgAAAAAAANCxSi7NgcPfFoKaPI8PZ8dzlwgBF8YAEC7U4LX3J7lJiIY5d+6nmZ6+SwgAAAAAAACgo504+e602+eEoAZWp73sczLAhTEAhAtVxe1/TbR/+LCzEwAAAAAAAOgCV2TkyAsyUAtV9Xi2vrRSCHj9jFjgQmzb/bEkdwjRMFPTB3Nucp0QAAAAAAAAQFcYPf72lDItBDVwWXomHpABXj8DQLgQVfWECA20f3AgSZ8QAAAAAAAAQHco12b0mFsAqYcqG7Ll5aVCwOtjAAiv14499yb5gBANMz1zKOPn7hYCAAAAAAAA6CqHjlyVlLYQ1MA1uXjsT2SA18cAEF6/zRI00MDwj5IsFwIAAAAAAADoKu1yQ46d6BeCeqg2Z+fOXh3g/BkAwuuxbfftKflNIRpmtnUiZ87eJQQAAAAAAADQlYZGL01JEYJFV3JDBq+9Xwg4fwaA8HpU1deSVEI0zIGhl5KsFAIAAAAAAADoSq32u3Ly9LeEoBaqbEopthlwngwA4Xzt2HNzkt8TomkfdFtnMnb2diEAAAAAAACArjY43CcCNXFrnn7hIzLA+TEAhPNVyiavmSZ+yD28L6VcIgQAAAAAAADQ1WZbt+X02e8JQS2U9ldFgPNjzATnY2v/9Un1x0I07QNFmczxU+8WAgAAAAAAAGiEgeFJEaiJ9dm++0MywK9nAAjno7e9MYnrjptm6HB/Ut4iBAAAAAAAANAIMzN3Z3z8B0JQE5slgF/PABB+nSdfuDLJZ4RomFJmcvTEDUIAAAAAAAAAjTJw6IQI1EP1W3l61106wGszAIRfp3f28SQXCdEwh4/uTSnXCAEAAAAAAAA0yuTk+kxO/kQIaqHd84QI8NoMAOG1bN+9JlX1l0I0TWnn8NGrdAAAAAAAAAAaqDf7hw/JQE38frbuukUGeHUGgPBaSvVIklVCNMyRk3vTLjcKAQAAAAAAADTSxLn1mZoeFoIaqNLXu0EGeHUGgPBqtr60MlUeEqKBhg9fIgIAAAAAAADQYEtyYOTHMlALpXwq23e7xAdehQEgvJre8c8nuVyIhjlx6sW02+8WAgAAAAAAAGi0M2fvzszsqBDUQG+q6jEZ4FczAIRf5ZlvLktVfUmIBjo4slQEAAAAAAAAgKzIgeHvy0AtlHw2X3/+aiHglxkAwq8yc+lnU+KNo2lOn/1OWu1bhQAAAAAAAABIMnbmfWm3TglBDSzLkr4vyQC/zAAQftHOnb2p4urYJhoYnhUBAAAAAAAA4J+sysGR78hAPZTP56l9l+sAP88AEH7R8NpPJrlRiIYZP/ejzMy8TwgAAAAAAACAn3F87Na0yrgQ1MDK9M48JAP8PANA+FmlVGmXjUI00P7B40kqIQAAAAAAAAB+zpoMj74oA7VQ8ki+/vwqIeCfGQDCz3p67++nyi1CNMzk1CuZml4vBAAAAAAAAMCvcOzYO1PKlBDUwJos7ftLGeCfGQDCz2rnCREaaP/gsPMQAAAAAAAA4FWUXJVDR/uFoB7PY3k823dfJAT8A4MX+Efb9/5WqtwlRMNMzQ5nYnKdEAAAAAAAAACvYfTo21IyKwQ1cGVSfUYG+AcGgPBPyiYNGmj/wZ8kWSoEAAAAAAAAwGtol7U5esItgNTFxmx5rk8GMACEf7Bt7/ok9wrRMDMzRzM+cbcQAAAAAAAAAOdh6NDlKWkLQQ1cn1UXfUIGMACEf1C1vypCAx0Y+bskFwkBAAAAAAAAcB5KeWdOnnxRCGqhKpuzpdg+0XheBLCt/9ak+ogQDTPbOplTZ+4QAgAAAAAAAOB1OHhopQjUxM1Zvef3ZKDpDAChp70pSSVEwxwY/m6qXCwEAAAAAAAAwOvQat+SU6e/LQT1UH0tpdh80GgGgDTbk7tuSMn9QjRMKeMZO/1eIQAAAAAAAAAuwIGRIgI1cXu29f+mDDSZASDN1tu7OUmvEA1z8PCLKblMCAAAAAAAAIALMDt7Z86Mf08IaqGnbBaBRr8EJKCxntl7TaryJ0I0TClTOX78HUIAAAAAAAAAvAEHhsdFoCbuzY49H5CBpjIApLlmy4YkS4VomEOje1PyViEAAAAAAAAA3oCp6fWZmPyxENRCyRMi0FQGgDTTN/ovS/KAEI17w29l9MR1QgAAAAAAAAC8YVUODI7KQE18LDv23CEDTWQASDNNtx9LslKIhjlybE/a7bcJAQAAAAAAADAHJqbuyeTUgBDUQskGEWgiA0Ca55m9q5Pq80I07o2+ZPjIW4QAAAAAAAAAmDO9GRg+IAM18UfZ1n+TDDSNASDNM1MeTsolQjTM8RP9Ke13CAEAAAAAAAAwh85OrM/0zGEhqIHeVO2NMtA0BoA0y7P7VqTKI0I00NCor3wGAAAAAAAAmGtVluXAyA+EoCb+NE/tuk4GmsQAkGYZn/2LJFcI0TCnxr6VVus9QgAAAAAAAADMg9Nn7s5M67gQ1MCS9FSPykCTGADSHM/uW5IUh3wTHRipRAAAAAAAAACYNytzcPh7MlAP1V9k6y6XQ9EYBoA0x/j0nyZxzWvTnB5/ObOtO4QAAAAAAAAAmEdjp29Lu3VaCGpgRfp6HpGBpjAApBl27uxNqo1CNNCBwbMiAAAAAAAAAMyzkktz4PC3haAmz+PD2fHcJULQBAaANMPQ2j9KcpMQDTMx+aNMz94lBAAAAAAAAMACOHHy3Wm3zwlBDaxOWf55GWgCA0AaomzQoIH2Dx11zgEAAAAAAAAsmCsyMvqCDNTEY9n60koZ6HaGMXS/bbs/luQOIRpmavpgJifXCwEAAAAAAACwgEZPvD2lTAtBDVyWnokHZKDbGQDS/arqCREaaP/gQJI+IQAAAAAAAAAWUrk2o8f7daAWqmzIlpeXCkE3MwCku+3Yc2+SDwjRMNMzhzJ+7m4hAAAAAAAAABbBodGrk9IWghq4JheP/YkMdDMDQLrdZgkaaGD4R0mWCwEAAAAAAACwCNrlhhw94RZAaqLanJ07e3WgWxkA0r227b49Jb8pRMPMtk7kzNm7hAAAAAAAAABYRMOjl6akCMGiK7khg9feLwTdygCQ7lVVX0tSCdEwB4ZeSrJSCAAAAAAAAIBF1Gq/K6fG9glBLVTZlFJsSOhKBoB0px17bk7ye0I07QNk60zGzt4uBAAAAAAAAEANHBxZIgI1cWuefuEjMtCNDADpTiWbPd8NNHh4X0q5RAgAAAAAAACAGpht3ZbTZ14Sgloo7a+KQDcykKL7bO2/PsknhGjaG3WZzPFT7xYCAAAAAAAAoEYGRqZEoCbWZ8eee2Wg2xgA0n162xuT9AnRMEOje5PyFiEAAAAAAAAAamRm5u6Mj/9ACGqhlE0i0G0MAOkuT75wZZLPCNG4N+iZHD1+oxAAAAAAAAAANTRw6IQI1EP1W3l611060E0MAOkuvbOPJ7lIiIY5fHRvSrlGCAAAAAAAAIAampxcn8nJnwhBLbR7nhCBbmIASPfYvntNquovhWia0srho1fpAAAAAAAAAFBbvRkYHpGBmvj9bN11iwx0CwNAukepHkmySoiGOXKiP+3i638BAAAAAAAA6mz83D2Zmh4Sghqo0lttlIFuYQBId9j60spUeUiIBhoevUQEAAAAAAAAgNpbkoERXwNMTVSfzPbdLhuiKxgA0h16xz+f5HIhGubEqRfSbr9bCAAAAAAAAIAOcPbs3ZmZHRWCGuhNVT0mA93AAJDO98w3l6WqviREAx0cWSYCAAAAAAAAQMdYkQPD35eBWij5bL7+/NVC0OkMAOl8M5d+NiUO5KY5ffY7abVvFQIAAAAAAACgg4ydeV/arVNCUAPLsqTvSzLQ6QwA6Ww7d/amiitZm2hgeFYEAAAAAAAAgI6zKgdHviMD9VA+n6f2Xa4DncwAkM42eM2nktwoRMNMnPthZmbeJwQAAAAAAABABzo+dmtaZVwIamBlqpkvyEAnMwCkc5VSJdUGIRrolcETSSohAAAAAAAAADrSmgwfflEGaqHKw/n686uEoFMZANK5nt77+6lyixANMzn1Sqam1wsBAAAAAAAA0MGOHX9nSpkUghpYk6V9fykDncoAkM7VzhMiNNArQ0POLgAAAAAAAIAOV3JVDh19QQjq8TyWx7N990VC0ImMaOhM2/f+VqrcJUTDTM0O59w5t/8BAAAAAAAAdIPRo29LyawQ1MCVSfUZGehEBoB0qLJZgwYaGPxxkqVCAAAAAAAAAHSBdlmbo8f7haAmNmbLc30y0GkMAOk82/auT/IhIRpmZuZozo6vEwIAAAAAAACgiwwdvjwlbSGogetz8UV/LAOdxgCQzlO1vypCAx0Y+bskFwkBAAAAAAAA0EVKeWdOnnxRCGryPG7KlmJPRUfxwNJZtvXfmlQfEaJhZlsnc+rMHUIAAAAAAAAAdKGDh1aKQE3cnNV7fk8GOokBIB32xLY3JamEaJgDw99NlYuFAAAAAAAAAOhCrfYtOXX620JQD9XXUoptCh3DAJDO8eSuG1JyvxANU8p4xk6/VwgAAAAAAACALnZguC0CNXF7tvX/pgx0CgNAOkdv7+YkvUI0zMFDL6TkMiEAAAAAAAAAuths6305M/49IaiFnrJZBDrmcZWAjvDM3mtSlT8RomFKmcrxEzcJAQAAAAAAANAAB4bHRaAm7s2OPR+QgU5gAEhnmC0bkiwVomEOje5NyVuFAAAAAAAAAGiAqen1mZj8sRDUQskTItAJDACpv2/0X5bkASEa90bayuiJ64QAAAAAAAAAaIwq+4cOy0BNfCw79twhA3VnAEj9zZTHk6wUomGOHtuddvttQgAAAAAAAAA0yOTk+zM5NSAENbFRAurOAJB6e2bv6pR8ToiGKSkZOXK5EAAAAAAAAACN05uB4QMyUAsl92db/01CUGcGgNTbTHk4KZcI0TDHT/Sn1b5ZCAAAAAAAAIAGOjuxPlOzw0JQA72p2m4BpNYMAKmvZ/etSJVHhGigoVFf+QwAAAAAAADQVFWW5eDw3wtBTfxpntp1nQzUlQEg9TU++xdJrhCiYU6NfSut1nuEAAAAAAAAAGiw02fuzkzruBDUwJL0VI/KQF0ZAFJPz+5bkhSHZxMdPKQBAAAAAAAAACtzcPh7MlAP1V9k6y6XWFFLBoDU08TMZ5K4PrVpTo+/nJnZO4UAAAAAAAAAIGOnb0u7dVoIamBFenu+KAN1ZABI/ezc2ZuSDUI00IHBsyIAAAAAAAAAkCQpuTQHR78lBDXxhex47hIZqBsDQOpnaO0fJblJiIaZmPxRpmfvEgIAAAAAAACAf3L8xG+k3T4nBDWwOmX552WgbgwAqaHi9r8m2j941JkEAAAAAAAAwC+4IiOjL8hATTyWrS+tlIE6MbahXrbt/liSO4RomKnpg5mcWi8EAAAAAAAAAL9k9MTbU8q0ENTAZemZeEAG6sQAkHqpqidEaKD9gwNJ+oQAAAAAAAAA4JeVazN6tF8HaqHKhmx5eakQ1IUBIPWxbe+Hk3xAiIaZnjmU8XN3CwEAAAAAAADAqzp09OqktIWgBq7J6rFPy0BdGABSo6exbBKhgQaGf5RkuRAAAAAAAAAAvKp2uSFHT7gFkHqoqk3ZubNXCOrAAJB62Lb79pT8phANM9s6kTNn7xICAAAAAAAAgF9rePTSlBQhWHQlN2Tw2vuFoA4MAKmHqvpakkqIhjk4/N0kK4UAAAAAAAAA4Ndqtd+VU2P7hKAWqmxKKbYuLDoDQBbfjj03J/k9IRr3wexMTp6+TQgAAAAAAAAAztvBYV+7Sl3cmqdf+IgMLDYDQBZfyWbPYgMNHX4xyRohAAAAAAAAADhvs+07cvrMS0JQC6X9NRFYbEZXLK6t/dcn+YQQTXsDLBM5dvI3hAAAAAAAAADgdRsYmRKBmliXHXvulYHFZADI4uptb0zSJ0TDDI2+kJS3CAEAAAAAAADA6zYzc3fOjn9fCGqhlE0isJgMAFk8T75wZZLPCNG4N76ZHD1+oxAAAAAAAAAAXLADh06KQD1Uv5Wnd92lA4vFAJDF09f6cpKLhGiY0WN7Uso1QgAAAAAAAABwwSYn1+fc5I+FoBbaPW4BZNEYALI4tu9ek+RBIZqmtHL46FU6AAAAAAAAAPAG9ebA8CEZqImPZ+uuW2RgMRgAsjhK9UiSVUI0zJET/Wm13yEEAAAAAAAAAG/Y+Ll7MjU9JAQ1UKW32igDi8EAkIW39aWVqfKQEA00PHqJCAAAAAAAAADMkSUZGP6JDNRD9cls332jDiw0A0AWXu/455NcLkTDnBzrT7v9biEAAAAAAAAAmDNnx+/OzOyoENRAb6rqMRlYaAaALKxnvrksVfUlIRro4MgyEQAAAAAAAACYYytycORlGaiFks/m689fLQQLyQCQhTVz6WdT4qBrmtNnv53Z1m1CAAAAAAAAADDnTp2+K+3WKSGogWXp63lUBhaSASALZ+fO3vTkcSEaaGC4JQIAAAAAAAAA82RVDhz6tgzUQlV9Lk/tu1wIFooBIAtn8JpPpeQGIRpm4twPMzPzPiEAAAAAAAAAmDcnTt2WVhkXghpYmWrmCzKwUAwAWRilVEm1QYgGemXwRJJKCAAAAAAAAADm0ZqMHH5BBmqhysP5+vOrhGAhGACyMJ7e+/upcosQDXNu8qeZml4nBAAAAAAAAADz7sjxd6WUSSGogTVZ2veXMrAQDABZGO08IUID7R8eTtIrBAAAAAAAAAAL4KocOtovA7VQyuPZvvsiIZhvBoDMv6d3/3aq3CVEw0xND+bcufVCAAAAAAAAALBgRo9en5JZIaiBK1OqP5OB+WYAyPxrV5tEaKCB4Z8mWSoEAAAAAAAAAAumXdbm6HG3AFIPVTZky3N9QjCfDACZX9v2rk/yISEaZnbmSM6OrxMCAAAAAAAAgAU3dPjylLSFoAauz8UX/bEMzCcDQOZX1f6qCA00MPJyEt9jDwAAAAAAAMDCK+WdOXHqBSGoyfO4KVuKjRbzxsPF/NnWf2tSfUSIhpltncypM3cIAQAAAAAAAMCiGRx5kwjUxM1Zvef3ZGC+GAAyf6r25iSVEA1zYPi7qXKxEAAAAAAAAAAsmlb7lpw6/W0hqIfqaynFhoZ5YQDI/Hhy1w1J/lCIhillPGOn3ysEAAAAAAAAAIvuwHBbBGri9uzov08G5oMBIPOjt3dzkl4hGubgoRdScpkQAAAAAAAAACy62db7cmb8e0JQD2WTBswHA0Dm3jN7r0lV/kSIpr1PlakcP3GTEAAAAAAAAADUxoHhcRGoiXuzY88HZGCuGQAy92bLhiRLhWiYQ6N7U/JWIQAAAAAAAACojanp9ZmY/LEQ1ELJEyIw1wwAmVtP7bs8yQNCNO4NqpXRE9cJAQAAAAAAAEDNVNk/dFgGauJj2bHnDhmYSwaAzK3e2ceSrBSiYY4e2512+21CAAAAAAAAAFA7k5Pvz7mpASGoiY0SMJcMAJk7z+xdnZLPCdEwJSUjRy4XAgAAAAAAAICa6s2B4QMyUAsl92db/01CMFcMAJk7M+XhpFwiRMMcP7k3rfbNQgAAAAAAAABQW2cn1mdqdlgIaqA3VdstgMwZA0DmxrP7VqTKI0I00NAhX/kMAAAAAAAAQL1VWZaDg38vBDXxp3lq13UyMBcMAJkb47N/keQKIRrm1Ol9abXfKwQAAAAAAAAAtXd6/O7MtI4LQQ0sSU/PYzIwFwwAeeOe3bckKQ6lJjo4UokAAAAAAAAAQIdYmYPD35OBmvi32brLZVu8YQaAvHETM59JslaIhjl99u8yM3unEAAAAAAAAAB0jLHTt6XVHhOCGliR3p4vysAbZQDIG7NzZ29KNgjRQAeGz4oAAAAAAAAAQEcpuTSDh74tBDXxhex47hIZeCMMAHljhtb+UZKbhGiYiXM/yvTM3UIAAAAAAAAA0HGOn/yNtNvnhKAGVqcs/7wMvBEGgLxBxe1/TbR/6KjzAwAAAAAAAIAOdUUOHemXgZp4LFtfWikDF8qAhwu3bffHktwhRMNMTR/M5NR6IQAAAAAAAADoWIeP35BSpoWgBi5Lz8QDMnChDAC5cFX1hAgN9MrB/Un6hAAAAAAAAACgc5VrM3rULYDUQ5UN2fLyUiG4EAaAXJhtez+c5ANCNMz0zKFMTK4TAgAAAAAAAICOd+jo1UlpC0ENXJPVY5+WgQthAMgFPjllkwgNtH/oh0mWCwEAAAAAAABAx2uXG3Ls5F4hqIWq2pSdO3uF4PUyAOT127b79pT8phANM9s6kbPjdwsBAAAAAAAAQNcYOrwmJUUIFl3JDRm89n4heL0MALmQx+a/TlLp0DAHh7+bZKUQAAAAAAAAAHSNVvtdOTW2TwhqocqmlGKTw+tiAMjrs2PPzanK7wrRuA88Z3Ly9G1CAAAAAAAAANB1Dg772lXq4tZs3/NRGXg9DAB5fUo2e24aaGjkxSRrhAAAAAAAAACg68y278jY2e8KQS1U1VdF4PUw5OL8be2/PsknhGiYUiZybOw3hAAAAAAAAACgax0cmRKBmliXHXvulYHzZQDI+ettb0zSJ0TDDB5+ISlvEQIAAAAAAACArjU9vS5nx78vBLVQyiYROF8GgJyfJ1+4MslnhGjcG8pMjp24UQgAAAAAAAAAut6BQydFoB6q38qOXffowPkwAOT89LW+nOQiIRpm9NielHKNEAAAAAAAAAB0vcnJ9Tk3+WMhqIXSs0EEzocBIL/e9t1rkjwoRNPeSNLK4aNXCQEAAAAAAABAQ/RmYGhEBmri49m66xYZ+HUMAPn1SvVIklVCNMyx43vTar9DCAAAAAAAAAAaY2Ly/ZmaHhKCGqjSW22UgV/HAJDXtvWllanykBANNDR6qQgAAAAAAAAANMySDAz/RAbqofpktu++UQdeiwEgr613/PNJLheiYU6O9afdfrcQAAAAAAAAADTO2fG7MzM7KgQ10JuqekwGXosBIK/umW8uS1V9SYgGOjiyTAQAAAAAAAAAGmpFDg69LAO1UPLZfP35q4Xg1RgA8upm1zyQEgdI05w5863Mtm4TAgAAAAAAAIDGOnXmrrRaJ4SgBpalr+dRGXg1BoD8ajt39qYqrhBtov3DbREAAAAAAAAAaLZqVQ4e+q4O1ONxrD6Xp/ZdLgS/igEgv9rgNZ9KyQ1CNMzEuR9mZvZ9QgAAAAAAAADQeCdO3ZZWGReCGliZauYLMvCrGADyy0qpkmqDEA30yuCJJJUQAAAAAAAAAJA1GTn8ggzUQpWH8/XnVwnBLzIA5Jc9vff3U+UWIRrm3ORPMzW9TggAAAAAAAAA+C+OHH9XSpkUghpYk6V9fykDv8gAkF9WyiYRGuiVoeEkvUIAAAAAAAAAwD+5KoeO9stALZTy5WzffZEQ/CwDQH7e07t/O6neJ0TDTE0PZnJyvRAAAAAAAAAA8AtGj16fklkhqIG3pFR/JgM/ywCQn9eu3P7XRAODP02yVAgAAAAAAAAA+AXtsjZHju0Vglqo8kSe3bdECP6RASD/bNve9Uk+JETDzM4cydlz64QAAAAAAAAAgFcxPPrmlLSFoAbWZmL2EzLwjwwA+WdV+ZoIDTQw8nIS3w8PAAAAAAAAAK+mlHfmxKkXhKAmz+OmbCl2XyQxAOQfbeu/NcnvCNEws62TOXXmDiEAAAAAAAAA4NcYHHmTCNTEzbl478dlIDEA5B9V7c1JKiEa5uDId1LlYiEAAAAAAAAA4NdotW/JydPfEoJaKPlqSrH1wQCQJE/uuiHJHwrRtDeCMp5TY7cKAQAAAAAAAADnaXCkLQI1cXt29N8nAwaAJL29m5P0CtG0DyWH+1NymRAAAAAAAAAAcJ5mZu/KmfHvCUE9lE0aYADYdM/svSZV+RMhmnb+l6kcO/5OIQAAAAAAAADgdTowPC4CNXFvduz5gAzNZgDYdDNlY5KlQjTModG9KXmrEAAAAAAAAADwOk1Nr8/E5A+EoBaKWwCbzgCwybbuuiJVHhCiaQd/Whk9cZ0QAAAAAAAAAHBBquwfPCYDNXkcP5ode+7QobkMAJusr/dLSVYI0TBHj+1Ou/02IQAAAAAAAADgAk1OvT/npgaEoCY2StBcBoBN9cze1Sn5nBANU1IycuRyIQAAAAAAAADgDenNgeEDMlALJfdnW/9NQjSTAWBTzZSHk3KJEA1z/OTetNo3CwEAAAAAAAAAb9DZifWZmh0WghroTdV2C2BDGQA20bP7VqTKI0I00NChlSIAAAAAAAAAwByosiwHhn4kBDXxp3lq13UyNI8BYBOdnX4wyRVCNMypMy+m1X6vEAAAAAAAAAAwR86cXZeZ1nEhqIEl6el5TIbmMQBsmmf3LUlVPSpEAx0Y9noHAAAAAAAAgLm1MoMjL8lATTyYJ1+4UoZmMQhqmomZzyRZK0TDnDn7d5mdvVMIAAAAAAAAAJhjp8ZuT6s9JgQ1sDx9rYdlaBYDwCbZubM3JRuEaKCB4bMiAAAAAAAAAMA8KLk0Q4e/JQQ18YXseO4SGZrDALBJhtb+UZKbhGiYiXM/yvTM3UIAAAAAAAAAwDw5duKWtNoTQlADq1OWf16G5jAAbIpSqqRsFKKB9g8d9VoHAAAAAAAAgHl1RQ4d7ZeBmngs/+65N8nQDEZBTbFj78eS3C5Ew0xNH8zk1HohAAAAAAAAAGCejR67MaVMC0ENXJapix6QoRkMAJvjKxI00CsH9yfpEwIAAAAAAAAA5lu5NqPH9upATZ7HL2fLy0t16H4GgE2wbe+Hk3xAiIaZnjmUicl1QgAAAAAAAADAAhkZfWtSWkJQA9dk9dinZeh+BoCN+Fsum0RooP1DP0yyXAgAAAAAAAAAWCAlN+TYyX4hqIWq2pSdO3uF6G4GgN3u6V13peQ+IRpmtnU8Z8fvFgIAAAAAAAAAFtjQ4TUpKUKw6EpuyOC19wvR3QwAu12rd7MIDXRg8KUkK4UAAAAAAAAAgAXWar8rY2MvCkEtVNmcUiohupcBYDfbsefmVOV3hWjcB4kzOXX2NiEAAAAAAAAAYJEcGPG1q9TFe7N9z0dl6F4GgN2sZLO/4wYaGnkxyRohAAAAAAAAAGCRzLbuzNjZ7wpBLVTVV0XoXsZh3Wpr//VJPiFEw5QykeNj7xYCAAAAAAAAABbZwaEpEaiJddmx514ZupMBYLfqK19J0idEwwwd7k8pVwoBAAAAAAAAAItsenZdzo5/XwhqYrME3ckAsBs9+cKVKeUzQjRMKTM5euIdQgAAAAAAAABATRwYPikCtVByX3bsukeI7mMA2I36Wl9OslyIhjl8bHdKuUYIAAAAAAAAAKiJyen1OTf5YyGohdKzQYTuYwDYbbbvXpPkQSGadkCnldGjVwsBAAAAAAAAALXSm4GhERmoiY9n665bZOguBoDdplSPJFklRMMcO743rbav/wUAAAAAAACAupmYfH+mpoeEoAaq9FYbZeguBoDdZOtLK1PlISEap2Ro9FIZAAAAAAAAAKCWlmRg2NcAUxPVJ7N99406dA8DwG7SN/FQksuFaJgTYy+k3X63EAAAAAAAAABQU2fH12V29rAQ1EBvUj0uQ/cwAOwWz3xzWZIvCtFAgyPLRAAAAAAAAACAWluRA0Pfl4Ga+PN8/fmrZegOBoDdYnbNAynxwmyaM2e+ldnWbUIAAAAAAAAAQM2dOnNXWq0TQlADy9LX86gM3cEAsBtsea4vKV8WooH2j7REAAAAAAAAAIBOUK3KwUPf1YF6PI7V5/LUvsuF6HwGgN1g1bJPJrleiIY5e+7lzMzcJQQAAAAAAAAAdIiTY7em3T4rBDWwMtXMF2TofAaAna6UKqk2CNFAA4NjSSohAAAAAAAAAKBDlHJZBg+/KAS1UOXhfP35VUJ0NgPATre9/w9S5RYhGubc5E8zNb1OCAAAAAAAAADoMMdOvCulTApBDazJkp6/kqGzGQB2uqr9hAgN9MrQcJJeIQAAAAAAAACg41yVQ0f7ZaAeqsezffdFOnQuA8BO9vTu306q9wnRMFPTg5mcXC8EAAAAAAAAAHSo0aPXp2RWCGrgLSnVn8nQuQwAO1m72iRCA70y+NMkS4UAAAAAAAAAgA7VLmtz5NheIaiFKk/k2X1LhOhMBoCdatve9Uk+JETDzM4cycS5dUIAAAAAAAAAQIcbHn1zStpCUANrMzH7CRk6kwFgp6rK10RooP3Df5fE964DAAAAAAAAQKcr5Z05fuoFIajJ87g5W4otWQfyl9aJtvXfmuR3hGiY2dbJjJ29UwgAAAAAAAAA6BJDI28SgZp4Vy7e+3EZOo8BYCeq2puTVEI0zMGR76TKxUIAAAAAAAAAQJdotW/JydPfEoJaKPlqSrFJ6jAGgJ3myV03JPlDIZp2wJbxnBq7VQgAAAAAAAAA6DKDI20RqInbs6P/Phk6iwFgp+nr+eskvUI07c3+UH9KLhMCAAAAAAAAALrMzOxdOTP+khDUQ9msQWcxAOwk2164NsmnhGjauVqmcuzEO4UAAAAAAAAAgC51YGhCBGriQ3lq7wdl6BwGgB2ltSHJUh0aZmR0T0reKgQAAAAAAAAAdKmpmfWZmPyBENRCT/sJETror0uCDrF11xWp8oAQDVMymyMn3iYEAAAAAAAAAHS1KvsHj8lATR7Hj2bHnjt06AwGgJ2ir/dLSVYI0TBHj+1Ju/02IQAAAAAAAACgy01OvT/npvYLQU1slKAzGAB2gmf2rk7J54RomJKSkSOXCwEAAAAAAAAAjdCbgaEDMlALJfdnW/9NQtSfAWAnmCkPJ+USIRrm+Kk9abVvFgIAAAAAAAAAGmL83D2Zmh0WghroTcpXZKg/A8C6e3bfilT5ohANNDTyJhEAAAAAAAAAoEGqLMuBoR8JQT2ex/LpPLXrOiHqzQCw7s5OP5jkzUI0zKkzL6bVfq8QAAAAAAAAANAwZ86uy0zruBDUwJL09DwmQ70ZANbZs/uWpKoeFaKBDgx7bQIAAAAAAABAM63MweGXZKAmHsyTL1wpQ30ZGdXZxMxnkqwVomHOnP27zM7eKQQAAAAAAAAANNTY6dvTao8JQQ0sT1/rYRnqywCwrnbu7E3JBiEaaGD4rAgAAAAAAAAA0GAll2bo8LeEoCa+kB3PXSJDPRkA1tXwNf+7JDcJ0TAT536U6Zm7hQAAAAAAAACAhjt24pa02hNCUAOr017+kAz1ZABYR6VUKZXb/5po/9BRr0sAAAAAAAAAIMkVOXS0XwZqocqj+XfPvUmI+jE0qqMdez+W5HYhGmZy6kAmp9YLAQAAAAAAAAAkSUaP3ZhSpoWgBi7L1EUPyFA/BoD19BUJGmj/0P4kfUIAAAAAAAAAAP+gXJvR43t0oCbP45ez5eWlOtSLAWDdbNv74SQfEKJhZmZGMnHO7X8AAAAAAAAAwM8bOXxNUlpCUAPXZPXYp2WoFwPAuqnKZhEa6JWhHyVZLgQAAAAAAAAA8HNKbsixU3uFoBaqalO2POcbLmvEALBOnt51V5LfFKJhZmeP5ez4XUIAAAAAAAAAAL/S0KHLUlKEYNGV3JDVF90vRH0YANZJq9ftf010YOh7Sd4kBAAAAAAAAADwK7Xa78rY2ItCUA9lU0qpdKgHA8C62LHn5lTld4VomHb7dE6dvU0IAAAAAAAAAOA1HRjpFYGaeG+27/moDPVgAFgXJZv9fTTQwUMvJlkjBAAAAAAAAADwmmZbd2bszHeFoBaq6qsi1IPBWR3sePHtST4hRMOUMpETp35DCAAAAAAAAADgvBwcnhKBmliXHXvulWHxGQDWQmtjkj4dGmbocH9KuVIIAAAAAAAAAOC8TM+uy9nx7wtBTWyWYPEZAC62J1+4MqV8RoiGKWUmR0+8QwgAAAAAAAAA4HU5MHxSBGqh5L7s2HWPEIvLAHCx9bW+nGS5EA1z+NjulHKNEAAAAAAAAADA6zI5vT7nJn8sBLVQejaIsLgMABfT9t1rkjwoRNMOvrQyevRqIQAAAAAAAACAC9Cb/UMjMlATH8/WXbfIsHgMABc3/xeTrNKhYY4e35NW29f/AgAAAAAAAAAX5tzk+zM1PSgENVClt+crMiweA8DFsvWllUl5SIjGKRkeXSMDAAAAAAAAAPAGLMnA8E9koCb+ONt33yjD4jAAXCx9Ew8luUyIhjkx9kLa7XcLAQAAAAAAAAC8IWfH12V29rAQ1EBvUj0uw+IwAFwMz3xzWZIvCtFAgyPLRAAAAAAAAAAA5sCKDAy/LAM18ef5+vNXy7DwDAAXw+yaB1LigW+a02f3ZbZ1mxAAAAAAAAAAwJwYO313Wu3jQlADy9LX86gMC88AcKE9u29JUr4sRAMNDLVFAAAAAAAAAADmTrUqBw99Vwfq8ThWn8tT+y4XYmH1SbDAxmc+meR6IRrm7LmXMzN7lxDAQnj3Wy/Jf/zrjwmxCN654X/KyfEpIehKV1+6It/9b/5AiEXwf/pfv5sd//7vuuLP8sL/4ffytstX+UsFWET3/jf/r3x/+NSv/e8+fud1+b888C8EA1hE/9vfDuVP/rv/2BV/lmc/+8H80Tr/NEL3WH3R0vT2VJlttXNmcuaffn9qtp2Jqdm02u2cPjeTienZTM60cmp8+h9+nZjKibNTOTH+878eHjuXw6cmMjnTEheAC3Py1G257qqz6el5kxgsspWpZr6QZIsUC8cAcCGVUmXHng1JpUXTDAyOxV88sFBv7r09efPq5UIsgh4nPV2st6dytizWT8rLlnTNn+WyNy33HAEssiW95/eFIMuX9jmzARbZJSuXddHPNX25tIv+PPCP+np75vTZPjUxnUOnJjI6di7DJ8YzeGI8B46dzcDRMxn4L78aCQLwK5VyWQYPP5frrv6wGCy6Kg/n689vy1c+eEaMBfpcKsEC2t7/B6mq3xCiYc5N/jRT0+uEAAAAAAAA4NVcsmJpLlmxNDdffcmr/jeHx87lx4fH8veHxvL3/+XXHx0ay0+PnM70bFtEgCY7duJdWXvVuVTVRWKwyNZkSc9fJdkqxcIwAFxIVfsJl8A10CtDw0luEAIAAAAAAIA34sqLL8qVF1+Uf/HOK3/u91vtkgPHzub7wyfzrf3H8vLwyXx/+FR+MHwq7VKEA2iGq3Lo2H/M1W++VwoWX/V4tu/+Rh57/zkt5p8B4EJ5evdvp129T4iGmZo+mMnJ9UIAAAAAAAAwX3p7qrz9ilV5+xWr8rHb1/7T749NTOfbA8fz4itHs2//0bz4yrEMHPVtfABd6/CRt+eqN8+msgdi0b0lpfqzJP+dFPPPC36htHo2p/J/1zTO/qGfJlkrBAAAAAAAAAvt4hVL8+F3X5UPv/uqf/q9Y2cm88JPj2bPT47kP//ocF746dGcm54VC6AblLI2R4/951xx+b8Qg0VX5Yk8u+//mr9834wY88sAcCFs27s+VfmXQjTM7MyRjE+sEwIAAAAAAIC6uHzV8nzktmvzkduuTZLMtNr51v5j2fX3o/lPPzyc//TDQzk1MS0UQKcaGr0ib768nSo9YrDI1ubs9B8n+R+lmF8GgAuhKl8ToYH2D/9dkn8lBAAAAAAAAHW1pLcn62+8IutvvCKPf+Q9abVLvnvgeP7D3w3nP7w8kl1/P+qGQIBOUso7c/zU3lx+yXoxWHRVtSlbyv89W6q2GPPHAHC+beu/NWn/jhANM9s6mbGzd6aSAgAAAAAAgM7R21Plzusvz53XX56v/OtbMznTyn/+0eH8+5cG8//+zmD+/vCYSAB1NzSyMpdfUhKrBRbdu3Lx3o8n+Z+lmD8GgPOtam92oDbQweHvpHL7HwAAAAAAAJ1t+ZLe3HfLW3PfLW/N9k+tz09GT+eb3x3MN18azH/8/qFMzbZEAqibVvs9OXV6Xy5Z/T4xWHQlX00p/89UVRFjfhgAzqftu29M8odCNO3gKuM5dfpWIQAAAAAAAOg2N75ldR757d/II7/9G5mYns3/9+WR/E/9+/O/fGsgp8/NCARQFwdHSi5ZrQN1cHt29N+X5H+TYn4YAM6ranOSXh0aZvBQf4rb/wAAAAAAAOhuK5b25WO3r83Hbl+byZkP5v/zt8P5n/cN5H/ZN5BTE9MCASymmdm7cnbipbxphQuMqIGyOQaA86ZHgnmy7YVrk3xKiKadV2Uyx068UwgAAAAAAACaZPmS3vzrO9bmf3jwX+bwv/tU/tfHfyt/+sF35E3Ll4gDsFgGhsZFoCY+lKf2flCG+WEAOG9aG5Is1aFhRg7vSclbhQAAAAAAAKCpli3pzcduX5v/2199KCPf+GT+x7+6N//Ve69Jb08lDsBCmpq+J+MTPxCCWuhpPyHCPKWVYB5s3XVFqjwgRMOUzOTIyeuFAAAAAAAAgH+wavmSfPqDN+bfb/yvcvBv/jh/8+l78p5r1wgDsDCqDIwclYGaPI4fzY49d+gw9wwA50Nf75eSrBCiYY4c3ZN2+21CAAAAAAAAwC+7+tIVeeS3fyMv/bd/kP/8tY/lsx+6yVcEA8y3yckP5NzUfiGoiY0SzD0DwLn2f953cUo+J0TDlJQcOvpmIQAAAAAAAOC1VVXywXdemf/+L/5lRr7xyTz72Q/m1rVuBQSYJ70ZGDogA7VQcn+efv6dQswtA8C5tnTm4aRcIkTDHD+1J632zUIAAAAAAADA+Vu1fEke/Ffvynf/2z/Ivv/jx/Pgv3pXLlraJwzAXBo/d0+mZ4aEoAZ60+pzC+AcMwCcS8/uW5HkESEaaGjkTSIAAAAAAADAhbvz+svz7Gc/mP07/k3+939wR968erkoAHOhyrIMDP+9ENTjeSyfzlO7rhNi7hgAzqWz0w8m8TWw/3/27jvesruu9/977VOn93qmpZGEkD7JTCYIBlGxCypevdd2vRJ+l0uZVIplVCA9AREF7kVQrqKIEaUoUmJJZlImlfQ2yWRqpveZU/b6/aFcKSGZduasvdfz+XjkQZI5Z++1Xuu799lhPvNddbN9x10Zap4hBAAAAAAAABy5GRNGZdkbzslzH/yF/Nmbvz+nzZkkCsCR2rV7UQYHNwtBBXSl0bhEhqPHAODR8tGVXSmKpULU0LPrvY4AAAAAAADgKOvp6sgvvfLEfOOqn8nfXfKDOe94e7EAHIExeXbdAzJQEW/KtXfOlOHoMLh0tOwd+JUk84SomV27H8zg4LlCAAAAAAAAwPAoiuQnz5mfO3/vp/KVd/5IFp84XRSAw7Fj59kZau4QggroTVfzbTIcHQYAj4bPfKYjZa4QooaeWbtLBAAAAAAAADg2XvuKvqxY9pP58pU/kvNPsCMgwCEpMylrNtwtBNVYj+VbctMtE4U4cgYAj4a1c96Y5CQhambvvsfSP7BICAAAAAAAADi2fuj0vtzxu/++I+Ar5kwSBOBgbd7yijSH9ghBBYxPs/ctMhw5A4BHqiyLlMXlQtTQM2uf9xoCAAAAAACAkfPaV/Tlnve9Pn/8axdm1sTRggC8pGJ61j1/pw5UYzlmaT58y1ghjozhpSN10+0/nuRsIWpm/4Fns2//BUIAAAAAAADAyOrqaOTNP3BqnrzxjVn2hnPS09khCsCL2bj1xJRlvxBUwJQcGPXrMhwZA4BH7koJamjVmlVJOoUAAAAAAACAahjd3ZnfecM5efCan8mPnz1PEIDvqZybjVtW6EBF1uNlWfZQtw6HzwDgkbjpjtckuVCImhkYWJe9+xYLAQAAAAAAANVz4ozx+fylP5TPX/pDWTBtnCAAL2TdhjlJOSQEFTAnE3b+sgyHzwDgkSib7xKhhlatfTRJrxAAAAAAAABQXT9+9rw8dM3P5MqfODMdjUIQgG9V5oRs3n67EFTEO7PsFnfiPEwGAA/XB247L8lrhaiZwcHN2bX7fCEAAAAAAACg+kZ3d+bqnz8vK3//p7PwuKmCAHyrNeunpEwpBCOuzAkZP+pnhTg8BgAP11DHu0WooWfX3p9krBAAAAAAAADQOs6aPyUrlv1kfu9nz01Xh98mB0iSDDVPyfYddwpBNZTvSlnasvcw+GRzOG5acWqK8ieFqJlmc2e27zpbCAAAAAAAAGg9nR2N/NZPn5273/vTOXPeZEEAkmT1OrddpSrOyI0rfkyGQ2cA8HA08x7t6vhDb/1dSfyXAAAAAAAAALSw0+dOzu2/+1O58ifOTKOw0RBQc4ND52bHrvuEoBKK4jdFOHSG2A7VTXcdnyI/L0TNDJV7s3X7aUIAAAAAAABA6+vt6sjVP39evnzl6zJjwihBgHpbvW6/CFTEotxw+0UyHBoDgIds6Ioktj+tm3Ubbk9ZzhQCAAAAAAAA2sdrX9GXb1z1M3ndGXPEAOqrf2BRdu99SAgqoVG+S4RDTCbBIbj2zpkpy18RombKciCbtr5MCAAAAAAAAGg/08b35kuXvy4f/KUL0tXht9CBWiry7NptMlAJZX4wN912gRAHz6eXQ9E5dFmSXiFqZsOm5SlLf+QHAAAAAAAA2lRRJG/74dPy5St/JFPH+S1hoIb2H7gg+/Y/IQSVUDYuF+HgGQA8WDcun5zkTULU7Q0lQ9m4ebYQAAAAAAAA0P4uevms3Pu+1+e846eJAdRNR1atWScDFfHTue62V8hwcAwAHnyqtycZp0PNbNqyIkPNk4QAAAAAAACAepgzeUz+9bd+PL/6qpeJAdTLvv1L0t//jBBUQJGOxpUyHBwDgAfjuvvHJOVbhKidMms3TJIBAAAAAAAA6qW3qyOfeNOrcs1/OT+NohAEqIuuPL12lQxUxC/kxuUnyvDSDAAejM69b0kyRYia2br9jjTL04QAAAAAAACAerrix8/IX7/tBzK6u1MMoB727FmUwcENQlABHUlxqQwvzQDgS/mDL/UkebsQNfTc+l4RAAAAAAAAoN7ecN6CfP09P5oZE0aJAdTB6Dyz9iEZqIhfyzW3zpbhxRkAfCmDk389ZSykutm5e2UGh84SAgAAAAAAAFh0wvQs/52fzMtmThADaH87dp6foeYWIaiAnnR1XCLDizMA+GI+urIrKS8XooaeXTMkAgAAAAAAAPBNx08flxXLfjKLTpguBtDminFZvf4+HaiIN+f6lVNl+N4MAL6YPQO/mGSBEHW77vseTP/g+UIAAAAAAAAA32ry2J589V0/kte+ok8MoL1t235Wms3dQlABY1IM/C8ZvjcDgN9LWRZ2/6upZ57bkaQQAgAAAAAAAPhOY3u78oVLfyhvOG+BGED7KsspWbPhTiGohCJvzTW3jhPihRkA/F5uvOMNSXGaEDWzb/9T2d+/WAgAAAAAAADge+np6shn3voD+cUlJ4gBtK9NW09NWe4TggqYnK7Gm2V4YQYAv5ei+U4RaujpNWuTdAgBAAAAAAAAvJiORpE/e/P3GwIE2tmsrN98hwxUQ3Fpblw+SofvZgDwhXxg+Q8nxUIhauZA/+rs32/3PwAAAAAAAOCgfHMI8L9eeKIYQHva8PzxKTMoBBUwI2XxqzJ8NwOAL2So8W4RamjVmqeSdAsBAAAAAAAAHKyORpFPvulV+dnzjxMDaD9lOS+btiwXgkoo8s58dGWXEN/OAOB3uuH2xSnKVwlRM4MDz2fP3kVCAAAAAAAAAIeqs6ORv3jLRfnRs+aKAbSfNRtmpExTCCpgXnb3/4IM384A4Hcqyt8SoYZWrX0wyWghAAAAAAAAgMPR1dHIZ9/2A/m+k2eKAbSXsjw5W7bfIQSVUBTvyrLSzNu3EONb3XDHmUl+RIiaGRzalh27zxUCAAAAAAAAOBKjujvz+Ut/KOcsmCoG0F7WrBubpBSCCjglE27/aRn+kwHAb6tRvidJIUTNPLfunhSZIAQAAAAAAABwpCaM7s6XLv/hHDdtnBhA+xhqnp7tO+8Wgkoo85spSzNe/8EA4DfduPzElOUbhKjbG0Jzd7btOFMIAAAAAAAA4GiZMWFUvnT5D2fy2B4xgPaxep0dAKmKs/PBFT8kw78zAPj/FO9O0qFDzaxZf0fK2H8bAAAAAAAAOKpOmT0xn1v6g+np9NvQQJsYGDwvu/feLwSV0CzeJcK/MwCYJDfcOTfJfxWiZspyfzZtO0UIAAAAAAAAYDh838kz86dvfnUKNykE2sUza/aIQEW8Otff/koZDAD+h6HLk3TrUDPrNqxImT4hAAAAAAAAgOHy84uPz2/+1NlCAO3hQP8F2bP3ESGohEbznSIYAEyuu216ivy6pVAzZQby/LbjhAAAAAAAAACG2+/+zLn5mfP89iTQFoo8s26TDFRkOf5Yrr/93LpXMADYUSxNMtoLomae37QizeYCIQAAAAAAAIDhVhTJJy5+VU6bM0kMoPXt339h9h1YJQSV0CivqH2CWp/91SsnJI03eyXUTJlm1m+aJgQAAAAAAABwrIzr7crN73htJo7uFgNodR15du0zMlARP5sP3HpynQPUewCwe+CtSTnR66BmNm9bkaHmqUIAAAAAAAAAx9LLZk7IJy5+dYpCC6DF7d67JP0Da4SgAhoZ6ryi3gHq6qMrRyd5m9dADa1dP1YEAAAAAAAAYCT89Lnz87YfeoUQQGsr0pNn1j4uBNVYj+Uv5frb5tf19Os7ALi7/01J3Aa2brbvuCtDzTOFAAAAAAAAAEbKdb94fi44aboQQGvbtXtRBgc3C0EFdKXRuKSuJ1/PAcCPruxKUSy19mvo2Q020wYAAAAAAABGVFdHI3/5v16TyWN7xABa2Zg8u/5+GaiIN+WmlbPqeOL1HADcPfCrSeZZ9zWza883MjiwUAgAAAAAAABgpM2bMjZ/9KsXCgG0th07zslQc4cQVEBvMvjWOp54/QYAP/OZjhS53JqvoWfW7BYBAAAAAAAAqIqfX3x8fnHJCUIAravMpKxZv1IIqrEey7fkplsm1u206zcAuHbOG5OcZMXXzN59j6V/YJEQAAAAAAAAQJX80a9emHlTxgoBtK7NW09Pc2iPEFTA+DR731K3k67XAGBZFikLu//V0TNrn09db3kNAAAAAAAAVNaE0d35kze9KkWhBdCqiulZ9/ydOlCN5Zil+fAttZqsr9dA1E23/3iSs630mtnf/3T27b9ACAAAAAAAAKCKfuC02XnzD5wqBNC6Nm49MWXZLwQVMCUHRv16nU64bjuivdMar6GnV69O0ikEAAAAAAAAUFXv+7mFmTa+VwigRZVzs3HzCh2oyHq8LMse6q7L2dZnAPCmO16TZIkFXjMDA+uyb/9iIQAAAAAAAIAqmzSmJ1e98TwhgNa1buOcpBwSggqYkwk7f7kuJ1ufAcCy+S5ru4ZWrXk0iT8mAwAAAAAAAFTef3/1ybngpOlCAK2pzAnZst0ugFTFO7PsllrcMbQeA4AfuO28JK+1rmtmcHBzdu3xR2QAAAAAAACAllAUyR/+ypJ0NAoxgNa0esOkJKUQjLgyJ2T8qJ+tw6nWYwCwWbzHqq6hZ9fen2ScEAAAAAAAAECrOGfB1PzyK08SAmhNzaHTsm3HnUJQDeW7UpZtP1Xf/gOAN604NSl+woKu2w+U5s5s33W2EAAAAAAAAECree/PLcyYnk4hgNa0ep03MKrijNx0+4+3+0m2/wuumfekqMlOh3zrD5O7kvyAEAAAUB17+wezt39QiJrr6mikq8N/po+Eff2D7r1ChpoHtwoGh5res0mSjO72ezYj4cDAUIZK79p1t3/A+zBH/l7i5/mh6Wg0Mn5UlxBUwuxJo7P0R07Pez93rxhA6xkcOjfbd9+biWNt3EQVvCfJ59v5BNv7/7256a7jUw7+vHVcM0Pl3mzdcZoQAABQLae/829EIO/8iTNz1c+fJ8QIOO3Kv8mqTbuE4KB89s5V+eydq4Qgu/7Pr2Rsr0GIY+2NH/p6/v6eZ4UAjsinbnsyv/F//k2IwzSutyudHY10dzb+3y5sE0f3pCiSUd2dmTCqK1PG9mby2J5MGduTyWN70jdpTGZPGp2+SWMyc+KoNIpCSI7IFT9+Rj729Ufz/M59YgCt57m1BzLxZB2ogkW54faLcuniW9r1BNv8j28OXZE67HLIt1u34faU5WuEAAAAAAAA4HDs2j/wQv/2oL+/s6ORWRNH5cQZ43PC9PE5ccb4nDhzfE6ZNTEnz5qQTjujcxDG9Xblt15/dt76p8vFAFpP/8Ci7N77UMaOtoETI69RviuJAcCWc+2dM1MO/YoVXDNlOZBNW18mBAAAAAAAACNlcKiZ57bsyXNb9uSWh9d/2691dzZy2pxJecWcSTlz3pQsOmFazj1uakZ129eE7/Yb339yrv3C/Xluyx4xgFZT5Nm123LaSUow8sr8YG667YIsvXBFO55e+36K7Bq6PGV6reCaWb/5tpTl9wsBAAAAAABAFfUPNnPvM1ty7zNb8qk8mSTp6mjkzHmTs/jE6fn+l8/K9586O1PG9ohFero68q6fOCv/85O3iQG0nv0HLsi+/U9kVK8pQEZes+OKJK9vx1Nrz72lb1w+OWXeZOXWTJmhPL+pTwgAAAAAAABaycBQMytXbc4ffuXh/OwHv5bp/9//zbm/+blc/uk7csvD6zM41BSpxn79+0/OvCljhQBaUUdWrV0rA5VQlD+V6257RTueWnsOAKbx9iQ+AdXN5i3LM9Q0NQ4AAAAAAEBLa5Zl7nlmc67/4jfymvd/MTPe8uf5pT/+53z2zlXZ2z8oUM10dzbynp86SwigNe3bd2H6+58Rggoo0tG4sh1PrP0GAK+7f0xSvsWarZ0yazZMlgEAAAAAAIB2s3X3gfzf257Mz/3B1zL1zf83b/zQ1/KFe1dnwM6AtfFrr35Z5k4ZIwTQirqyau3TMlARv5Abl5/YbifVfgOAnXvfkmSK9VozW7bfkWZ5mhAAAAAAAAC0s339g/nrO1blJ274p8x/+1/mtz57d57bskeYNtfV0chbf8hvhwItaveexRkc3CAEFdCRFJe220m11wDgslt6k7zdWq2hNet7RQAAAAAAAKBO1m/fm/d+7t4ct/Qv8/qbvpKvPbROlDb2potOyYTR3UIArWh0nln7kAxUxK/lxuV97XRC7TUAOKHn11NmtnVaMzt3r8zg0FlCAAAAAAAAUEdDzTKfu/vZvPaqL+Xs9/xtPnXrkxlqlsK0mQmju3Pxa04RAmhNO3aen6HmFiGogJ6kWNpOJ9Q+A4AfXdmVsrjMGq2hZ9cMiQAAAAAAAADJfc9uyS9/5J9z5rtvzt+ufEaQNvO2Hz4t3Z0NIYAWVIzL6vX36UBFvDnXr5zaLifTPp8M9gz8YpIF1mfN7Nn3YPoHzxcCAAAAAAAA/tNDa7blDR/4ahb9zt/lnx9ZL0ib6Js0Jm847zghgNa0dduZKZu7haACxqQY+F/tcjLtMQBYlkVSXm5t1tDTa7YnKYQAAAAAAACA73bnU5ty0fu+mJ/7g69l7bY9grSB//naU0UAWtXUPLfhThmohCJvzTW3jmuHU2mPAcAb73hDUpxmZdbM/gNPpv/ABUIAAAAAAADAi/vsnavyskv/Or978z3pH2wK0sK+7+SZOWPeZCGA1rRp6ykpy31CUAGT09V4czucSHsMABbNd1qTNfT0c2uTdAgBAAAAAAAAL21v/2CW3XxPzvvtz+WB1VsFaWFvfo1dAIGWNTsbNt0uA9VQXJobl49q9bNo/QHAG5e/LikWWpA1c6B/dfbtt/sfAAAAAAAAHKIHVm/N4mV/nz/48kMpSz1a0X975YkZ29slBNCa1m86PmUGhKACZiSNX2v1k2j9AcCy8S5rsYZWrXkqSbcQAAAAAAAAcOj29Q/m7Z9akR+/4cvZuvuAIC1mXG9Xfvb844QAWlNZzs+mLSuEoCIL8sp8dGVLT9W39gDgDbcvTlG+ykKsmYHBjdmzd5EQAAAAAAAAcGS+dN9zOes9N+fOpzaJ0WJ+5ftOEgFoXWs2zEiZphBUwLzs7v+FVj6B1h4ALMrfsgZr6Nk1DyYZLQQAAAAAAAAcuee27Mmr3/uF/OWKp8RoIa8+ZVaOmzZOCKA1leXJ2bL9diGohKJ4V5aVLTtH17oDgDfccWaSH7ECa2ZwaGu2714oBAAAAAAAABw9+weG8ot/dEt+9+Z7xGgRRWEXQKDFrVk3LkkpBBVwSibc/tOtevCtOwDYKN+TpLD+aua5dfemyAQhAAAAAAAA4Ogqy2TZzffkf/3p8jRL8xit4L9deKIIQOsaap6e7TtWCkE1PggVv5WybMlZtNYcALxx+YkpyzdYeXV7oTV3Z9uOM4UAAAAAAACA4fPhrzyc//G//80QYAs4Ycb4nLNgqhBA61q9XgMqojwrH1zxQ6145C26A2Dx7iQdFl7NrFl/R8r49AoAAAAAAADD7BP/+nj+6x/9cwaHmmJU3M8tOk4EoHUNDJ6X3XvvF4JKaBbvasXDbr0BwBvunJvkv1pxNVOW+7Np2ylCAAAAAAAAwLHxlyueylv+dLkQFfdz5xsABFrcM2t2i0BFvDrX3/7KVjvo1hsALIauSNJtvdXM+k3LU6ZPCAAAAAAAADh2Pvb1R/O7N98jRIW5DTDQ8g70L8mevY8IQSU0ypbbBbC1BgCvu216kl+30mqmzEA2bj5eCAAAAAAAADj2lt18T/7PPz8mRIW9fuF8EYBWVuSZdZtkoCJ+NNfffm4rHXBrDQB2FEuTjLLOaub5TSvSbC4QAgAAAAAAAEbG//zEbfnXRzcIUVE/dtY8EYDWtn//kuw/sEoIKqFRXtFSh9syR3r1yglJ481WWM2UaWb9pmlCAAAAAAAAwMgZGGrmjR/6WtZu2yNGBZ01f0rmTB4jBNDKOvPM2mdkoCJ+Nh+49eRWOdjWGQDsHnhrUk60vmpm87YVGWqeKgQAAAAAAACMrI079uW//OEtGWqWYlRMUSQ/cuZcIYDWtnvvkvQPrBGCCmhkqPOK1jnYVvDRlaOTvM3aqqE168eKAAAAAAAAANVw62MbctXf3ydEBf3YWQYAgRZXpCfPrH1MCKqxHstfyvW3zW+FQ22NAcA9AxcncRvYutm+4840m2cKAQAAAAAAANXxe397b+5etVmIinnNabPT2dEQAmhtu3YvzuDg80JQAV0pGpe2woFW/6f/R1d2JXmHNVVDz27w6RQAAAAAAAAqZmComV/56L+kf7ApRoWM6+3KwuOmCgG0ujF5dv03ZKASivxGblo5q+qHWf0Bq90Dv5pknhVVM7v2fCODAwuFAAAAAAAAgOp5aM223PQP5jOq5vtPnSUC0Pp27DgnQ80dQlABvcngW6t+kNUeAPzMZzpS5HJrqYaeWbNbBAAAAAAAAKiu3/vbe/PMpl1CVMhFL58tAtD6ykzKmvUrhaAa67F8S266ZWKVD7HaA4Br57wxyUlWUs3s2/9o+gcWCQEAAAAAAADVtbd/MFf85Z1CVMiFL5uR7s6GEEDr27z19JSlzaOogvFp9r6lygdY3Z/8ZVmkLOz+V0er1mxKK9yeGgAAAAAAAGrus3euyspVm4WoiDE9nTl7/lQhgDZQTM+6jabMqchyzNJ8+JaxVT286g5Z3Xj7TyQ52wqqmf39T2ff/guEAAAAAAAAgOory+Q9n7lLiApZdOI0EYD2sGHLSSnLfiGogCnZ3/M/qnpw1R0ALHKltVNDT69enaRTCAAAAAAAAGgN//SNtfm3xzYIURGLTpguAtAmyrnZuHmFDlRCUVyaZQ91V/HQqjkAeNMdr0myxMqpmYGBddm3f7EQAAAAAAAA0Fqu/cIDIlTEohPsAAi0kXUb5yTloBBUwJxM2PnLVTywag4Als13WTM1tOq5R5L0CgEAAAAAAACt5Yv3rc5Da7YJUQEnzBif6eNHCQG0hzInZPPW24WgIt6ZZbdU7s6m1RsAvHH5+Ulea73UzMDgpuzae74QAAAAAAAA0HrKMvnAPz4oREWcvWCKCED7eG7DpCSlEIz8B56ckPGjfrZqh1XFHQDfbbXU0Oq1DyQZJwQAAAAAAAC0pk+veCq79g8IUQGnz50kAtA+muVp2bbjTiGohvJdKcuiSkdUrQHAm1acmhQ/YaHU7Y26uTPbd50tBAAAAAAAALSuPQcG85nbnxaiAk6fO1kEoL2sXtcpAhVxRm66/cerdEDVGgBs5j2p5q6EDO+b9F1JfAIFAAAAAACAFvfxf3lMhAo4wwAg0G4Gh87N9t33CkFFvKdKB1OdYbub7jo+RX7e+qiZZrknW3ecJgQAAAAAAAC0vhVPPJ+nNu4UYoSdOntiujrsvQO0mdVrDohARSzKDbdfVJWDqc5P/HLgyiS266ybdRtuT1nOFAIAAAAAAADaw9+ufFaEEdbT1ZHjp48TAmgvA4OLsmvvA0JQCUX57qocSjUGAK+9c2ZS/LKVUTNlOZCNW18mBAAAAAAAALSPm1euEqECTpwxXgSg3RRZvdY2s1TFa3PTbRdU4UCqMQDYNXR5kl7rombWb74tKecKAQAAAAAAAO3jjic3Zf32vUKMsBNnTBABaD/7D1yQffufEIJKaHZcUYXDGPkBwBuXT06ZN1kRNVNmKM9v6hMCAAAAAAAA2kuzLPP1h9YJMcJOmOEWwEBb6siqNWtloBKK8qdy3W2vGOnDqMAOgI23JxlrRdTMps3LM9Q8SQgAAAAAAABoP18zADji3AIYaFv79l+Y/v5nhKACinQ0rhzpgxjZAcDr7h+TlG+xFmqnzNqNk2UAAAAAAACA9vTVh2zONNKOn24AEGhbXVm19mkZqIhfyI3LTxzJAxjZAcDOvW9JMsU6qJmt229PszxNCAAAAAAAAGhPz23Zk2c27RJiBPVNGi0C0L5271mcwcENQlABHSkal43kAYzcAOCyW3pTlu+wBur4aX/9KBEAAAAAAACgvd359CYRRtDY3q6MH9UlBNCuRueZtQ/JQCWU5a/mxuV9I/X0IzcAOKHn15NilhVQMzt3r8zg0FlCAAAAAAAAQHu7ywDgiJs9aYwIQPvasfP8DDW3CEEF9CTF0pF68pEZAPzoyq6UxWWufQ09u2ZIBAAAAAAAAGh/dz29WYQRNnui2wAD7awYl9Xr7tOBinhzrl85dSSeeGQGAPcM/GKSBa57zezZ92D6B88XAgAAAAAAANrfg89tFWGEzZpkABBoc1u3n5myuVsIKmBMioH/NRJPfOwHAJeVjaS83DWvoafXbE9SCAEAAAAAAADtb8vuA9m8a78QI2jymB4RgHY3NWs23iEDlVDkHbl65YRj/bTHfgBwwh1vSIrTXPGa2X/gyfQfuEAIAAAAAAAAqI9H120XYQRNGtMtAtD+nt9yaspynxBUwIT0DFx8rJ/02A8Als0rXesaenr12iQdQgAAAAAAAEB9PLp+hwgjaJIdAIF6mJ0Nm26XgUooc0luXD7qWD7lsR0AvHH565JioStdMwf6V2ef3f8AAAAAAACgblZv3i3CCDIACNTG+k3Hp8yAEFTAjKTxa8fyCY/tAGDZeJdrXEPPrH0yib2lAQAAAAAAoGbWbN0jwgiaONpv0wI1UZbzs2nLCiGoyIK8Mh9d2XWsnu3YDQDecPviFOWrXOCaGRhcn917FgsBAAAAAAAA9WMAcGSN6u4UAaiPtRunp0xTCCpgXnb3/8KxerJjNwBYlL/t2tbQs2seTjJaCAAAAAAAAKiftdsMAI6k3q4OEYD6aDZPyZbttwtBJRTFu7KsPCazecdmAPCGO85M8jpXtmYGh7Zm++6FQgAAAAAAAEA9bdl9QIQR1NPVEAGolzXrxiUphaACTsm4O15/LJ7o2Py0b5TvSVK4rjXz7Lp7U2SCEAAAAAAAAFBP2/YYABxJPZ12AARqZqh5erbvWCkElVDkN1OWwz4zN/wDgDcuPzFl+QZXtGaazV3ZseNMIQAAAAAAAKC++geb2dc/KMQIcQtgoJZWr9eAiijPygdX/NBwP8sx2AGweHcSnyrq5rn1d6bMVCEAAAAAAACg3rbv7RdhhBSFG/UBNTQweF727LlPCCqhWbxruJ9ieAcAb7hzbpL/6krWTFnuz5ZtpwgBAAAAAAAA7B8YEmGENMtSBKCeVq3dIwIV8epcf/srh/MJhncAsBi6Ikm361gz6zctT5k+IQAAAAAAAICBoaYII8T8H1BbB/qXZM/eR4SgEhrlsO4COHwDgNfdNj3Jr7uCdfsEmYFs3Hy8EAAAAAAAAECSDAwaABwppQlAoL6KPLNukwxUxI/m+tvPHa4HH74BwI5iaZJRrl/NbNy0PM3mAiEAAAAAAACAJOk3ADhijP8BtbZ//5Ls739aCCqhUV4xbA89LI969coJSePNrlztPj02s/756UIAAAAAAAAA39Q/NCTCCLEDIFBznXlmzbMyUBE/m+tvf/lwPPDwDAB2D7w1KSe6bjWzeduKNMtThQAAAAAAAAC+6cCAHQBHSlEUIgD1tnvvkvQPrBGCCmikUV42PA98tH105egkb3PNamjN+rEiAAAAAAAAAN+qf9AOgACMkCI9eWbtY0JQEf8t1982/2g/6NEfANwzcHGSaa5XzWzdeWeazTOFAAAAAAAAAL7VgUE7AI4U+/8BJNm1e3EGBjcKQQV0pWhcerQf9OgOAH50ZVeSd7hWNfTc+oYIAAAAAAAAwHfq6vBbiQCMqDFZvfZBGaiEIr+Rm1bOOpoPeXQ/ae0e+NUk81ypmtm1594MDiwUAgAAAAAAAPhOPZ0GAEdKsyxFAEiSHbvOyVBzhxBUQG8y+Naj+YBH75PWZz7TkSKXu0Y19Mya/SIAAAAAAAAAL6S3u0OEEbKvf0gEgCQpMylrN9wlBNVYj+VbctMtE4/Wwx29AcC1c96Y5CRXqG6fGPc/mv6BRUIAAAAAAAAAL2R0d6cII+TAoAFAgP9n05YzUpa7haACxqfZ+5aj9WBHZwCwLIuUxbtcmxp6+rlNOdq3kgYAAAAAAADaxvTxo0QYIXYABPhWxfSs23inDlRjOWZpPnzL2KPxUEdncOvG238iyemuTM3sH3gq+w9cIAQAAAAAAADwQhpFkSlje4QYIfsHBkUA+FYbtpyUsuwXggqYkv09/+OofN46KodT5ErXpIZWrV6dxH7dAAAAAAAAwAuaMq4nnR1uKDZS9h4wAAjw7cq52bB5uQ5UQlFcmmUPdR/pwxz5J62b7nhNkiWuSM0MDKzL3n12/wMAAAAAAAC+p3lTxoowgrbuOSACwHdav3FuUpqQpgrmZMLOXz7SBzny3dvK5rtdixpa9dwjSX5ACAD4T686ZVZ27rNjOO1p2vhRIgAAAABwyE6aOUGEEbR1twFAgO9S5oRs3nprpk55pRhUwDuz7JZPZtlFhz2UemQDgDcuPz+GwOpnYHBTdu09XwgA+HY3v+O1IgAAAAAAfIuTZowXYQRt2+MPrQO8oOc2TMrUKWWSQgxGVJkTMqHn55J8+nAf4khvAWz3v1q+Ca69P8k4IQAAAAAAAIAX87JZdgAcSdv32gEQ4AU1y9OydfsdQlAJZfGbWVYe9hzf4Q8A3rTi1KT4CVegbm+AzZ3ZtuscIQAAAAAAAICXcvb8KSKMoM27DAACfE/Pre8SgYp4ecbf/mOH+82HPwDYzHty5DsI0mpWr78zyWQhAAAAAAAAgBczrrcrp/ZNFGIErd22RwSA72Vw6Nzs2H2PEFTEew73Gw9vgO+mu45PkZ/XvWaa5Z5s3f4KIQAAAAAAAICXcu5xU9MoCiFG0NqtBgABXtSza/pFoCIW5YbbLzqcbzy8AcBy4MoknbrXzLoNt6csZwoBAAAAAAAAvJTFJ04XYQQNDjWzadd+IQBezMDgouza+4AQVEJRvvtwvu3QBwCvvXNmUvyy4jVTlgfy/NaThAAAAAAAAAAOxmtf0SfCCFq/fV+GmqUQAC+uyOo1O2WgKh+fctNtFxzqNx36AGDX0OVJevWumQ1blqcs5wkBAAAAAAAAvJTero5c+LIZQoygtdvc/hfgoOzvvyD79j8hBJXQ7LjiUL/l0AYAb1w+OWXepHTNlBnKxufnCAEAAAAAAAAcjFeePDO9XR1CjKCnNtrQCuAgdWTVmrUyUAlF+VO57rZXHMq3HOIOgI23JxmrdM1s2rw8Q023/wUAAAAAAAAOyk+fO1+EEfaEAUCAg7dv/4Xp739GCCqgSEfjykP5hoMfALzm1nEpyrdqXDtl1m6cLAMAAAAAAABwMBpFkdcvXCDECHvSACDAoejKqjVPyUBF/EI+ePtBb9Z28AOAnR3/M2Um6VszW3asSLM8TQgAAAAAAADgYCx52YzMnjRaiBH2xIYdIgAcit17L8jA4HohqICONHPpwX7xwQ0ALrulN0X5dm1raM06n8wBAAAAAACAg/ZfFh8vQgXYARDgkI3Os2sfkoFKKMtfzY3L+w7mSw9uAHBCz68nxSxla2bn7rsyOHSWEAAAAAAAAMDB6O3qyC8uOUGIEbZ2255s3X1ACIBDtWPnogw1twhBBfQkxdKD+cKXHgD86MqulMVlmtbQs2uaIgAAAAAAAAAH62fPPy6TxvQIMcIeWL1VBIDDUozL6nX36UBFvDnXr5z6Ul/00gOAewZ+MckCPWtmz74H0z94vhAAAAAAAADAwfof33+yCBXwjee2iQBwuLZuPzNlc7cQVMCYNAbf+lJf9OIDgMvKRlJermUNPf3c9iSFEAAAAAAAAMDBWHjc1Lz61FlCVMADz9kBEOAITM2ajXfIQDWUb8/VKye82Fe8+ADghDvekBSnCVkz+/c/mf7+C4QAAAAAAAAADtblP36GCBXhFsAAR+j5LaemLPcJQQVMSM/AxS/2BS8+AFg2r9Swhp5+bm2SDiEAAAAAAACAg3H89HH5mfOOE6ICdu8fyMNr3QIY4AjNzvpNK2SgEspckhuXj/pev/y9BwBvXP66pFioYM0c6F+dfQfs/gcAAAAAAAActN9+/TnpaBRCVMBdT2/OULMUAuBIbdh0QsoMCEEFzEuoVm4AAH44SURBVEgav/a9fvHFdgB8t3Y19MzaJ5N0CwEAAAAAAAAcjJNnTch/XXKCEBVxx1PPiwBwNJTl/GzaYhdAqrIgr8yyh15wpuuFBwBvuu2CpPg+4WpmYHBddu9ZLAQAAAAAAABwsK7+L+ens6MhREXc8aQBQICjZu3G6SnTFIIKmJfxO3/hhX7hhT+FlY3f0qyGnnnu4SSjhQAAAAAAAAAOxqtPnZWfOme+EBVyx1ObRAA4WprNU7Jlm10AqYp3Zln5XfN+3z0AeMMdZyZ5nV41Mzi0NTv2nCcEAAAAAAAAcDA6Oxr5g1+6IEWhRVU8vmFH1m/fKwTA0bRm/fgkpRBUwCkZd8frv/NffvcAYKN8TxIf0erm2XX3psgEIQAAAAAAAICDsfR1r8gZ8yYLUSG3PLxeBICjbah5erbtWCkElVDkN1OW3zbb9+0DgB+49eSU5c8oVTPN5q7s2HGmEAAAAAAAAMDBOH76uPz2688WomL++REDgADD4jnvr1RFeVY+uOKHvvXffPsAYNnxzrzQroC0+5vUnSkzVQgAAAAAAADgpTSKIn/yG6/K2N4uMSqkLJN/fnidEADDYWDwvOzZc58QVMJQ493f9tns//3dDXfOTZlfVKh2nwL3Z8u2U4QAAAAAAAAADsbSH3lFXn3qLCEq5pF127Nhxz4hAIbLU2v3iEAlFOWrcv3tr/zmP/7nAGAxdEWSboVqZt3G5SnTJwQAAAAAAADwUs5eMCXv/bmFQlTQP9z/nAgAw2mgf0n27n1YCCqhUb7r//1tkuS626Yn+XVlaqbMQDZuOU4IAAAAAAAA4KVMGtOTz77ttent6hCjgr5w72oRAIZXkVXrNstARfxorr/93OSbA4AdxdIko3SpmY2blqcsDQACAAAAAAAAL6ookj9506ty/PRxYlTQjr39ue3xjUIADLf9+5ekv/8JIaiERnlF8v9uAVz8N0Vq6PktPp0DAAAAAAAAL+m9P7cwP33ufCEq6svfWJOBoaYQAMOvM2s2rpWBinh9rrt/zH8MAJb/V48amjLxgAgAAAAAAADAi/n17z857/7Js4SosC/e+5wIAMdGmelT5slARfxtLj9zz78PAA6VNyXZp0nNzJqxMEXsAw0AAAAAAAC8oB86vS9//GsXClFh/YPN/P09zwoBcCz0dN2TsaOPF4JKaBbXJt+8BfDlFz6f5OOq1Eyj6MrUyU8KAQAAAAAAAHynJSfNyN+8/bXp6miIUWH/9I012b63XwiAY2F+31gRqIgv5bLFdyffHABMkrLj2iQ+FdTNnFnnJsVWIQAAAAAAAIBvWnzi9Pzjla/L2N4uMSrur+9YJQLAsdDVeX/GjT1ZCCqhWVz1zb/9zwHAS89/LkX+Qp2aaRS9mTz+YSEAAAAAAACA5D+G/654XcYZ/qs8t/8FOIbmzeoQgUooi3/NZYtv/eY/fvtezcXQ1UmaKtXM3NlnpsxuIQAAAAAAAKDefviMOfnqu340E0Z3i9ECvvyA2/8CHBMdHY9m4oRXCEE11mPz/d/6j98+APiOVz6WovgblWqms2NcJoy7XwgAAAAAAACorzectyB/t/QHM6anU4wW8af/9oQIAMfC3Fn7RKAaivvy9gv+6Vv/TeO7vqZZvC9JKVbNLOh7eRJvVgAAAAAAAFAzRZFc+RNn5q/f9gPp6XJ3w1axdfeBfOHe1UIADP8PylWZMuEsIaiEMu9NUXzbbN93DwBeuuj+JP+oVs10dU7KmFH3CgEAAAAAAAD1MWVsT750+ety9c+fl0ZRCNJC/mLFUzkwOCQEwHDrm77538flYcQ9ml2L/vY7/2XjBb+0aP6+XjV03JzjkwwKAQAAAAAAAO3v1afOyt3vfX1ed8YcMVrQn/7r4yIADLdG8VymTz1XCCri6iwrmt+1TF/wS5deuCIp/02zmunpmZlRvSuFAAAAAAAAgPbV09mR635hUb7+7h/N/KljBWlBD6zempWrNgsBMNxmTlubomgIQQWszs7xn36hX3ixBfp+3WrouDl9SZpCAAAAAAAAQPtZctKMrHzvT+eyHzvdLX9b2B999WERAIZbkU2ZOc3uf1RlQV6TZaf1v9CvfO8BwEuW/GNS2g2ubkb1zk1P9z1CAAAAAAAAQPuYNKYnH/ylC/Jvv/3jecWcSYK0sF37B/IXy58SAmC4TZv8eIqiSwgqYGPS/MT3+sXOF/3WonFNyvKvNayZBXMm57GnyyT+yA8AAAAAAAC0sO7ORi5+zan5nTeckyljewRpA5/818eza/+AEADDqcj29M08Rwgqsh5vzNIl+77XL7/4Pap3LLo5KR9SsWbGjj4+XZ33CwEAAAAAAACtqSiSn1t0XB665mfzB798geG/NvLRrz8qAsBwmzTpoTQao4SgAnbkQNdHX+wLXnwAcFnRTIrrdKyheX29IgAAAAAAAEBr6exo5BeXnJD73veGfOatP5ATZ4wXpY384wNr8tCabUIADK+9mTfzTBmohuKDeefCHS/6+e8lH2NM119kz8CyJAsErZGJ405JZ8eDGRx6hRgAAAAAAABQbWN6OvPL33dSLvvRM3L89HGCtKnrvvCACADDbeK4e9PRcaEQVMCeNDs/9FJf9NIDgBcvHMhNy69PWfyhpjUzZ+ZgnlmrAwAAAAAAAFTUSTMn5Ndf/bL8xkWnZLLb/La1las25+sPrxMCYHjtz7zZp8pARXwkly3c/FJf1HlQD7XjwMczvuc9STFL1xqZMumsrN7wWJpDJ4sBAAAAAAAA1TBxdHd+5vzj8ksXnphXnTIrRaFJHdj9D+AYGDf27nR12f2PKjiQlDcdzBce3ADgsov254YVH0yRq7WtmdnTd2XNeh0AAAAAAABgBI3r7crrzpyTn198fH7srHnp7eoQpUae2rgzf3PXKiEAhtdA5s8+QQYqoSg+maUXHNStWzsP+kEHh/4o3R1XpswkhWtk+pRzs3bDsynL+WIAAAAAAADAsTNvytj8yJlz8tMLF+SiU2elx9Bfbb3v7+7LULMUAmA4jRq1Mj3dFwhBBQylkRsO9osPfgDwylfuyo23fygpf1vjGilSZOa0DVn/vAFAAAAAAAAAGEYzJ4zKq0+dlde8fHZec9rsnDhjvCjkqY0786nbnhQCYHiVmT+7TwYq4tN5++InDvaLOw/tsZsfTIpLkozVuUZmTVuY9ZvWJeVsMQAAAAAAAODIjenpzOlzJ2fRCdOz6MRpueDE6VkwbZwwfJff/9y9GRxqCgEwnHp6VmbMqPOEoALKDDWvOZRvOLQBwEuWbM1NKz6WMpdoXSNF0ZEZk57Jxq0GAAEAAAAAAOAQTBzdnRNnjM9JMyfklNkTc/rcSTlj7uQcN31cGkUhEC/qiQ078ufLnxICYLgt6JssApVQFn+Xyy988FC+pfOQn2Sg47p0Dv3PJL2K10jfzHOzcdvmpJwqBgAAAAAAAHU3urszU8b1ZMrY3kwd15tZE0dl9qQxmT1xdPomj86cyWNywvTxmTrOb6ty+H73b+3+BzDsurvuzdjRZwtBJTSGrj3Ubzn0AcArzt+QG5f/WVK8SfEaKRo9mTpxZTZvMwAIAAAAAABQca982Yx89L+/UohD0NnRyLjeriTJ+FFd6WgU6e3qyKjuzjSKIhNGdydJxvZ2Zvyo7vR2dYjGsLp71eZ82u5/AMNv7uxuEaiIr2bphSsO+XPsYT1V0XVNysH/ftjfT2uaM+vsbN62I8kEMQAAAAAAAKrrlNkTc8rsiUJAC7vyL+9MsyyFABhOHR2PZOK404SgEsri/YfzbY3DerKl5z2dMn+let3e9BqjM3H8N4QAAAAAAAAAGD5fuHd1vvbQOiEAhtvcWQMiUBF35NLFtxzONzYO+ykbeV+SpvY1M3/2GUn2CgEAAAAAAABw9A0ONfPOv7pLCIDh1tF4IpMnniEEFfG+w/3Gwx8AXHrBI0n5ee1rprNzfMaNvVcIAAAAAAAAgKPvj776SB5as00IgOE2e+bOFDJQCQ9n5+IvHu43N47wyd+vfw0tmH1ykn4hAAAAAAAAAI6e53fuy+/8zd1CAAy3RrE60yafIwSVUJTvzbLisO/Ee2QDgJcsuTPJ11yFmununpoxo3zqBAAAAAAAADiKrvj0ndm+114sAMNu9oz1Kez/RwUUeSo7Dvz1kTxE48gPomEXwDpaMGdBkiEhAAAAAAAAAI7c8ic25s9ufUIIgOFWZH2mTzlXCCri6iy7aPBIHuDIBwCXLvp6kuWuRc309sxKb49dAAEAAAAAAACOUP9gM//fJ25LWWoBMOxmTFuVougUggpYkx3j/+xIH6RxVA6lzDWuRw0dN3daEh9BAQAAAAAAAI7A7/zN3Xlg9VYhAIZdsTmzpi3UgUooyxuy7LT+I32YozMAeMnizyf5hqtSM6N7j0tP1z1CAAAAAAAAAByeFU88n+u++IAQAMfC1ImPpdHoFoIK2JLeA//naDzQ0RkALIoyRXmV61JD8/vGiwAAAAAAAABw6PYcGMyvfPRfMtR04zWAYVcUOzNn5llCUAllbspbLtp9NB6qcdQOqm/NZ5I84erUzLixJ6Wr0+6PAAAAAAAAAIfo0j+/PU9s2CEEwLEwafwD6egYIwQVsDON/R8+Wg929AYA3/jGoZS5zvWpobl9GgAAAAAAAAAcgs/euSof/fqjQgAcC2W5L3P6TheCSiiKD2fpRduP1sM1jurBje36ZJLVrlLNTBp3ejo6HhECAAAAAAAA4KWt3rI7F//JrUIAHCsTxt2TrsYEIaiA/Unnh47mAx7dAcCLFw4k+YDrVENzZu4TAQAAAAAAAODFDQw181/+8OvZuvuAGADH6K0382efJAOVUOZ/Z+nC9UfzIRtH/SDHdH00ySZXq2amTDonjeIpIQAAAAAAAAC+tys+fWdWPPG8EADHypjRK9PdPV0IKmAgZfOGo/2gR38A8OKFe5P8getVM0WS2TO2CAEAAAAAAADwwv5i+VP5wD8+KATAsTOUBX3zZKAi/m8uu/DZo/2gjWE51P6uDyXFdtesZqZPXZiiWC0EAAAAAAAAwLe7f/XW/Mb/+TchAI6l3t6V6e3pE4IKaKZZXD8cDzw8A4DvXLgjaX7EdauZIo3MmLJWCAAAAAAAAID/tHX3gbzhA1/J3v5BMQCOnTLz58yQgYr4bC5b/PBwPHBj2A55qLwpyT7XrmZmzViYotgoBAAAAAAAAEAyMNTMGz/0tTz9/C4xAI6lnu67M7Z3gRBUQrO4drgeevgGAC+/8PkkH3f1aqZRdGXKxKeEAAAAAAAAAEje/qkV+dpD64QAONbm940TgYr4Ui5bfPdwPXjnsB562XFtiqE3Jel2HWtk7uxzsnn71qScLAYAdfKJf308K5/eLARt67def3ZmThglBAAAAAAcpKs/f3/++KuPCAFwrHV13p9xY84UgkpoFlcN58MP7wDgpec/lxtX/HmSX3Mla6RR9Gby+JXZuuOVYgBQJ1/5xtp8eoWNcGlfb/2hlxsABAAAAICD9Nk7V+U9n1kpBMBImDe7QwQq4l9y2eJbh/MJGsN/DuX7kwy5ljUzd/aZKbNbCAAAAAAAAKBubn1sQ375I/+SZlmKAXCsdTQeycTxrxCCSmiUVw37Uwz7SVyy5MkUxc2uZs10dozLxLH3CQEAAAAAAADUyQOrt+Ynb/xK9vUPigEwEubMPCAC1VDcl7df8E/D/SyNY3IuzeJ9SfzRhrqZP+e0JPuEAAAAAAAAAOrgyY0788PX/EO27TF7AjAiimJVpk46Uwgqocx7UxTDPjN3bAYAL110f5J/dFVrpqtzUsaNuVcIAAAAAAAAoN2t3bYnP3j1P2TDDnukAIyYvhmbk6IQggp4NLsW/e2xeKLGMTulsvg917WGFvQdn8Te1gAAAAAAAEDbWrdtb17zvi/lmU27xAAYKY3iuUyfcq4QVEJZXpVlRfOYLP1jdlKXLr49ZfGvrm7NdHfPzKjelUIAAAAAAAAA7Wjjjn35wau/lMc37BADYCRNn7Y2RdEQggpYnbHdnz5WT3ZsF33RvMr1raHj5vQlaQoBAAAAAAAAtJONO/blNe//Yh5eu10MgJFUZFNmT7P7H1VZkNfk4oUDx+rZju0A4CVL/jEp7QZXN6N656an524hAAAAAAAAgHaxbtvefP/7DP8BVMK0yU+kKLqEoAI2Js1PHMsnPPbbXhaNa1znGlrQNyVJKQQAAAAAAADQ6lZt2pVXv/cLeXTddjEARlqR7embebYQVGQ93phLluw7lk957AcAdyy6OSkfcrVrZuzo49PVdb8QAAAAAAAAQCt7eO32fN/vfSFPbtwpBkAVTJr0UBqNUUJQATtyoOujx/pJj/0A4LKimRTXud41NH92rwgAAAAAAABAq7rr6U151e9/Pmu37REDoBp2Z96MM2WgEsp8IO9cuONYP21jRE52TNdfJHnGVa+ZCeNOSWfHg0IAAAAAAAAArebv73k2F73vi9my+4AYAFUxcfx96egcKwQVsCdl1x+OxBOPzADgxQsHUpTXu+41NHfWkAgAAAAAAABAK/nY1x/Nz3zwa9lzYFAMgOrYn3mzXi4DFfGRXLZw80g8cWPETnnHgY8n5XrXvmYmTzwzjY7HhAAAAAAAAACqriyT3735nlz8J7dmcKgpCECVjBtzT7q6JgtBBRxIyptG6slHbgBw2UX7UxQfcP1raPb0XSIAAAAAAAAAVbZr/0B++qavZNnN94gBUD0Dmd93ggxUQlF8MpcsWTtST98Y0ZMfHP3hJFusgpqZPuXcFMWzQgAAAAAAAABV9MSGHblg2d/n7+/x25oAlTS69+70dM8QggoYStm8fiQPYGQHAC8/c09SfNg6qJkiRWZNc/tnAAAAAAAAoHK+dN9zOf+3/y4PrdkmBkA1NTOvb7YMVMSnc8mSJ0fyABoVeE1+MMlua6FmZk47L43GWiEAAAAAAACAKmiWZZbdfE9+4oZ/yva9/YIAVFVvz8qMGTVPCCqgzFDzmpE+iJEfALxkydYU+Zj1UDNF0ZFpE+2XDQAAAAAAAIy453fuy49e9+X87s33pFmWggBU2fy+KSJQCWXxd7n8wgdH+jAalYgx0HFdkv1WRc30zTwvKbYIAQAAAAAAAIyUWx5en7Pe/bf58gNrxACouu6uezN29AlCUAmNoWsrcRiViHHF+RuS8s+sipopGl2ZOv5RIQAAAAAAAIBjbWComfd8ZmVee9WXsn77XkEAWsH82d0iUBFfzdILV1ThQBqVSVJ0XZNk0NqomTl9ZyfZIQQAAAAAAABwrDy8dnsuWPb3ef/f3+eWvwCtorPj4Ywfd5oQVEJZvL8qh1KdAcCl5z2dMn9lddRMR2N0Joz/hhAAAAAAAADAcCvL5GNffzTn/dbncveqzYIAtJK5s2wsRlXckUsX31KVg2lUKk0j70vStEZq5ri+M5LYUxsAAAAAAAAYNo9v2JFXvfcLufhPbs3efjMkAC2lo/FEJk08Qwgq4n1VOphqDQAuveCRpPy8NVK3N+mO8Rk39l4hAAAAAAAAgKNtYKiZaz5/f85818259bENggC0or6ZO1PIQCU8kKWLv1ClA+qsYKT3J/kpa6VmFsw+Od94vD9JtxgAAAAAAADA0bDiiefzGx//tzy0ZpsYAK2q0Xgm0yadIwTVUFyVoigr9RKpXKNLltyZ5KsWS810d0/NmFF3CwEAAAAAAAAcqU079+fiP7k1r/y9zxv+A2h1M6duTAr7/zHyijyVnfs+W7XD6qxmrMZVKZuvtWpqZsGcBXnoiaEkHWIAAAAAAAAAh2pwqJk/+ZfH856/XpnNu/YLAtDqiqzPzGnnCkFFXJ1lFw1W7aAalUy1dNHXkyy3Zmqmt2dWenvsAggAAAAAAAAcsi8/sCZnvOvmXPwntxr+A2gXM6Y+k6LoFIIKWJMd4/+sigdW3RdImWtS5O+snZo5bu70PPJkmcTWrQAAAAAAAMBLuuvpTXnXX92Vrz20TgyAtlJszqzpdv+jGsryhiw7rb+Kh9aobLRLFn8+yb1WT82M7l2Q7k7XHQAAAAAAAHhRj2/YkTd+6GtZ9Dt/Z/gPoB1NnfhYGo1uIaiALek98H+qenDVHQAsijJFeZ31U0ML5o4VAQAAAAAAAHghT2zYkV/72L/mtCv/Jn99x6qUpSYAbacodqZv5llCUAllbspbLtpd1cNrVDpe35rPJHnCKqqZcWNels7OB4QAAAAAAAAAvumhNdvyKx/5l7z8yr/JJ//18QwONUUBaFcTxj+Qzo4xQlABO9PY/+EqH2C1BwDf+MahlLELYB3Nm90lAgAAAAAAALD8iY35mQ9+NWe86+b82a1PGPwDaHdluS/z+k4Xgkooig9n6UXbq3yInZWPOLbrk9kz8JtJ5llRNTJp/Knp6Hg0Q0OniAEAAAAAAAD10izLfOm+53L15+/PbY9vFASgTiaMuyddjQuFoAL2J50fqvpBVn8A8OKFA7lxxQeS3GhN1cycmXvz7FodAAAAAAAAoCae37kvn/iXx/NHX30kq7fsFgSgfgYyf/bLZKASyvzvXLJwfdUPs7MlYo7p+mj2DLwryTQrq0amTDonz617Ks3yBDEAAAAAAACgfd29anM+dsuj+dStT2Zf/6AgAHU1ZtRd6e5eIgQVMJCyeUMrHGhrDABevHBvblzxB0l+39qqkSLJzOlbs26jAUAAAAAAAABoMxt37Munbn0yH7vl0TyxYYcgAAxlwZz5MlAJZfGpXHbhs61wqJ0tE7W/60PpHrw0KSdaYTUyc9q5Wf/86pTlPDEAAAAAAACgtfUPNvNP31iTP7v1iXxu5bMZGGqKAsC/6+1Zmd6eRUJQAc10DF7bKgfbOgOA71y4Izcu/0hSvNMaq5EijUyfui4bNxkABAAAAAAAgBZ151Ob8me3PpFPr3gqW3cfEASA71TmuL6ZMlARn807XvlYqxxsZ0ulHSpvSkfx9iSjrLMamT393Dy/eWPKcoYYAAAAAAAA0BoeXrs9f33H0/mL5U/lcbf4BeDF9HTfk9GjzxWCSmgW17bS4bbWAODlFz6fG1d8PMn/stJqpFF0ZerkJ7NpiwFAAAAAAAAAqLBH1m3PX9+xKn91+1N5eO12QQA4OPP7xopARXwply2+u5UOuLPlEpcd16YYelOSbuutRubMPDebtm5NysliAAAAAAAAQHV8c6e/z9zxtKE/AA5dV8f9GTfmTCGohGZxVasdcusNAF56/nO5ccWfJ/k1K65GGkVvJo+/O1t3XCgGAAAAAAAAjJx9/YP550fW5wv3Ppe/u/vZrN22RxQADt+8OR0iUBH/kssW39pqB93Zmq3L9yfFLyfxBlAnc2afmS07dqeIbV8BAAAAAADgGHr6+V356oNr89WH1uYf71+TXfsHRAHgyHV2PJqJ414hBJXQKK9qyZdRS8a+ZMmTuen2m1OWP2fl1UhXx9hMGndbtu+yCyAAAAAAAAAMo+d37sstD6/PLQ+vy1cfWpenNu4UBYCjb87MfSJQDcV9efvif8o7Wu/IO1u2ebN4X4ryZ5MUFmCNzJ398mx/bF+SUWIAAAAAAADA0bFp5/4sf2Jjvv7wunz9oXV5aO22lKUuAAyjong6UyaeJQTVWI/l76coWvLTT+sOAF666P7cuOIfkvyoFVgj3V2TMm7U8uzat0QMAAAAAAAAODxPP78rtz2+Mbc+viG3Pb4xDxv4A+BY65uxJSmOF4IKeDQ7Fn+uVQ++s6XTl8XvpygNANbN/Lkn5sHHB1t+/QIAAAAAAMAxsHrL7qx8enNWrtr0H/+7Odv2HBAGgJHTKJ7L9CnnCkEllOVVWVY0W/XwW3uA6tLFt+eG2/81RfkqK7FGerqnZ3Tv7dm7f7EYAAAAAAAA8O/2Dwzl4bXb8tCa7XlwzdY8sHpr7nlmS57fuU8cAKpl+rS1KYq5QlABqzO2+9OtfAKtv4Na0bwqKQwA1s2COX15+MlmkoYYAAAAAAAA1Mmmnfvz+IYd//7X+h15YsPOPLhma57cuDNDTffxBaDiimzK7Gl2/6MqC/KaXLxwoJXPoPUHAC9Z8o+5cfnKpFhoQdbIqN656elemQP9rjsAAAAAAABtZfOu/VmzdU9Wb9mdZzbtzrOb//2v1Vt258mNO92+F4DWNm3yEymKJUJQARuT5ida/SQ62+JSlI2rU5SftSZrZsGcyXns6TJJIQYAAAAAAABVM9Qss3Nff/YcGMzOfQPZunt/tu3pz9Y9B7LtP/56fuf+rNu2N8/v3Je12/Zk44596R9sigdAmyq3pW/m2TpQkfV4Qy5Zsq/Vz6I9BgAvWXRzblrxUFKcZmHWyNjRx6e76970D/jBAAAAAAAA8C3+7NYn8gdffkiIYdLRKL7rVrvb9/anLMsMDDWze/9gdu0fyOCQQT4A+DaTJz6cRuNCIaiArRlofqQdTqQ9BgCLosyNK65L8klrs2bmzR6VJ5/VAQAAAAAA4Fts2L4vd6/aLAQAUCW7M2/WmTJQCWU+lCtfuasdTqXRNhdlTNdfJHnG6qyZCeNOSWfHg0IAAAAAAAAAAFTYxPH3p6NzrBBUwJ6UXX/YLifTPgOAFy8cSFFeb33W0NzZQyIAAAAAAAAAAFTW/sybdaoMVMRHctnCttkuu9FWl2bHgY+nyDprtGYmTzgzjY7HhAAAAAAAAAAAqKBxY+9OV9dkIaiAA0l5UzudUHsNAC67aH+SD1qnNdQ3fbcIAAAAAAAAAACVM5D5s0+UgYr4RC5ZsradTqjRdpdocPSHk2yxVmtm2pRzUhTPCgEAAAAAAAAAUCGjR92dnu4ZQlABQ0l5Q7udVPsNAF5+5p6k+LD1WjNFisyctkEIAAAAAAAAAIDKaGbe7NkyUBGfziVLnmy3k2q057VqfjCJW8LWzaxpC9NorBUCAAAAAAAAAKACenruzphR84SgAsoMNa9pxxNrzwHAS5ZsTZGPWbc1UxQdmTrZbYABAAAAAAAAAKpgQd9kEaiEsvi7XH7hg+14ao22vWgDHdcl2W/11sycGeelyCYhAAAAAAAAAABGUHfXPRk7+gQhqITG0LVte2pte9GuOH9DiuJPrd6aKYquTJn0uBAAAAAAAAAAACNo3uzRIlAJRb6SpReuaNfTa7T31eu4NsmgVVwzc2adk2SHEAAAAAAAAAAAI6Cz8UgmjDtFCCqhWVzVzqfX3gOAS897OmX+yiqumY7GqEwY/w0hAAAAAAAAAABGwNy+ARGoiDty6eJb2vkEG21/CRt5X5KmtVwzx/WdkRR7hAAAAAAAAAAAOIY6Go9n0oQzhKAi3tfuJ9j+A4BLL3gkKT9vLdfth0nH+Iwbc58QAAAAAAAAAADHUN+M3SlkoBIeyNLFX2j3k2zU4lI2yvdZzzV0XN/JSfqFAAAAAAAAAAA4BhqNZzJt8tlCUA3FVSmKsu1fdrW4lu+48K4kX7Woa6ara2rGjL5bCAAAAAAAAACAY2DWtOeTwv5/jLwiT2Xnvs/W4VQb9bmojaus7Bpa0LcgyaAQAAAAAAAAAADDqMj6zJh6rhBUxNVZdlEtZobqMwC4dNHXkyy3tmumt2dWenvtAggAAAAAAAAAMJymTX0mRdEhBBWwJjvG/1ldTrZRs4t7tfVdQ/PnzEhSCgEAAAAAAAAAMCw2p2+63f+oiOL6LDutvy5nW68BwKWLv5DkXou8Zsb2LkhP9z1CAAAAAAAAAAAMg6mTHkuj0S0EFbAlPfs+XqcTrtcAYFGUKcrrrPMaWjB7vAgAAAAAAAAAAEdZUexM38yzhaASytyUt1y0u06n3KjdRe5b85kkT1jtNTN27Enp7HxACAAAAAAAAACAo2jC+AfS2TFaCCpgZxr7P1y3k67fAOAb3ziUMnYBrKP5fZ0iAAAAAAAAAAAcLeXezOs7XQcqoSg+nKUXba/baTdqebHHdn0yyWqrvmYmjnt5OjseEgIAAAAAAAAA4CgYN+7edDUmCEEF7E86P1THE6/nAODFCwdSljdZ9zU0Z2a/CAAAAAAAAAAAR2wgC2afIgMV8bEsXbi+jifeqO0lH9v9sSSbrP2amTzp7DSKp4QAAAAAAAAAADgC48bcle7uKUJQAQNpNm+s68nXdwDw4oV7k/yB9V8zRZLZM7YIAQAAAAAAAABw2IYyb/Z8GaiEsvhULrvw2bqefqPWF7+/60NJsd2roGamT12YolgtBAAAAAAAAADAYRjde1d6e/qEoAKa6Ri8ts4B6j0A+M6FO5LmR7wOaqZIIzOnrBUCAAAAAAAAAOCQlZk/e5YMVMRn845XPlbnAI3aL4Gh8qYke70WambmjIUpio1CAAAAAAAAAAAcgp7uuzN6tNv/Ug3N4tq6JzAAePmFz6fMx70a6rbyi65MmfSUEAAAAAAAAAAAh2B+3zgRqIbyi7ls8d11r2AAMEnScV2Sfh1qZu6sc5JiqxAAAAAAAAAAAAehq+P+jBtzshBUQrNxtQgGAP/dpec/l+TPhajb6i96M3n8w0IAAAAAAAAAAByE+X0dIlAR/5LLFt8qgwHAb1G+P8mQDjUzZ/ZZKbNbCAAAAAAAAACAF9HZ8WgmjH+FEFRCo7xKhP9IIcF/uGTJkymKm4Woma6OsZk4/j4hAAAAAAAAAABexJyZ+0WgIu7N2y/4Jxn+nQHAb9Us3pekFKJm5s96RZJ9QgAAAAAAAAAAvICieDpTJp4pBNVYj3lvisKM138wAPitLl10f5J/EKJmuromZtyYe4UAAAAAAAAAAHgBfTO3JkUhBBXwaHYs/pwM/8kA4Hcqi98XoYYW9J2UZEAIAAAAAAAAAIBv0Siey/TJ5whBJZTlVVlWNIX4lpeoBN/h0sW3pyz+VYia6e6ellG9dwsBAAAAAAAAAPAtpk9dm6IwY0QVrM7Y7k/L8O28OF9IR/P9ItTQcXP6kpgQBgAAAAAAAABIkqKxIbOmLxSCSihzdS5e6A6f38EA4At5x5IvJ+VKIWpmVO/c9PTYBRAAAAAAAAAAIEmmTX46jaJTCCpgY4rykzJ8NwOA30vZuFqEGlowZ2qSUggAAAAAAAAAoN7KbembfrYOVGQ93pBLluzT4bsZAPxeLll0c1I+JETNjB11XLo67xcCAAAAAAAAAKi1KRMfSqMxSggqYGsGmh+R4YUZAPxeiqJMiuuEqKF5fT0iAAAAAAAAAAC1VWRX5s46SwgqocyHcuUrdwnxwgwAvpgxXX+R5BkhambiuFPT2fGgEAAAAAAAAABALY0ff386OscKQQXsSdn1hzJ8bwYAX8zFCwfsAlhTc2cPiQAAAAAAAAAA1ND+zJ/1chmoiI/ksoWbZfjeDAC+lM6tH0+RdULUzOQJZ6bR8ZgQAAAAAAAAAECtjBtzT7q6JgtBBRzIwNCNMrw4A4Av5W0/eiDJB4WoobnT3TscAAAAAAAAAKiTgczvO0EGKuITufKVNm57CQYAD8bg6A8n2SJEzUydfG4axTNCAAAAAAAAAAC1MGrUyvR0zxCCChhKyhtkeGkGAA/G5WfuSYoPC1E3RZGZMzbqAAAAAAAAAADUQDPHzemTgYr4dC5Z8qQML80A4MG/x30wiVvC1s3MKQvTaKwVAgAAAAAAAABoa73dKzOqZ54QVECZoeY1MhwcA4AH65IlW5N8TIiaKYqOTJ20WggAAAAAAAAAoK3NnzNFBCric7n8wgdlODgGAA/FYMf1SfYLUTNzZi5MkeeFAAAAAAAAAADaUnfXPRk7+gQhqISieZ0IB88A4KG44vwNKYo/FaJubypFV6ZMekIIAAAAAAAAAKAtze8bJQKVUOQrWXrhCiEOngHAQ9ZxbZJBHWpmzqxzkuwQAgAAAAAAAABoK50d38j4sacKQSU0i6tEODQGAA/V0vOeTpm/EqJmOhqjMnH8N4QAAAAAAAAAANrKvD4NqIo7cuniW2Q4NAYAD6/a+5I0haiZBX1nJMUeIQAAAAAAAACAttDReCITx58uBJVQlu8V4dAZADwcSy94JGXx90LU7Ydex/iMG3ufEAAAAAAAAABAW+ibsTOFDFTCA7nkgi/KcOgMAB6ujqH3i1BDx80+OUm/EAAAAAAAAABAS2s0VmXa5HOEoBqKq1IUpQ6H8VKW4DC948K7knxViJrp6pqaMaNWCgEAAAAAAAAAtLRZ0zclhf3/GHlFnsrOfZ8V4vAYADyixde4SoQaWjDnuCSDQgAAAAAAAAAALanI+syYcq4QVMTVWXaRWZzDZADwSCxd9PUktwlRM709szK6924hAAAAAAAAAICWNG3qMymKDiGogDXZMf7PZDh8BgCP3DUS1NC8vllJ3HccAAAAAAAAAGg1m9M33e5/VERxfZad1q/D4TMAeKSWLv5CknuFqJkxo+alp+seIQAAAAAAAACAljJt8mNpNLqFoAK2pGffx2U4MgYAj1RRlCnK64SooQV940UAAAAAAAAAAFpGUezM7BlnC0EllLkpb7lotxBHxgDg0dC35jNJnhCiZsaOPSmdnQ8IAQAAAAAAAAC0hEnjH0hnx2ghqICdaez/sAxHzgDg0fDGNw6lyLVC1ND82V0iAAAAAAAAAADVV+7NnL7TdaASiuLDWXrRdiGOnAHAo2V0158mWS1EzUwcf2o6Ox4SAgAAAAAAAACotHHj701XY4IQVMD+DDT+QIajwwDg0XLxwoGU5U1C1NCcmf0iAAAAAAAAAACVVeZAjpt9shBUxMdyxfkbZDg6DAAeTWO7P5ZkkxA1M3nS2WkUTwkBAAAAAAAAAFTS2FF3p6trqhBUwECazRtlOHoMAB5NFy/cm8T2lHVTJJk9Y6sQAAAAAAAAAEAFDWXBnPkyUAll8alcduGzQhw9BgCPtv6uDyXFdiFqZvrUhSmK1UIAAAAAAAAAAJUyundlenv6hKAChtIxeK0MR5cBwKPtnQt3pMgfC1EzRYrMmLpOCAAAAAAAAACgQsrMnz1TBiqhyGfzjlc+JsTRZQBwOAwOfSDJXiFqZtb0c1M0NggBAAAAAAAAAFRCT/fdGT3a7X+pCrv/DQMDgMPh8gufT5mPC1G3V1PRlakTnxICAAAAAAAAAKiE+X3jRKAayi9m6QX36HD0GQAcNh3XJenXoWbmzDo3KbYKAQAAAAAAAACMqK6u+zJuzMlCUAnNxtUiDA8DgMPl0vOfS/LnQtTtFVX0ZtL4R4QAAAAAAAAAAEbU/FmdIlAR/5LLFt8qw/AwADisyvcnGdKhZubOPjvJbiEAAAAAAAAAgBHR2fFoJox/hRBUQ/F+DYaPAcDhdMmSJ5P8jRA109UxOuPH3S8EAAAAAAAAADAi5szcLwIVcW+WLvqKDMPHAOBwKxvvT1IKUTMLZp+WZJ8QAAAAAAAAAMAxVRRPZ8rEM4WgGusx701RmJ0aRgYAh9uli+5P8g9C1ExX18SMHXuPEAAAAAAAAADAMdU3c2tSFEJQAY9mx+LPyTC8DAAeC2Xx+yLU0HGzX5ZkQAgAAAAAAAAA4JhoFM9l+uRzhKASyvKqLCuaQgzzy16CY+DSxbenLP5ViJrp7p6WUb13CwEAAAAAAAAAHBMzp61NUZgHogpWZ2z3p2UYfl7wx0pH8/0i1NBxc/qSmGQGAAAAAAAAAIZXUWzIjGkLhaASylydixe6c+YxYADwWHnHki8n5UohamZU79z09NgFEAAAAAAAAAAYXtMmPZ1G0SkEFbAxRflJGY4NA4DHUtm4WoQaOm7O1CSlEAAAAAAAAADA8Ci3pW/m2TpQkfV4Qy5Zsk+HY8MA4LF0yaKbk/IhIWpmzKjj0tN1nxAAAAAAAAAAwLCYPPHhNBqjhKACtmag+REZjh0DgMdSUZRJcZ0QNTRnth+yAAAAAAAAAMDRV2RX5s06UwgqocyHcuUrdwlx7BgAPNbGdP1FklVC1MzEcaeks+NBIQAAAAAAAACAo2r8+PvT0TlWCCpgT8quP5Th2DIAeKxdvHAgKa4XoobmzhoSAQAAAAAAAAA4ivZn/qyXy0AllOUf57KFm4U4tgwAjoTOrR9PkXVC1MzkiWemo/GYEAAAAAAAAADAUTFu7N3p6posBBVwIIPNm2Q49gwAjoS3/eiBJB8Uoob6ZuwWAQAAAAAAAAA4CgYyf/aJMlARn8iVr7Qh2ggwADhSBkd/OMkWIWpm2uRzUhRPCwEAAAAAAAAAHJFRo1emp3uGEFTAUFLeIMPIMAA4Ui4/c09SfFiIuimKzJqxSQcAAAAAAAAA4Ag0c3zfXBmoiE/nkiVPyjAyDACO7HvxB5Ps0qFmZk5ZmEZjrRAAAAAAAAAAwGHp7VmZ3p45QlABZYaa18gwcgwAjqRLlmxN8jEhaqYoOjJ10mohAAAAAAAAAIDDMr9vighUxOdy+YUPyjByDACOtMGO65PsF6Jm5sxcmCLPCwEAAAAAAAAAHJLurnsydvQJQlAJRfM6EUaWAcCRdsX5G1IUfypE3d78iq5MmfyEEAAAAAAAAADAIZk3e7QIVEKRr2TphSuEGFkGACuh49okgzrUzJyZ56QotgsBAAAAAAAAAByUro5vZMK4U4SgIt4vwcgzAFgFS897OslfClEzHY1RmTDePdABAAAAAAAAgIMzZ5YGVMUdWXrBP8sw8gwAVkWR9ydpClEzC2afkRR7hAAAAAAAAAAAXlRH44lMmni6EFRCWb5XhGowAFgVSy94JGXx90LU7Ydzx/iMG3OfEAAAAAAAAADAi5ozY1cKGaiEB3LJBV+UoRoMAFZJx5D7YtfRcX0nJ+kXAgAAAAAAAAB4QY3GqkydfLYQVENxVYqi1KEibw8SVMg7LrwryVeFqJmurqkZM+puIQAAAAAAAACAFzRr+qaksP8fI6/IU9m577NCVIcBwKopC7sA1tGCOQuSDAoBAAAAAAAAAHy7Yl1mTDlXByqhLK/KsovMuFSIAcCquXTxLUluE6JmentmpbfXLoAAAAAAAAAAwLebOeXZFEWHEFTAmuyc8CkZqsUAYDVdI0ENHT93VpKmEAAAAAAAAADAf9icWdPt/kdFFNdn2Wn9OlSLAcAqWrr4C0nuFaJmRvXMS0+X6w4AAAAAAAAA/Ltpkx9Lo9EtBBWwJT37Pi5D9RgArKKiKFOU1wlRQwv6xosAAAAAAAAAAKQodmb2jHOEoBLK3JS3XLRbiOoxAFhVfWs+k+RxIWpm7NiT0tn5gBAAAAAAAAAAUHOTxj+Qzo5RQlABO9PY/2EZqqlTgop64xuHctOK61Lmf4tRM/Nmd+Xp1ToAh23jjn353ZvvEWIEfOO5rSLQ1j5165OZOdH/z3Cs3fnU8yLQVlau2pwP/dNDQoyAHfv6RQAO2R9/7ZH0dnUIcYw9/fxOEWgrtzyyPnsODApxjN3hvycBoMWVezN39uk6UBF/mKUXbZehmgoJKuyjK7uyZ+DJJPPEqJn7H3kog0OnCQEAAAAAAAAANTRh7K05ccErhaAC9mew47hccf4GKarJLYCr7OKFAynLm4SooTmzbMsAAAAAAAAAAHVU5kDm9Z0qBBXxMcN/1WYAsOrGdn8sySYhambyxLPTKJ4SAgAAAAAAAABqZuyou9PdNUUIKmAgzeaNMlSbAcCqu3jh3pT5oBA1UySZPX2rEAAAAAAAAABQK0NZMGeBDFRCWXwql134rBDVZgCwFXQVH0qK7ULUzPRpC1M0vIkCAAAAAAAAQF2M6r0rvT2zhaAChpLiGhmqzwBgK3jb4p0p8sdC1EyRIrOmrhcCAAAAAAAAAGqhzIK+WTJQCUU+m0sXPS5E9RkAbBWDQx9IsleImpkxbWGKxgYhAAAAAAAAAKDN9XTfndGj5gtBRVwrQWswANgqLr/w+ZT5uBB1e4UWnZk28WkhAAAAAAAAAKDNzesbLwLVUH4xSy+4R4fWYACwpXRcl6Rfh5rpm3VuimKLEAAAAAAAAADQpro678/4MS8TgkpoNq4WoXUYAGwll57/XJI/F6Jur9KiJ5MmPCIEAAAAAAAAALSpeX0dIlAR/5LLFt8qQ+swANhqBpvvSzIkRM3MnXVOimKnEAAAAAAAAADQZjo6HsnEca8Qgmoo3q9BazEA2GquuPCpJH8jRM10dozOhLHfEAIAAAAAAAAA2szcWf0iUBH3Zumir8jQWgwAtqKy8f4kpRA1M2/2aUn2CQEAAAAAAAAAbaJRrMqUCWcKQSUUeW+KwkxSq72NSNCCLl10f5J/EKJmuromZtyYe4UAAAAAAAAAgDYxe+aWpNCBKng0OxZ/TobWYwCwVZXF74tQQ/PnnJTE1r8AAAAAAAAA0OoaxXOZPvkcIaiEonh/lhVNIVrwrUSCFnXp4tuT/IsQNdPTNS2jRt0tBAAAAAAAAAC0uBnT1qUozO5QBaszuvMvZWhN3kRa+uqVV4lQQ8f3zU1i4hoAAAAAAAAAWlVRbMisaecKQSWUuToXLxwQojUZAGxl71jy5aRcKUTN9PbOSU+PXQABAAAAAAAAoFVNn/J0iqJTCCpgY4rykzK0LgOAra5sXC1CDR03Z2qSUggAAAAAAAAAaDXltsyefo4OVGQ93pBLluzToXUZAGx1lyy6OWUeFKJmxow6Lt1d9wkBAAAAAAAAAC1myqSH0mj0CkEFbM1A8yMytDYDgK2uKMqkvE6IGprXN0oEAAAAAAAAAGghRXZl3qyzhKASynwoV75ylxCtzQBgO9h14C+SrBKiZiaMPSWdXXZ/BAAAAAAAAIBWMWH8/Wl0jBWCCtiTsusPZWh9BgDbwbKLBpPieiFqaM6MpggAAAAAAAAA0BL2Z+6s02SgEsryj3PZws1CtD4DgO2ic+vHU2SdEDUzZeIZ6Wg8JgQAAAAAAAAAVNy4sXenu2uSEFTAgQw2b5KhPRgAbBdv+9EDST4oRA3NnrlbBAAAAAAAAACotIHMn32iDFTEJ3LlK2001iYMALaTwdEfTmJrzrqZPumcNIqnhQAAAAAAAACAihozamV6umcIQQUMJeUNMrQPA4Dt5PIz96TMh4Wom6LI7BmbdAAAAAAAAACASmpmft88GaiG8i9yyZIndWgfBgDbTVH+QZJdQtTM9CkLUxS2ZgUAAAAAAACAquntWZlRvX1CUAFlhsprZWgvBgDbzSVLtib5mBA1UxQdmTH1GSEAAAAAAAAAoGLmzZ4qAhXxuVx+4YMytBcDgO1osOP6JPuFqJnZ089LkeeFAAAAAAAAAICK6Om6O+PGHC8ElVA0rxOh/RgAbEdXnL8hRfGnQtTtTbroypRJTwgBAAAAAAAAABUxd/YYEaiEIl/J0gtXCNF+DAC2q8HimiSDQtTMnFnnpCi2CwEAAAAAAAAAI6yr8xuZMO4UIaiI90vQngwAtqvLF61K8pdC1ExHY1QmjXevdgAAAAAAAAAYaXNma0BV3JGlF/yzDO3JAGA7K/L+JE0hambu7DOTYo8QAAAAAAAAADBCOhpPZNL404WgEsryvSK0LwOA7WzpBY+kLP5eiJrp7BiXcWPuEwIAAAAAAAAARsicWbtSyEAlPJBLLviiDO3LAGC76xhy/+46Oq7v1JQ5IAQAAAAAAAAAHGONxqpMnXi2EFRCmfenKEoh2vgtR4I2944L70qRrwhRM11dkzN2zN1CAAAAAAAAAMAxNnv6pqSw/x8jr8hTmfvcZ4VobwYA66BZXCVCDS2YfXySQSEAAAAAAAAA4Fgp1mX6lHN1oBLK8qq88Y1DQrQ3A4B1cOniW5LcJkTN9PbMTG+vXQABAAAAAAAA4FiZOeXZFEWHEFTAmuyc8CkZ2p8BwPq4RoIaOn7u7CRNIQAAAAAAAABg2G3OrOl2/6Miiuuz7LR+HdqfAcC6WLr4C0nuFaJmRvXMTU/3PUIAAAAAAAAAwDCbNvmxNBrdQlABW9Kz7+My1IMBwLooijIprhWihub3TRABAAAAAAAAAIZRke3pm3GOEFTEjXnLRbtlqAcDgHUyZ/VfJ3lciJoZN+akdHXeLwQAAAAAAAAADJNJEx5MR8coIaiAnSn2/5EM9WEAsE7e+MahFLlOiBqaO9sWwwAAAAAAAAAwPPZm7uzTZaAi/jBLL9ouQ30YAKyb0V1/mmS1EDUzafyp6eh4UAgAAAAAAAAAOMrGj7s3nR0ThKAC9mew40My1IsBwLq5eOFAyv+/vTtrsuss0Hz/vHvnJKVS85CjJEMxlQF5UKHJ0RG+5QPoE5wIXxxCaLDsOHeKxiUJCdtgYyhMm8JAAd3lKqAOUFFANKaj6YKwLSEwZWNsjAeMMR4lJFlSZq5zUcUpBg8aclh7r9/vI/xz7XdtRT56s7pViAYaGz4nAgAAAAAAAADMoCpnsm70nUJQE3fmhvc9K0OzGAA20aK+O5M8J0TDrFx2ZVqtR4UAAAAAAAAAgBmyaMED6etdIQQ1cC7T07fI0DwGgE103cZTqXKbEA1TkoyufkkIAAAAAAAAAJgRU1k/sV4GauJzuX7bEzI0jwFgU/WW25PyshANs3rlxpSWwx4AAAAAAAAALtWCgfsy0DcqBDUwlap1SIZmMgBsqh2bj6fkk0I0TEnJmpW/FgIAAAAAAAAALkmV9eMjMlALJfdkz6ZHhGgmA8Amm5z6aJJTQjTMyKq/SspvhAAAAAAAAACAi9Tff38WDqwTgppw+1+DGQA22d5tz6XKXUI07VNf2lm97DEhAAAAAAAAAOAirR1dIgL1UH0ju7Yc0aG5DACbrrccSnJWiIYZG7k6pbwgBAAAAAAAAABcoN7eH2Xx4NuFoBZKOSBCsxkANt2OzU+nKl8Qommf/NKfZUsfFgIAAAAAAAAALtDa0V4RqIl7s2vL92VoNgNAkqmp/UmmhGiYieErU8pxIQAAAAAAAADgPLXbD2Xp0OVCUA9u/8MAkCS5YdtjSf5BiIbpaS/MkqEfCwEAAAAAAAAA52li+IwI1MTR7Nr0bRkwAOTfVa39SSohGmbtyLuTnBYCAAAAAAAAAN5Eq/Voli+7QghqoeSmlGLrgwEg/2HPpmNJ/lmIhuntXZqhwaNCAAAAAAAAAMCbGF3zcooM1MJDeWXzV2UgMQDkD1XlQyI00LrxtyU5KwQAAAAAAAAAvI5WeSqrl18lBLVQyoHsK9NCkBgA8of2bP5Bku8J0TD9vauycOCIEAAAAAAAAADwOoZX/Sql2NlQB09mYc+XZeD3HEz8yRNRHRChgS6bGE9iGQ4AAAAAAAAAf6qUZzO8aqMQ1EKVg7lu4zkh+D0DQP7Yzq3/klT3C9EwA/3jGej3cwcAAAAAAACAP7V62S9SSo8Q1MBvUqrPysAfMgDkz5XiFsAmWj++KkklBAAAAAAAAAD8XvVSRoev0oFaKOUj2b31tBD8IQNA/tzOzV9JlQeFaJjBBZelr/dHQgAAAAAAAADAf1i5/N/Sag0IQQ28mLOTn5KBP2UAyJ8rpUqqw0I00LrxQREAAAAAAAAAIEnJiYwPXyEEtVDl9tx4zQkh+FMGgLy2iaf/LiWPCdEwiwffnnbb7Y8AAAAAAAAAsHjxsbTbLtKhDk6m6v24DLwWA0Be2/btU6nKLUI00NqRaREAAAAAAAAAaLhXs270chmohar6ZK7f+LwQvBYDQF5fz4t3peQZIRpm+dL3pt36mRAAAAAAAAAANNbQogfS27NMCGrgTCanb5WB12MAyOvb8f4zqaqPCtFAY8O/EwEAAAAAAACAhjqXdaNvk4FaKPlMbrzGBV68LgNA3tjU4CeSuEK0aVYtuzqt8gshAAAAAAAAAGicwQX3p79vtRDUwFSq6hYZeCMGgLyxvRtOpsodQjRNSYZX/VYHAAAAAAAAABpmKuvG1spAPVRfzO6tj+rAGzEA5M2V6rYkJ4RomOFVG9Nq/UoIAAAAAAAAABpjoP/+LBgYE4IaqDJVHZKBN2MAyJvbvfXFJHcK0TCltLN6+ZNCAAAAAAAAANAY68dWikBNfDV7tz0oA2/GAJDzM9n+SJLTQjTM6JqNKXlOCAAAAAAAAAC6Xl/PkQwufKsQ1EKZPiwC58MAkPNzw/ueTXK3EE17mZTerFj2cyEAAAAAAAAA6HprxxaKQD1U38qubf+qA+fDAJDzN9U6lGRSiIYZH7kqpbwsBAAAAAAAAABdq7fnJ1ky9E4hqIVSDojA+TIA5Pzt3fR4ki8L0TDt1oIsGfI35QEAAAAAAADoXhNjGlAXP8yuLffKwPkyAOTClOxPMi1Ew6wb25CUk0IAAAAAAAAA0HXa5ZEsHXqPENRCVd0kAhfCAJALs2vLQ6nKPwnRMD3toSwe/JEQAAAAAAAAAHSd8dHfpchALRzL7i3fkIELYQDIRZj+r0kqHRpm3dhfJnlVCAAAAAAAAAC6Rqv1eFYuvVIIaqHKgZRik8OFHWMScMH2bD2aku8I0TB9vcsyuPCoEAAAAAAAAAB0jZHVv02K+/+YfyWPZeKpe4TgQhkAcnGmywERGmj92GVJJoUAAAAAAAAAoOOV8uusWbFRCGqhqg5k+/YpIbhQBoBcnD2bv5vk+0I0zED/cAb6HxACAAAAAAAAgI63euUTKcV2hjp4OseXfF4GLoZDjItXVQdFaKC3rB1NMi0EAAAAAAAAAB3s+YyuukoGaqHK4ey7/KwQXAwDQC7enq1fT3JEiIZZ0D+R/r6jQgAAAAAAAADQsVYueyStVp8Q1MALmV54lwxcLANALlE5rEEDrRtbLAIAAAAAAAAAHank5UyMXCkENXFL9m44KQMXywCQSzP+5N8neUSIhhkafFt628eEAAAAAAAAAKDjLFvyYFqtBUJQA8dTXv2EDFwKA0AuzfbtUylxC2ATrR1zFTIAAAAAAAAAneZUJkbfIwM18fHsuvZlGbgUBoBcuoW9dyd5UoiGWbr4XWm3fyoEAAAAAAAAAB1j6dDR9LSXCEENnMrU9Mdk4FIZAHLprtt4Lim3CNFA42vOiQAAAAAAAABAR6hyJhOj7xSCmvhv2bvtORm4VAaAzIzBnk8ncSg1zYrlV6TVelQIAAAAAAAAAGpv8eAD6etdIQQ1cC7T0y7bYkYYADIzrtt4KlVuE6JhSpLR1S8JAQAAAAAAAEDNTWXt2HoZqInP5fptT8jATDAAZOb0ltuT8rIQDbN65caUlpcSAAAAAAAAAPW1YOC+DPSNCkENTKVqHZKBmWIAyMzZsfl4Sj4pRMOUlKxZ+WshAAAAAAAAAKipKuvHR2SgFkruyZ5NjwjBTDEAZGZN9dyS5KQQDTO66q+S8owQAAAAAAAAANROf98DWTiwTghqwu1/zCgDQGbW9RufT3KXEA1TSjurl/1SCAAAAAAAAABqZ93YMhGoia9n15YjMjCTDACZeT3lcJKzQjTM+PDVKeUFIQAAAAAAAACojb7eoxkafKsQ1ELJQRGYaQaAzLwdm59OVb4gRNNeUq3+LFv8sBAAAAAAAAAA1MbESJ8I1MS92bXl+zIw0wwAmR1TU/uTTAnRtC9Oo1emlONCAAAAAAAAADDv2u2HsnTx5UJQD+WABswGA0Bmxw3bHkvyD0I0TE97YZYM/UQIAAAAAAAAAObd2pGzIlATR7Nr07dlYDYYADJ7qtb+JJUQjfsCdXmS00IAAAAAAAAAMG/arZ9n2dINQlAP1YdSig0Ns8IAkNmzZ9OxpPqmEA3T27s0Q4uOCAEAAAAAAADAvBlb80qKDNTCQzm+5WsyMFsMAJldVesmERpo3djbk7hKGQAAAAAAAIC512o9lZUrrhKCWijlQPaVaSGYtSNPAmbVns0/SPI9IRqmv3dVFi5wCyAAAAAAAAAAc2/NymdSbGKohcfzyukvycBsctgxB09ZdUCEBrpsfDyJBTsAAAAAAAAAc6eUZzOy6mohqIUqh7Pv2kkhmE0GgMy+nVv/JVXuE6JhBvrH09//gBAAAAAAAAAAzJnVy36RUnqEoAaeTak+KwOzzQCQuXrSDorQQJeNr0xSCQEAAAAAAADA7KteyujwVTpQC6XcnN1bTwvBbDMAZG7s3PyVVHlQiIYZXHBZ+nqPCgEAAAAAAADArFu59N/Sag0IQQ28mLOTn5KBuWAAyNwopUqqw0I00LrxRSIAAAAAAAAAMKtKTmR89AohqIUqt+fGa04IwVwwAGTuTDz9dyl5TIiGWTz49rTbbn8EAAAAAAAAYPYsXnws7fagENTAyVS9H5eBuWIAyNzZvn0q07lZiAZaOzItAgAAAAAAAACzoqpO57LRdwtBTZ7HT+b6jc8LwVwxAGRu9b70mZQ8I0TDLF/63rRbDwsBAAAAAAAAwIxbPHQk7Z6lQlADZzI5fasMzCUDQObWjvefSVV9VIgGGhs+KQIAAAAAAAAAM+xc1o2+TQZqoeQzufEaF2MxpwwAmXtTg59I4qrTplm17Oq0248JAQAAAAAAAMCMGVxwf/r7VgtBDUylqm6RgblmAMjc27vhZKrcIUTTlGR45Qs6AAAAAAAAADBDprJ+bK0M1EP1xeze+qgOzDUDQOZHqW5LckKIhlmz8uq0Wr8SAgAAAAAAAIBLNtD/QAYGxoSgBqpMVYdkYD4YADI/dm99McmdQjRMKe2sXP6kEAAAAAAAAABcsvVjK0SgJr6avdselIH5YADI/JlsfyTJaSEaZnzNxpQ8JwQAAAAAAAAAF62/74EMLnyrENRCa/qACMzb4ycB8+aG9z2b5G4hGqaU3qxY9nMhAAAAAAAAALhoa0cGRaAeqm9l57b7dGC+GAAyv6Zah5JMCtEw48NXpZSXhQAAAAAAAADggvX0/DiLh94pBLVQitv/mFcGgMyvvZseT/JlIRqm3V6QJYsfFAIAAAAAAACACzYxau9CXfwwu7bcKwPzyYHI/CvZn2RaiIZZN7ohKSeFAAAAAAAAAOC8tcsjWbb43UJQC6X1IRGYbwaAzL9dWx5K8jUhGqanPZShwR8JAQAAAAAAAMB5Gx/9XYoM1MKx7HzfN2VgvhkAUg9V9aEklRANc9n4XyZ5VQgAAAAAAAAA3lQpj2fl0iuFoBaqHEgpti7MOwNA6mHP1qMp+Y4QDdPbsyxDg0eEAAAAAAAAAOBNjax+Pinu/2P+lTyWiafuEYI6MACkPqbLAREaaO3oW5JMCgEAAAAAAADA6yrl6QyvvFoIaqGqDmT79ikhqAMDQOpjz+bvJvm+EA0z0D+cgf4HhAAAAAAAAADgdQ2veCql2LlQB0/n+JLPy0BdOBipl6o6KEIDvWViNMm0EAAAAAAAAAD8mZLfZni12/+ohyqHs+/ys0JQFwaA1MuerV9PckSIhlkwMJH+Pj93AAAAAAAAAP7ciuU/T6vVJwQ18EKmF94lA3ViAEgNlcMaNNDa0aUiAAAAAAAAAPBHSl7OxPCVQlATt2TvhpMyUCcGgNTP+JN/n+QRIRpm8aK/SG/7mBAAAAAAAAAA/P+WLflpWq0FQlADx1Ne/YQM1I0BIPWzfftUStwC2ERrx13ZDAAAAAAAAMDvncrEyHtkoCY+nl3XviwDdWMASD0t7L07yRNCNMzSoXel3f6pEAAAAAAAAABkyeIj6elZLAQ1cCpT0x+TgToyAKSertt4Lim3CtFAE8PnRAAAAAAAAABouCpnsnbkXUJQkwfy09m77TkdqCMDQOprsOfTSRyeTbN82RVptx8TAgAAAAAAAKDBFg8+kL7eFUJQA+cyXbnEitoyAKS+rtt4KlVuE6JhSpKR1S8JAQAAAAAAANBYU1k7tl4GauJzuX7bEzJQVwaA1FtvuT0pLwvRMKtXXJ3S8vIEAAAAAAAAaKKFA/dloG9UCGpgKlXrkAzUmQEg9bZj8/GUfFKIhikpWbPi10IAAAAAAAAANE6VdeMjMlALJfdkz6ZHhKDODACpv95yc5KTQjTM6Oq/SsozQgAAAAAAAAA0SH///Vk4sE4IasLtf9SeASD194FNLyS5S4iGKaWd1St+KQQAAAAAAABAg6wfWyYCNfH17NpyRAbqzgCQztBTDic5K0TDjK++OqW8IAQAAAAAAABAA/T2/CiLFv6FENRCyUER6AQGgHSGHZufTlW+IETTXqat/ixf/JAQAAAAAAAAAA2wbqxHBGri3uza8n0Z6AQGgHSOqan9SaaEaJjx0auSvCIEAAAAAAAAQBdrtx7KkqF3C0EtTJf9ItApDADpHDdseywl9wjRMD3thVmy+CdCAAAAAAAAAHSxtWNnRaAmjmbPpu/IQKcwAKSzTLcOJKmEaJj1I+9OcloIAAAAAAAAgC7Ubv08y5ZsEIJ6qD6UUmxT6BgGgHSWPZuOJdU3hWiYnt6lGRo8KgQAAAAAAABAFxpdczxFBmrhoRzf8jUZ6CQGgHSeqnWTCA20buztSVz5DAAAAAAAANBNWq2nsmrFlUJQC6UcyL4yLQQddYxKQMfZs/kHSb4nRMP0963MwgVHhAAAAAAAAADoIsMrn0mxX6EWHs8rp78kA53GAUqHKvs1aKD14+uSWNoDAAAAAAAAdINSns3wqquFoCYOZd+1kzLQaQwA6Uy7N38rVe4TomEW9I9koO9+IQAAAAAAAAC6wKrlj6eUHiGogWeT6m4Z6EQGgHTy03tQhAa6bO2qJJUQAAAAAAAAAJ2seiljw1fqQC2UcnN2bz0tBJ3IAJDOtXPzV1LlQSEaZuHAZenrPSoEAAAAAAAAQAdbufzf0ioDQlADL+bs5KdkoFMZANK5SqmS6rAQDbRufJEIAAAAAAAAAB2q5ETGh68QglqocntuvOaEEHQqA0A628TTf5fkUSEaZvHg29PT/okQAAAAAAAAAB1oyeJjabcHhaAGTqbq/bgMdDIDQDrb9u1TqXKLEA20dkwDAAAAAAAAgE5TVaezfvTdQlAP5RO5fuPzOtDJDADpfL0vfSYlzwjRMMsWvyft9sNCAAAAAAAAAHSQxYuPpN2zVAhq4EzOTX5UBjqdASCdb8f7z6SqHMhNNLb6lAgAAAAAAAAAHeNc1o28TQZqoeQzufEaF07R8QwA6Q5Tg59I4krWplm1/Kq0248JAQAAAAAAANABBhfen/6+1UJQA1OpqltkoBsYANId9m44mSp3CNE0JRlZZfgJAAAAAAAAUH9TWT+6Vgbqofpidm99VAe6gQEg3aNUtyU5IUTDrF6xMa3Wr4QAAAAAAAAAqLGBgfszMDAmBDVQZao6JAPdwgCQ7rF764upqk8J0TCltLNy+ZNCAAAAAAAAANTYZSOrRKAmvpK92x6UgW5hAEh3meq5OclpIRpmfM3GlDwnBAAAAAAAAEAN9fc9kIWDbxGCWmhNHxSBrnqkJaCr3PC+Z5PcLUTDlNKblct/LgQAAAAAAABADa0bXSQC9VB9Kzu33acD3cQAkO4z1TqUZFKIhhkfuTqpXhICAAAAAAAAoEZ6en6coUXvEIJaKOWACHQbA0C6z95Njyf5shBNO83KQJYv/akQAAAAAAAAADWybsQ2hbr4QXZtuVcGuo1Dlu5Usj/JtBANMzG6ISknhQAAAAAAAACogZ7Wz7NkybuFoBZK6yYR6EYGgHSnXVseSvI1IZr25bE9lKFFPxICAAAAAAAAoAbGR36XIgO1cCw73/dNGehGBoB0r6r6UJJKiIa5bOwvk7wqBAAAAAAAAMA8KuXxrFh6hRDUQpUDKcWGhK5kAEj32rP1aEq+I0TD9PYsy+CCI0IAAAAAAAAAzKOxNb9Nivv/mH8lj2XiqXuEoFsZANLt9kvQQOvH35JkUggAAAAAAACAeVDK01m9YqMQ1EO1P9u3T+lAtzIApLvt2nJvku8L0TAD/cNZOPCAEAAAAAAAAADzYM3Kp1OKTQp18HReWfIFGehmDlu6X1UdFKGB1o+PJpkWAgAAAAAAAGAOlfw2I6uuEoJaqHI4+y4/KwTdzACQ7rdn69eTHBGiYRYMTKS/z88dAAAAAAAAYC6tXP5IWq0+IaiBFzK98C4Z6HYGgDREOaxBA60bXSoCAAAAAAAAwBwpeTnjw27/oy5uyd4NJ2Wg2xkA0gzjT/59kkeEaJihRX+R3t4fCQEAAAAAAAAwB5Yu+WlarQVCUAPHU179hAw0gQEgzbB9+1RSHRKigdaO9osAAAAAAAAAMOtOZe3Ie2SgFkpuz65rXxaCJjAApDkG+z6X5AkhGmbp0LvS7vmpEAAAAAAAAACzaPHQ0fT0LBaCGjiVyenbZKApDABpjus2nkvKrUI00MSacyIAAAAAAAAAzJIqZ7Ju9J1CUJMH8tPZu+05HWgKA0CaZbDn00kc8k2zfNkVaZdHhAAAAAAAAACYBUOL7k9f7wohqIFzma5cDkWjGADSLNdtPJUqrnltmpJkdOQVIQAAAAAAAABm3FTWjfyFDNTE53L9tidkoEkMAGme3nJ7Ul4WomFWLd+Y0vKSBwAAAAAAAJhJCwbuy0D/GiGogalUrUMy0DQGgDTPjs3Hk+oTQjRMScnIyl8LAQAAAAAAADBjqqwfH5GBmvj77Nn0iAw0jQEgzdTXuiXJSSEaZnjVXyXlGSEAAAAAAAAAZkB///1ZOLBOCGqh5LAINJEBIM30gU0vJLlLiKa97Es7q5f9UggAAAAAAACAGbB+bJkI1MTXs2vLERloIgNAmqunHE5yVoiGGR++OqW8IAQAAAAAAADAJejrPZpFC/9CCGqh5KAINJUBIM21Y/PTqcoXhGjaS7/Vn2WLHxYCAAAAAAAA4BKsHe0VgZq4N7u2fF8GmsoAkGabmtqfZEqIhpkYvTLJK0IAAAAAAAAAXIR2+6EsGXq3ENTCdNkvAk1mAEiz3bDtsZTcI0TD9LQXZsninwgBAAAAAAAAcBHWjp4VgZo4mj2bviMDTWYACNOtA0kqIRpm/ci7U1WnhQAAAAAAAAC4AO3Wz7NsyQYhqIfqQynF5oNGMwCEPZuOJdU3hWiYnt6lWTx0RAgAAAAAAACACzC+5pUUGaiFh3J8y9dkoOkMACFJqtZNIjTQutF3JHE1NQAAAAAAAMD5aLWeyooVVwlBLVRlf/aVaSFo/NEsASTZs/kHSe4VomH6+1ZmwcIHhAAAAAAAAAA4D8Orn0mxNaEWHs+J01+WAQwA4Q+UAxo00FvG1yWZEgIAAAAAAADgDZTybIZXXC0ENXEo+66dlAEMAOE/7d78rVS5T4iGGegbzUCfWwABAAAAAAAA3sjqFb9IKT1CUAPPJtXdMsC/MwCEP/5EHBShgS5buypJJQQAAAAAAADAaynPZ2y12/+oyeNYbs7uraeFgH9nAAh/aOfmr6TKg0I0zMKBy9LXe1QIAAAAAAAAgNewctnPUlr9QlADL+bs5KdkgP9kAAh/qJQqrXJIiAZaPzYkAgAAAAAAAMCfKDmR8TVXCEFNnsfbcuM1J4SA/2QACH9q7MkvJnlUiIYZWvS29LZ/IgQAAAAAAADAH1iy+Fja7UEhqIGTmeq9Qwb4YwaA8Ke2b59KlVuEaKDxEQ0AAAAAAAAAfq+qTmf96LuFoB7KJ3L9xud1gD9mAAivpfelz6TkGSEaZvnS96TdflgIAAAAAAAAgCSLh46k3bNUCGrgTM5NflQG+HMGgPBadrz/TKrKi6OJxlefEgEAAAAAAAAg57J+9G0yUAsln8mN17jICV6DASC8nqnBTyRxdWzTrFhxVVqtXwgBAAAAAAAANNrggvvT17daCGpgKlV1iwzw2gwA4fXs3XAyVe4QomFKkpHVhp8AAAAAAABAk01l/fg6GaiFUv4uu7c+KgS8NgNAeMOXSHVbkhNCNMyaFRtTytNCAAAAAAAAAI20cOD+DPSPCkENVJmcOiwDvD4DQHgju7e+mKr6lBANU0ora1Y8JQQAAAAAAADQQFUmRlfJQE18JXu3PSgDvD4DQHgzUz03JzktRMOMrNmYkt8IAQAAAAAAADRKf++RLFr4FiGohdb0QRHgTT4mEsCbuOF9zya5W4imnY6lNyuXPyoEAAAAAAAA0CjrxhaJQD1U38rObffpAG/MABDOx1TrUJJJIRpmfOTqpHpJCAAAAAAAAKARenp+nKFF7xCCmtgvAbw5A0A4H3s3PZ5UXxKiaSdkGcjypT8VAgAAAAAAAGiEdSN2JNTFD7J76/dkgDfn4IbzVcqBJNNCNMzE6IZU+Z0QAAAAAAAAQFdrtx/O0iXvFoJaKK2bRIDzYwAI52vXloeSfE2IhulpD2Xpoh8JAQAAAAAAAHS1iZHTIlATx7Lzfd+UAc6PASBciKr6UJJKiIZZN355kleFAAAAAAAAALpSKY9nxZIrhKAWqhxIKbYZcJ4MAOFC7Nl6NCXfEaJhenuWZXDBESEAAAAAAACArjS25vmkFCGYdyWPZeKpe4SA82cACBduvwQNtH78LUkmhQAAAAAAAAC6Sqs8ldUrrhaCeqj2Z/v2KR3gAo5xCeAC7dpyb5LvC9EwA/3DWTBwvxAAAAAAAABAV1mz+umUYj9CHTydV5Z8QQa4MA5wuBhVdVCEBrpsfCzJtBAAAAAAAABAVyj5bUZWuv2PeqhyOPsuPysEXBgDQLgYe7Z+PckRIRpmwcBE+vv83AEAAAAAAIDusGr5z1NKnxDUwAuZXniXDHDhDADhYlU5JEIDrR9dIQIAAAAAAADQ8UpeztjwlUJQC1V1c/ZuOCkEXDgDQLhYE0/dk+QRIRpm0aLL0ttzTAgAAAAAAACgoy1d8tO0WguEoAaOp3XmkzLAxTEAhIu1fftUUrkFsInWjrkCGwAAAAAAAOhkp7J25D0yUAslt2fXtS8LARfHABAuxWDf55I8IUTDLB16V9rtB4UAAAAAAAAAOtKSRUfS07NYCGrgVCanb5MBLp4BIFyK6zaeS8qtQjTQxMiUCAAAAAAAAEDHqXIma8feJQQ1eSA/nb3bntMBLp4BIFyqwZ5PJ/EyaprlSzekXR4RAgAAAAAAAOgoiwcfSF/vCiGogXOZrly6BJfIABAu1XUbTyX5mBANU5KMDB8XAgAAAAAAAOggk1k/9hYZqInP5fptT8gAl8YAEGZCT/l4Ul4WomFWr7g6pfgyAgAAAAAAAHSGBQP3p69vWAhqYCpV65AMcOkMAGEm7Nh8PKk+IUTDlJSMrPq1EAAAAAAAAEAHqLJ+bEQGauLvs2fTIzLApTMAhJnS17olyUkhGmZ41V8l5RkhAAAAAAAAgFrr778/CxesE4JaKDksAswMA0CYKR/Y9EKSu4Ro2peS0s6aFb8UAgAAAAAAAKi19WPLRaAmvp5dW47IADPDABBmUk85nOSsEA0ztvrqlPKCEAAAAAAAAEAt9fcezaKFbxWCWig5KALMHANAmEk7Nj+d5PNCNO3LSas/y5c8JAQAAAAAAABQS+OjfSJQE9/Nri3flwFmjgEgzLTJ6QNJpoRomInRq5K8IgQAAAAAAABQK+32Q1k6dLkQ1MJ0OSACzCwDQJhpN2x7LCX3CNG0L82thVm6+CdCAAAAAAAAALUyMXJOBGriaPZs+o4MMLMMAGE2TLcOJKmEaJh1o+9NVZ0WAgAAAAAAAKiFduvnWb70vUJQD9WHUootBcwwA0CYDXs2HUuqbwrRMD09i7N46IgQAAAAAAAAQC2MrTmeIgO18FCOb/maDDDzDABh1j5d5UMiNNC60XckOSsEAAAAAAAAMK9KeTIrV1wpBLVQlf3ZV6aFgJlnAAizZeeWHya5V4iG6e9bmcEFDwgBAAAAAAAAzKuRNb9OsQuhFh7PidNflgFmh4MeZlU5oEEDrZ9Yl2RKCAAAAAAAAGBelPw6wyuuFoKaOJR9107KALPDABBm0+7N30qV+4RomIG+0Qz0uwUQAAAAAAAAmB+rVvwypfQIQQ08m1R3ywCzxwAQZv9TdlCEBrpsYlWSSggAAAAAAABgbpXnM77G7X/U5HEsN2f31tNCwOwxAITZtnPzV1LlQSEaZuHAZenrPSoEAAAAAAAAMKdWLv1ZSqtPCGrgxZyd/JQMMLsMAGG2lVKlVQ4J0UDrx4ZEAAAAAAAAAOZMKcczPnyFENTjecxtufGaE0LA7DIAhLkw9uQXkzwqRMMMLXpbent+IgQAAAAAAAAwJ5Yt/nHa7UEhqIGTmeq9QwaYfQaAMBe2b59KlVuEaKDxUQ0AAAAAAACA2VdVpzM+9h4hqIfyiVy/8XkdYPYZAMJc6X3pMyl5RoiGWb74PWm3HxYCAAAAAAAAmFWLh46kt7VECGrgTM5NflQGmBsGgDBXdrz/TFJuFaKBxodPiQAAAAAAAADMonNZP/o2GaiFks/kxmtckARzxAAQ5tLkgk8mccVt06xYdlVa5TEhAAAAAAAAgFkxOHhf+vpWC0ENTOXc9M0ywNwxAIS5tHfDyVS5Q4iGKUlG17wgBAAAAAAAADALprJ+dJ0M1EIpf5cbtrkgB+aQASDM+cuuui3JCSEaZvXKjWm1nhICAAAAAAAAmFEDA/dnoH9MCGqgyuTUYRlgbhkAwlzbvfXFVNWnhGiYklZWL39aCAAAAAAAAGAGVVk3ukoGauIr2bvtQRlgbhkAwnyY6rk5yWkhGmZkzcaU/EYIAAAAAAAAYEb09x7JooVvEYJaaE0fFAHm4aMnAcyDG973bEo+K0TTTtzSm5XLHxUCAAAAAAAAmBHrxhaJQC1U5V+yc9t9QsDcMwCE+TLZOpxkUoiGGR+5OikvCgEAAAAAAABckt6eYxla9A4hqIUyfUAEmB8GgDBf9m56PKm+JETTTt0ykOWL/00IAAAAAAAA4JKsHWmLQE38ILu3fk8GmB8GgDCfSjmQZFqIhpkY3ZAqvxMCAAAAAAAAuCjt9sNZuuTdQlALpXWTCDB/DABhPu3a8lCSrwnRMD3toSwZOiYEAAAAAAAAcFHGhk+LQE0cy873fVMGmD8GgDDfqupDSSohGmb92F8m8aUcAAAAAAAAuDClPJ5VS68QgprYn1JsHmAeGQDCfNuz9WhSfVuIhuntWZbBBUeFAAAAAAAAAC7I2Ornk1KEYN6VPJbxp/5BCJhfBoBQi5diOSBCA102/pYkk0IAAAAAAAAA56VVnsrqlVcLQT1U+7N9+5QOMM+vBgmgBnZtuTfJ94VomP7+4SwYuF8IAAAAAAAA4LwMr/pVSrH1oA6ezitLviADzD8vBaiLqjooQgNdNj6WZFoIAAAAAAAA4A2V/DbDq9z+Rz1UOZx9l58VAuafASDUxZ6tX09yRIiGWTAwkf4+P3cAAAAAAADgja1a/khK6RWCGng+0wvvkgHqwQAQ6qTKIREaaP348iSVEAAAAAAAAMBrKnk5Y8NXCUEtVNUt2bvhpBBQDwaAUCcTT92T5BEhGmbRwrekt+eYEAAAAAAAAMBrWrbsp2m1FghBDRxP68wnZYD6MACEOtm+fSqp3ALYRGvHBkQAAAAAAAAAXsOprB3eIAO1UHJ7dl37shBQHwaAUDeDfZ9L8oQQDbN06J3paT8oBAAAAAAAAPBHlg4dTbu9SAhq4FQmp2+TAerFABDq5rqN51LlFiEaaHx4UgQAAAAAAADgD7yataPvkoF6qD6dvdue0wHqxQAQ6mhR739L4qXZNCuWXZFW+2dCAAAAAAAAAEmSoUUPpLd3uRDUwLm0p11mBDVkAAh1dN3GU0k+JkQDja4+IQIAAAAAAACQ5FzWjb5VBmqhyt354DVPCgH1YwAIddVTPp6Ul4VomNUrrk4pTwgBAAAAAAAADbdw4IH09w0LQQ1MJa3DMkA9GQBCXe3YfDypPiFEw5SUDK96VggAAAAAAABotCprx0ZloCb+Pns2PSID1JMBINRZX+uWJCeFaJiRVRvTav1KCAAAAAAAAGio/v77M7hgrRDUQonb/6DGDAChzj6w6YUkdwnRtC9PpZ1VS/0ZYAAAAAAAAGiq9WPLRaAmvp5dW47IAPVlAAh111MOJzkrRMOMDV+dlOeFAAAAAAAAgIbp6z2aRQvfKgS1UHJQBKg3A0Coux2bn07yeSGa9iWq1Z+VS38mBAAAAAAAADTMxGifCNTEd7Nry/dlgHozAIROMDl9IMmUEA0zPnJlkleEAAAAAAAAgIZotx/K0qHLhaAWpssBEaD+DAChE9yw7bGU3CNE077ctxZm6eKfCAEAAAAAAAANsXbknAjUxNHs2fQdGaD+DAChU0y3DiSphGiY9WPvTXJKCAAAAAAAAOhy7dbPs2zpe4WgFkr1X1OKjQJ0AANA6BR7Nh1L8g0hmvYlv704Q4uOCgEAAAAAAABdbmz4eIoM1MJDeWXLP8kAncEAEDrrE3uTCA20fvQdSc4KAQAAAAAAAF2qVZ7MyuVXCUEtVGV/9pVpIaBDXiESQAfZueWHSe4VomH6+lZmcMEDQgAAAAAAAECXGl3z6xT3/1ELj+fE6S/LAJ3DABA6TjmgQQOtH1+fZEoIAAAAAAAA6DIlv87qFVcLQU0cyr5rJ2WAzmEACJ1m9+Zvpcp9QjTMQP9IBvrvFwIAAAAAAAC6zJpVj6eUHiGogWeT6m4ZoLMYAEInKpVbAJvosonVSSohAAAAAAAAoFuU5zOyaqMO1OR5/Eh2bz2tA3QWA0DoRLu2fDVVHhSiYRYOXJa+nqNCAAAAAAAAQJdYufRnabX6hKAGXsy5yTtlgM5jAAidqJQqrXJIiAZaPz4kAgAAAAAAAHSBUo5nfPgKIajH85jbcuM1J4SAzmMACJ1q7MkvJnlUiIYZWvS29Pb8RAgAAAAAAADocMsW/zjt9qAQ1MDJTPXeIQN0JgNA6FTbt0+lyi1CNNDEmAYAAAAAAADQyarqdMbH3iME9VA+kes3Pq8DdCYDQOhkvS99JiXPCNEwy4bek3b7YSEAAAAAAACgQy0ZOpLe1hIhqIEzOTf5URmgcxkAQifb8f4zSblViAYaHz4lAgAAAAAAAHSkc1k3+nYZqIm7cuM1Lh6CDmYACJ1ucsEnk7iKt2lWLLsqrfKYEAAAAAAAANBhBhfen76+VUJQA1OZnL5FBuhsBoDQ6fZuOJkqdwjRMCXJyJoXhAAAAAAAAICOMpX1Y2tloBZK+bvcsM3FM9DhDAChK17K1W1JTgjRMGtWbkwpTwoBAAAAAAAAHWKg//4M9I8JQQ1UmZw6LAN0PgNA6Aa7t76YqvqUEA1T0sqaFb8SAgAAAAAAADpClcvG18hATXwle7c9KAN0PgNA6Bbt1keSnBaiYUbWbEwpvxECAAAAAAAAaq6/74EsXLBeCOqhdUAD6JJPswTQJXZu/k1KPitE007x0psVSx8TAgAAAAAAAGpu3diQCNRCVf4luzfdLwR0BwNA6KpP9NTBJOeEaJiJ0auS8qIQAAAAAAAAUFO9PccyNPgOIaiFMu32P+giBoDQTT54zZNJ9WUhmnaSl4EsX/xvQgAAAAAAAEBNrR1ti0BN/CC7t35PBugeBoDQbUo5kGRaiIaZGN2QKr8TAgAAAAAAAGqm3XooSxe/WwhqoSofEgG6iwEgdJtdWx5K8lUhGqanPZSli34kBAAAAAAAANTM+PAZEaiJY9m96Z9lgO5iAAjdqKpuSlIJ0TDrxi9PcloIAAAAAAAAqIlSHs/KZRuEoCb2pxRbAugyBoDQjfZsPZpU3xaiYXp7lmVo8KgQAAAAAAAAUBNja55PShGCeVfyWMaf+gchoPsYAELXvrzLAREaaN3YXySZFAIAAAAAAADmWas8ldUrrhaCeqj2Z/v2KR2gC183EkCX2rXl3iTfF6Jh+vtWZ8HA/UIAAAAAAADAPFu96lcpxS6DOng6ryz5ggzQnbxooJuVllsAm+iy8bEk00IAAAAAAADAPCn5bUZXuf2PujyPh7Lv8rNCQHcyAIRutmvTN5IcEaJhFgxMpL/Pzx0AAAAAAADmy6rlP08pvUJQA89lYe9dMkD3MgCEblflkAgNtH58eZJKCAAAAAAAAJhjJS9nbPhKIaiFqvportt4SgjoXgaA0O0mnronySNCNMyihW9Jb+8xIQAAAAAAAGCOLV/6YFqtBUJQA8fTOvNJGaC7GQBCt9u+fSqp3ALYROtGB0QAAAAAAACAOfW7TAxfIQO1UHJ7dl37shDQ3QwAoQkG+z6X5AkhGmbJ0DvT035QCAAAAAAAAJgjSxf/KO2eRUJQA6cyOX2bDND9DAChCa7beC5VbhGigSZGpkQAAAAAAACAOfFq1o78pQzUQil3Zu+254SA7mcACE1x4tU7kzwrRMMsX7ohrfbPhAAAAAAAAIBZNjR4JL29y4WgBs6lNXmrDNAMBoDQFPuufTXJ7UI00PjqEyIAAAAAAADArDqXdWNvlYFaqHJ3PnjNk0JAMxgAQpP0lI8n5WUhGmbliqtTyhNCAAAAAAAAwCwZXHB/+vvWCEENTCWtwzJAcxgAQpPs2Hw8qT4hRMOUlAyv8uefAQAAAAAAYHZMZ2J0TAZq4u+zZ9MjMkBzGABC0/S1bknyOyEaZmTVxrRavxICAAAAAAAAZlh//wMZXLBWCGqgSlUdkgGaxQAQmuYDm15IqruEaJhS2lm11J8BBgAAAAAAgJm2fmy5CNTE17Nn61EZoFkMAKGJelofSXJWiIYZG/6rpLwgBAAAAAAAAMyQvt6jWbTwrUJQCyUfFgGaxwAQmmjH5qeTfF6Ipn3Za/Vm5eKHhQAAAAAAAIAZsm60TwRq4rvZteX7MkDzGABCU01OH0gyJUTDjI9dmeQVIQAAAAAAAOAS9bT/LYuHLheCWpguB0SAZjIAhKa6YdtjKblHiIZptxZmyeKfCAEAAAAAAACXaGJkUgRqocp9uX7zt4WAZjIAhCYrZX+SSoiGuWzsvUlOCQEAAAAAAAAXqd36eZYtfa8Q1EKr2i8CNPgIkAAabOfmHyf5hhBN+8dIe3GGFh0VAgAAAAAAAC7S2PDxFBmohYfyypZ/kgGaywAQnAI3idBA60ffkeSsEAAAAAAAAHCBWq1fZtWyq4SgFqqyP/vKtBDQ4NeSBNBwO7f8MMm9QjRMX9/KDC54QAgAAAAAAAC4QCOrnkuK+/+og8dz4vSXZYBmMwAEkumyX4QGWj++PsmUEAAAAAAAAHCeSn6dNSuvFoJaqKoPZ9+1k0JAsxkAAsn1m7+dlH8VomEG+kcy0O8WQAAAAAAAADhfa1b+MqW0haAGns2JM3fLABgAAv9h+rAGDXTZxOoklRAAAAAAAADwpp7PyGq3/1ET5SPZd+2rOgAGgMC/27Xlq6nyoBANs3Bgffr7jggBAAAAAAAAb2Llsp+l1eoTghp4Mecm75QBSAwAgd8rpUqrHBKigdaNDYkAAAAAAAAAb6CU4xkbvkII6vE85rbceM0JIYDEABD4Q2NPfjHJo0I0zNDg29PT82MhAAAAAAAA4HUsWfzj9LQHhaAGTmaq9w4ZgN8zAAT+0/btU0luFqKB1o72igAAAAAAAACvoapOZ+3Ye4SgHs9j7sj1G58XAvg9A0Dgj/W89LcpeUaIhlm2+F1ptx8WAgAAAAAAAP7EkqEj6W0tEYIaOJPJqY/JAPwhA0Dgj+14/5mk3CpEA40PnxIBAAAAAAAA/si5rBt9uwzUxF258RoX+gB/xAAQ+HOTCz6ZxJXBTbNi2VVplceEAAAAAAAAgP8wuOC+9PWtEoIamMxU6yMyAH/KABD4c3s3nEyVO4RomJJkePWLQgAAAAAAAECSZCrrx9fJQC2U8sXs3fS4EMCfMgAEXufLQ3VbkhNCNMzwqqtTypNCAAAAAAAA0HgD/fdnoH9MCGqgyuTUYRmA12IACLy23VtfTMrfCNEwJa2sXvmMEAAAAAAAADRclcvGhmWgJv4xe7c9KAPwWgwAgTc6IW5OclqIhhldfXVK+Y0QAAAAAAAANFZ/35EsXOjP/1ITrYMaAK97QkgAvK6dm3+Tks8K0bQ3Q+nNyuWPCgEAAAAAAEBjrRtbJAK1UJV/ye5N9wsBvB4DQOBNTompg0nOCdEw48NXJ+VFIQAAAAAAAGic3vaxDA2+QwhqoUwfEAF4IwaAwBv74DVPJtWXhWja26EMZPnih4QAAAAAAACgcdaOt0WgJn6Q3Vu/JwPwRgwAgTc3nf1JpoVomPHRDanyOyEAAAAAAABojJ72w1k69G4hqIWqfEgE4M0YAAJv7vqtDyf5qhAN09telGVDx4QAAAAAAACgMcaHT4tATRzL7k3/LAPwZgwAgfNTVTclqYRomInRv0ziHzkAAAAAAAB0v1J+kRVLrxCCmtifUvyOHnhTBoDA+dmz9WhSfVuIhunrXZahBUeFAAAAAAAAoOuNDb+YlCIE867ksYw/9Q9CAOfDABC4gC8Z5YAIDbR+4m1JzgkBAAAAAABA12qVp7J6+VVCUA/V/mzfPqUDcF6vMAmA87Zry70p+d9CNExf36osHHhACAAAAAAAALrW6lW/Sik2FNTBU3llyRdkAM6XlxdwocfGQQ0aaP34WJJpIQAAAAAAAOg6pfVcRldtFIJ6PI85nH2XnxUCOF8GgMCF2bXpG0mOCNEwCwYm0t/vFkAAAAAAAAC6z6qlj6aUHiGogeeysPcuGYALYQAIXLgqh0RooPVjK5JUQgAAAAAAANA9qpcyNnylDtTjcaw+mus2nhICuBAGgMCFm3jqniSPCNEwixa+Jb09x4QAAAAAAACgayxf+m9ptRYIQQ0cT+vMJ2UALpQBIHDhtm+fSqk+LEQDrRsbEAEAAAAAAIAu8busHdkgA7VQcnt2XfuyEMCFMgAELs7Cvs8neUKIhlky9M70tB8UAgAAAAAAgI63dPGxtHsWCUENnEr73MdkAC6GASBwca7beC5VbhGigSZGp0QAAAAAAACgw72atSPvkoFaKOXO7PgvvxUCuBgGgMDFO/HqnUmeFaJhli/ZkFb7Z0IAAAAAAADQsYYWPZDe3uVCUAPn0pq8VQbgYhUJgEty8//5f1LKfiEa5uy5V3Nu8qwQAAAAAAAAdKSB/gVpt3qFoAbuyu4t/5cMwMXqkQC4JL2tOzKZG5JqqRgN0tc7kL7eASEAAAAAAAAALtpUqtYhGYBL4U8AA5dmx+bjKdUdQgAAAAAAAADABajK/8ieTY8IAVwKA0Dg0vW2bk3yOyEAAAAAAAAA4LxUyfRhGYBLZQAIXLoPbHohqe4SAgAAAAAAAADOy9ezZ+tRGYBLZQAIzIye1keSnBUCAAAAAAAAAN5EyYdFAGaCASAwM3ZsfjrJ54UAAAAAAAAAgDf03eza8n0ZgJlgAAjMnMnpA0kmhQAAAAAAAACA11GyXwRgphgAAjPnhm2PJblHCAAAAAAAAAB4DVXuy64t3xECmCkGgMAMnyrlQJJKCAAAAAAAAAD4E63K7X/AzB4rEgAzaufmHyf5hhAAAAAAAAAA8Eceyitb/kkGYCYZAAKzcbLcJAIAAAAAAAAA/IGq7M++Mi0EMJMMAIGZt3PLD5PcKwQAAAAAAAAAJEn1i5w4/WUdgJlmAAjMjumyXwQAAAAAAAAASFLlUPZdOykEMNMMAIHZcf3mbyflX4UAAAAAAAAAoOGezYkzd8sAzAYDQGAWTR/WAAAAAAAAAIBmKx/Jvmtf1QGYDQaAwOzZteWrqfKgEAAAAAAAAAA01Is5N3mnDMBsMQAEZk8pVVI+LAQAAAAAAAAAzVR9LDdec0IHYLYYAAKza+LJLyV5VAgAAAAAAAAAGuZk+tp3yADMJgNAYHZt3z6V5GYhAAAAAAAAAGiUKnfkA5teEAKYTQaAwOzreelvU/KMEAAAAAAAAAA0xJlMTn1MBmC2GQACs2/H+88k5VYhAAAAAAAAAGiIu3LjNS7KAWadASAwNyYXfDLJ80IAAAAAAAAA0OUmM9X6iAzAXDAABObG3g0nU/JxIQAAAAAAAADoaqV8MXs3PS4EMBcMAIG5U1W3JzkhBAAAAAAAAABdqkrVOiQDMFcMAIG5s3vri0n5GyEAAAAAAAAA6FL/mN3v+6kMwFwxAATm+tS5OclpIQAAAAAAAADoPq2DGgBzeupIAMypnZt/k5LPCgEAAAAAAABAV6nKv2T3pvuFAOaSASAwDyfP1MEk54QAAAAAAAAAoGu0p/aLAMw1A0Bg7n3wmidTypeEAAAAAAAAAKBL/CA7t/0vGYC5ZgAIzI+p6QNJpoUAAAAAAAAAoONV5UMiAPPBABCYH9dvfTjJV4UAAAAAAAAAoMMdy+5N/ywDMB8MAIH5U1U3JamEAAAAAAAAAKCD7U8pfvcNzAsDQGD+7Nl6NKm+LQQAAAAAAAAAHerRjD/1DzIA88UAEJhv+yUAAAAAAAAAoDOV/dm+fUoHYL4YAALza/fW76XkfwsBAAAAAAAAQId5KseH/k4GYD4ZAAJ1OIoOagAAAAAAAABARyk5nH2XnxUCmE8GgMD827XpG0mOCAEAAAAAAABAh3guC3vvkgGYbwaAQD1UOSQCAAAAAAAAAB2hqj6a6zaeEgKYbwaAQD1MPHVPUn4mBAAAAAAAAAA190paZz4pA1AHBoBAPWzfPpUy7RZAAAAAAAAAAOru9uy69mUZgDowAATqY2Hf55M8IQQAAAAAAAAANXUqPedukwGoCwNAoD6u23guVW4RAgAAAAAAAIBaKuXO7PgvvxUCqAsDQKBeTrx6Z5JnhQAAAAAAAACgZs6lNXmrDECdGAAC9bLv2ldTVa5LBgAAAAAAAKBeqtydD17zpBBAnRgAAvXT27ojKS8LAQAAAAAAAEBNTKWnHJIBqBsDQKB+dmw+nlLdIQQAAAAAAAAAtVCV/5EPbv65EEDdGAAC9dTbujXJ74QAAAAAAAAAYJ5VyfRhGYA6MgAE6ukDm15IqruEAAAAAAAAAGCefT17th6VAagjA0CgvnpaH0lyVggAAAAAAAAA5k3Jh0UA6soAEKivHZufTpXPCQEAAAAAAADA/Kj+Z3Zt+b4OQF0ZAAL1NjV9MMmkEAAAAAAAAADMuVIOiADUmQEgUG83bHssyT1CAAAAAAAAADCnqtyXXVu+IwRQZwaAQAecVOVAkkoIAAAAAAAAAOZMq9ovAlD7o0oCoPZ2bv5xkm8IAQAAAAAAAMAceSivbPknGYC6MwAEOuW0ukkEAAAAAAAAAOZEyV9nX5kWAqg7A0CgM+zc8sMk3xUCAAAAAAAAgNlV/SKvvPrfdQA6gQEg0DmmywERAAAAAAAAAJhVVQ5l37WTQgCdwAAQ6BzXb/52Uv5VCAAAAAAAAABmybM5ceZuGYBOYQAIdJjpwxoAAAAAAAAAMDvKR7Lv2ld1ADqFASDQWXZt+WqqPCgEAAAAAAAAADPsxZybvFMGoJMYAAKdpZQqKR8WAgAAAAAAAICZVX0sN15zQgegkxgAAp1n4skvJXlUCAAAAAAAAABmyMn0te+QAeg0BoBA59m+fSrJzUIAAAAAAAAAMCOq3JEPbHpBCKDTGAACnannpb9NyTNCAAAAAAAAAHCJzmRy6mMyAJ3IABDoTDvefyZVuUUIAAAAAAAAAC7RXbnxGhfQAB3JABDoXFML/ibJ80IAAAAAAAAAcJHOpeSwDECnMgAEOtfeDSdT8nEhAAAAAAAAALhIX8yuLb+UAehUBoBAZ6uq25OcEAIAAAAAAACAC1Qlbbf/AR3NABDobLu3vpiUvxECAAAAAAAAgAv0j9n9vp/KAHQyA0CgG06ym5OcFgIAAAAAAACA89c6qAHQ8SeZBEDH27n5Nyn5rBAAAAAAAAAAnJeq/Et2b7pfCKDTGQACXXKaTR1Mck4IAAAAAAAAAN5Ue2q/CEA3MAAEusMHr3kypXxJCAAAAAAAAADexA+yc9v/kgHoBgaAQPeYmj6QZFoIAAAAAAAAAF5XVT4kAtAtDACB7nH91oeTfFUIAAAAAAAAAF7Hseze9M8yAN3CABDoLlV1U5JKCAAAAAAAAAD+TFX9dUrxO2WgaxgAAt1lz9ajqcq3hAAAAAAAAADgTzyaiaf/UQagmxgAAt2nTB8QAQAAAAAAAIA/VvZn+/YpHYBuYgAIdJ/dW7+Xkv8tBAAAAAAAAAD/4akcH/o7GYBuYwAIdOvxdlADAAAAAAAAAJIkJYez7/KzQgDdxgAQ6E67Nn0jJQ8IAQAAAAAAANB4z2Vh710yAN3IABDoXlUOiQAAAAAAAADQdOXWXLfxlA5ANzIABLrX8c33JOVnQgAAAAAAAAA01ispp/9GBqBbGQAC3WtfmU6ZdgsgAAAAAAAAQHPdnl3XviwD0K0MAIHutrDv80meEAIAAAAAAACgcU6l59xtMgDdzAAQ6G7XbTyXKrcIAQAAAAAAANAwpdyZHf/lt0IA3cwAEOh+J169M6l+LQQAAAAAAABAY5xLa/JWGYBuZwAIdL99176aKrcLAQAAAAAAANAYn80Hr3lSBqDbGQACzdDbuiMpLwsBAAAAAAAA0PWm0i6HZQCawAAQaIYdm4+nVHcIAQAAAAAAANDlqvI/8sHNPxcCaAIDQKA5elu3JvmdEAAAAAAAAABdq0qm3f4HNIYBINAcH9j0QlLdJQQAAAAAAABA1/p69mw9KgPQFAaAQLP0tD6S5KwQAAAAAAAAAF2oqg6KADSJASDQLDs2P50qnxMCAAAAAAAAoNtU/zN7tv4fHYAmMQAEmmdq+mCSSSEAAAAAAAAAukgpB0QAmsYAEGieG7Y9luQeIQAAAAAAAAC6RJX7smvLd4QAmsYAEGjo6VcOJKmEAAAAAAAAAOgCpfy1CEATGQACzbRz84+TfF0IAAAAAAAAgI73UI5v+n9lAJrIABBo8gnof4AAAAAAAAAAdLqSv86+Mi0E0EQGgEBz7dzywyTfFQIAAAAAAACgU1W/yCuv/ncdgKYyAASabbocEAEAAAAAAACgQ1U5lH3XTgoBNJUBINBs12/+dlL+VQgAAAAAAACAjvNsTpy5WwagyQwAAcr0IREAAAAAAAAAOkyVw9l37atCAE1mAAiwc8vXUuVBIQAAAAAAAAA6xosZePVOGYCmMwAEKKVKyoeFAAAAAAAAAOgU1cfyf1/7Ox2ApjMABEiSiSe/lORRIQAAAAAAAABq72T62nfIAGAACPDvtm+fSnKzEAAAAAAAAAA1V+WOfGDTC0IAGAAC/Keel/42ya+EAAAAAAAAAKitVzM59TEZAP6dASDA7+14/5mk3CoEAAAAAAAAQE1V1V258ZpnhAD4dwaAAH9oasHfJHleCAAAAAAAAIDaOZdW+YgMAP/JABDgD+3dcDIlHxcCAAAAAAAAoHa+mF1bfikDwH8yAAT4U1V1e5ITQgAAAAAAAADURpW0D8sA8McMAAH+1O6tLyblb4QAAAAAAAAAqI1/zO73/VQGgD/2/wFl2yYCXNIu9wAAACV0RVh0ZGF0ZTpjcmVhdGUAMjAyMS0wNi0wNFQwMjo1Njo0MiswMDowMF2ZMzsAAAAldEVYdGRhdGU6bW9kaWZ5ADIwMjEtMDYtMDRUMDI6NTY6NDIrMDA6MDAsxIuHAAAAAElFTkSuQmCC;fontSize=18;" vertex="1" parent="1">
                    <mxGeometry x="10" y="325" width="74.8" height="40" as="geometry"/>
                </mxCell>
                <mxCell id="6" value="Parsing" style="shape=image;verticalLabelPosition=bottom;labelBackgroundColor=#ffffff;verticalAlign=top;aspect=fixed;imageAspect=0;image=data:image/png,iVBORw0KGgoAAAANSUhEUgAAAT4AAACfCAMAAABX0UX9AAAAe1BMVEX///8AAACXl5fExMSxsbGQkJA1NTUgICBsbGwpKSmTk5MtLS1nZ2cXFxckJCTGxsaEhIQbGxs9PT1TU1Ofn5/4+PiLi4t5eXlCQkJxcXGoqKi4uLhKSkpbW1vr6+sPDw9XV1fw8PCjo6Pf39/U1NTi4uJ/f39AQEDX19djjJ1jAAAInElEQVR4nO2c2WKqOhRAy1gHKojMoyJy/P8vvGRQEROIQdvSu9djS0KymnEn9OMDAAAAAAAAAAAAAAAAAAAAAAAAAAAAAAAAAAAAAAAAAAAAAADgvfgYwWdTtcWr31ui9/FMXQVy0w0ntAiJSIJKIRSvKsG3ktCqho6RTndo50oXkQxj+qw2+eU/gH9X3XxiF/KUe0Ra1Kz1Fb0KV1My69v7/+lThMYrNuevXl5fIqlmre+jX+XPo3RWBs3in+NhdKGs5q3vmJC6Oi6thiqdFUlvnp9Ldenx85x5b9QmrkYpm56OA8/OPn4StBi27Gt/DTWp/0EyuYZT5y8t0pzw80mDUIJTey8t0qzwJs2901L/Aaa1HzLx6i8t0azQsQBDMvUv1ecXthdbuRUm9et29kz+or5k0a5sy+3nZrkxLf0sOy+K8Of0FahMX8jd2jRd1/0XJ6n8tmCMv6ZPN5WyvNmLsiyzvCp91wJ9BvpOtZamqWafxx0cLKVvb7fbW6q6ElmiH461jV6VprZoj/8GfeqCg8CCx69jd3uJRmzMnTNYrWOE5PXt5flCXQXJ4BxyDqzIXG7La+RjGQVngVnn/fpShctpLP806ydpBp4+LVt7D20vzy2rMYJmaGN/YBYvH2+y79en8vWNbHb8+DHJgL6TwrO3iB2nCQ1+a9I4BRz6Y2F+sz6LkYTf4Q87ds9F9sKmacKYvzng6Rv19359iay+oPPk9hKj5I99Ybftme6/qGOv1ReGsZXy0nb1lZ/deOjI+PwNU8flEK6LOa7vSCvgOjY5GCw0z+GPRtrN3nodIWt5drPnNHG8sHLeYEv0Bf4V21nT1w/X7YcWLsG4PocU3xNbsvnZdcWyjAw9bRcgx2p/tecErT0r500fRN/db0906Biu3DR9pIrcPjGWcFDfTqTzXElv673Gbldvut1OFEV4tWfErb18xwnsMvR9fJBYnjXyWoQjWMg+ocAQxmRcX4FPEtaiG9a9crHnoaWvTnp54SyoPbVp7e2zgJ2aqY+EkteDrZ8kDAUL2eNAlmUSW0oBfXh4dAXzq78uPZfY0+gi5UTtrVSntbfLIvbihanvYzteOzJAZ3JRCdLzNxIpx/X5+E9TCh6jeDRKsGywPf1aHzsk9rzVvrWXuexXsvWR0W947fwpO/q3HZ/scUbXlgwExj5S+J1YfruSzLlZiu11qhwQe5WK7GUme/Jg6/ME1DT4mVJ8+LcNdEwWODndIC5lohkC+uhmLxJqfwoZ99aGjewlnQWK5iB7XuXtW3uRuWD2XrY+0rmGI/HFkhTzy3ICkePD+xsy7YJW6o6MgD4/Ii8orbQ4jOzeC4WultvG19rrhgdOAbaXVG3ji1yTPUyx9bF/2qPuXzoYLurp/uFQLpImoO9yiIowLSMZii/YCrFnEXvd/nbwsD29yqLIdU32RMoWZeOfrkaqUvR25sNxkO/T14/VmBX3XZqC97mmge1V3ZHIT1RkT6+Iva/X6wuf0dfvvEupSLiQPlr+jkDeMJ6WJErgpcied6dPx/ZS1UX21uyLIRP0Hde9Qo6MM2m7+0Zcpo7hdSUHMX0fRdAr24L9nPZFYiwVtqfe66va3pxqjYnsLcsX6yuovXIfYyuN6BzsH2gsRWbHJ6gPDV3Wuuz4Y6+S6i22t2v1VZ636t5YPCSo7aXa3kT2NtsX66NXzKqxyY0FuaP8nmXzjVOtVeF1fmNugk9bHN/bV8ieanQ9FKjtpVriEnvmEzOviL4NsSdUkT6HSGCwZPKMPsKJLFAVdvNZ4jO13EP2VkHQGY9rbE8L18jeZ2k9se4T0Ecm0kjyKJlMOhIXzZ7Xd427MqeP3EWx5VxF9ozA6QxAqY6O6XTc9j63nJFGWt+kkAEN270nYMV7G3P2SFwcWzaIvSa8NocTbnt2vsT2vjhlldZH1lacOM4o0uFSKX0HnMhk/ercNr59ngfEXhN7tI/6beNr7YXUXskJHkvr+6Fos5Q+H0/BW+boFeNzDQfZaxtffDlD1lDjs4PNxV7Mzvn/oQ8nWjN/p2XoXCPEbS+M40WO2h9ue3ZqfVJ7Zcm5hD1PfU/OOaSs7KvAfojPNS72LCsP6zO+cBFE64s97hg/N32NhL4jiQ1xAkh13trDx+EhtpfvsjxuQstc3+xxr/LPTR+JUjzzPYNPz2K58efKIue5pO2hyDwKUJlmxx63oDPTR2+kD+6Wi6Yx9LrAE4Vfq5cPD7knX4cg7tnLcIzlOu4NHJrNTR85Jh98ZqGwGAhQHJzQcZwF195u7I7LbPQdlFF9/sPlKtx1h8JjxcoJjJBnzxzY1M9MHwkkDx4DPXxsiIiGg4uFF6wMpr12wh7alw7pG3TzM/oaZnHvOJaP8savHKSqt7J2DHvDNSTHtf3s6/Ha/Yi+wz+cbnjVbMfZsqNwubBF4hqnhJ6pdewpiju2REIf2Af9/H30U3UwkPcj+kjshB16u+dU22jpq9Xi0chjmoQoME/tlUKtVpZp+uQ+yqLfYcperBnPv9YX0XKD3ZXuwn7jlzHTPsqSSk1vxshEWcXfcU4DFELQ7fd+Mzztoz4S7hq+w1X0qqDRAU3+G+xfhCUwiPOh3XBoOeG3b3DDpMAfl/l+ermwzA6czAx6A1a6hZPk7oC/612Bdbbf3c5El+/sut/Fkf43A+kM6A3aMl+hI4VU1x6ssPde5oztFRqpq3o56ZafA+u+l4dTS+beaz/nfwKx6ddmwj8Sevhqoy+mcD77j3DuKM6Eh3+DM2kOdEb0te9LLfO2gd3s0nd+YPt++vomLl+1/V1u7DXqOdWrlRN4ujbnbou5vyO1kzil7VFU4aLdp2P+xGpuGJVW1bLC6mUzoP/a/wn4m/kfVRUAAAAAAAAAAAAAAAAAAAAAAAAAAAAAAAAAAAAAAAAAAAAAAAAAAAAAAAAAAAAAAAAALvwHrgCqhrISvKsAAAAASUVORK5CYII=;fontSize=18;" vertex="1" parent="1">
                    <mxGeometry x="150" y="315" width="100" height="50" as="geometry"/>
                </mxCell>
                <mxCell id="7" value="" style="shape=image;verticalLabelPosition=bottom;labelBackgroundColor=#ffffff;verticalAlign=top;aspect=fixed;imageAspect=0;image=data:image/png,iVBORw0KGgoAAAANSUhEUgAAAvoAAAEUCAYAAABauZK6AAAy5ElEQVR42u3dP2wTef7/cRcUbMieOMhKW1BsQUFBQUFBQRFpC6RD8Rg7EdqvkwsSp8uS7FecREFBwUoUKVIgne2NvqJIwemcQJGCgoKCgiI/XW4vBTqlSJEiRYoUKVykcJHf5z3zmWQ8GdvzmRnbM87zIY1CnPH8+djYr/nM508uBwAAAAAAAAAAAAAAAAAAAAAAAAAAAAAAAAAAAAAAAAAAAAAAAAAAAAAAAAAAAAAAAAAAAAAAAAAAAAAAAAAAAAAAAAAAAAAAAAAAAAAAAAAAAAAAAAAAAAAAAAAAAAAAAAAAAAAAAAAAAAAAAAAAAAAAAAAAAAAAAAAAAAAAAAAAAAAAAAAAAAAAAAAAAAAAAAAAAAAAAAAAAAAAAAAAAAAAAAAAAAAAAAAAAAAAAAAAAAAAAAAAAAAAAAAAAAAAAAAAAAAAAAAAAAAAAAAAAAAAAAAAAAAAAAAAAAAAAAAAAAAAAAAAAAAAAAAAAAAAAAAAAAAABuXSVO37S6Xa0uiD5ZuUBoAoRku15dHJyjglAQBACnw3VRu9VKosXipVj9RyfGmy+ppSAWBcWTBZ/dH+DHGWzyOlym1KBQBwbgK1fPGNFisPR4qVxyPF2kt3GS1VF+Txb4q/3blceH25X8c0UvztvvpC3vN8OR9fKlYPco9WLvKKATAK+sVqveWzpFRtqs+8inz2UToAgOEy/usFqeGSW9nqC2/b9wXYcRkpVXfkS7Nnod85ttft9j9aqpR4AQGEJZ9VJ3cFgz7Ppmq3KCUAwFB84Y2UKi/UF9y+SbgPWi4Wln9I+vi+/en/xkaK1S8d9z1Z/cgrCSAsuSvZpfKiIXctKSkAQGZdmqyVkwj4vQr6TofbcHcXvin+/RqvKIBQny2l6ma4z7XKU0oLAJApTofW2tukAn4vgr5JyLdr4Iq1l7yyAEJ8ttwy+mwr1p5RasA58O9c7rlaPkddfs/l6kkfk9rmvTjHJEs/y2Azl2OElBSE/K5NYQYc9E1Dvl52eXUBdCMdbs0/36jZB85D0F9Ry3GMZbcHxzQb85iO+1wGn3knDZB0ai1VP/ci5CcW9B+tXBwtVTYM990cmazN8QIDCBH0b58ZvSvMMlkrU3oAQZ+gT9BPLZlgqlchP6mgb9qkSDrNyWhBvLoAQn/ORLtr2Px2qnaX0gMI+gR9gn7q6FqsZpqDvtTKm4Z8vngBRCEjekUI+/t0/AcI+gR9gn76arB62GQniaD/balyo9241m2b6xR/u88rCyDy56JTs79rVMFQrH6RZpCUHkDQJ+gT9FNB1+YfpzboO30Htszay1af88oma76e/zK/au1GWtRzKcFTT1Yn7kQuS1nWrCVKsT9GHyzftJsAGt1NrLyg5ACCPkGfoJ+OLzJnttvUBn0Zvs5wXx94VXsQ9J2QeRxxYdQjj1/qhfEYZSnLCqXYx8oQw2aDdjNIZs8FCPoEfYJ+GkQaYaLTjJHOqDgf1LIis9Lq3w+jBH1p72pYm3ZIG1mCPkEfPfic/GDyWSife5QaQNAn6BP0B0q3fY8d8J0wX7nXsW1qhHar9sWCyYUGw2gS9An66AGpqDDsJ3Q8Uqw8puQAgj5Bn6A/MKPFysPYIb9YfdOLzmfGM1SWqlt0giPoE/TRKzLDttmsudWDy4XXlyk5gKBP0CfoD+aLq1R5EbOpzk6vwvVoqbZuVptftXhFCfoEffSKhHZpHmhWq197SckBBH2CPkF/IKQ2PlaNfrH2rBfHFak2HwR9gj56XTliWquvLgyo1QcI+gR9gv5AmLaB9y/fFH+705vjMpsBd7RUKfFqEvQJ+ug1Xat/RK0+QNAn6BP0sxD0PwxyttvAY3ImqTGZpXePtvkEfYI++iXCkMSH303VRik5gKBP0Ee/g/7ntAV901vj1JYR9An66KcokwyOlqoLlBxA0Cfo49wHfdMp53txDCDoE/TR5XNqy/DzcptSAwj6BH2c66A/OlkZN6vNr34Z1tfm18/jF36uF3745Z8TNyQYyvLz6oOb8tjf1gt979yX9aD/v/8oXpOym3/34K6U5ZPViTvy+1//OTFG0E/wPap+l7Ie9s/OKCOWyecb3zoAQZ+gj0TJl0u7JUKtlG8M/crDTtt3l9DHajwKUOXpMLxGEtwXViesJ6v5109Wrc8qyO2HCHsNtXydX7Pez68VnklwleAVK8y/+9P3bmDzLyGPqd2y32677vJoZfxiIhck76ZGn9Tz99U+F1V5flA/d0IcX9Nblr/U87cTCfSeANxalvmnsYL+mvWxU1nKeyHxCz23XNesJXUMn0K+H6Ts15/Uree9OKZB+sNU7XqkOUcAEPQJ+khSEjPfxl1CHej4rxdkghmT7cqXbVZfFwnlv6wVSjqMNmPW8LrLgbpQeCNhL8oxPVnLzyZ0HMaL1ARHLUu5SJivWw8lAKttHSVyTGvWnlwszL/LR36PSc37gMozse8TfdG0nki56jIdlhp/aY5jOO9IQ71ZL/KtBBD0Cfo4d0H/0mT1x/PS5nV+NV8OWdMcZ9mSuwTDHPTtgO/Uju/38NjkImwlyvFlOejbF06r1navylQuSOUOUrY/W2tLxpMMMrEfQNAn6ONcBn3DL00Z4i5rr4XdRrye/9Ln0PdJmpAMW9CXi5iY/QZMl8aTumU0ckoWg768V/r4Hj2crxceZ/eztXLP/POw9pZvJYCgT9DHOQz6ZrfBszZJlm4C0RhQ8GtIiB+GoG+3FZfa4AEdp9p3XY5hGIO+fv37/x6t59+GLdM0kbHxDef8sMfUZ94PgKBP0E/Y3NzcklpWMrIkems3C0FfT5Jltl31nOyEfGshwXb4cZbFLAd9aeqh1t0YeDlKjXeIYJqloK872aa+TFNYkWI8oMG3U7W7pCaAoE/QT9Bf//rXXbUcZ2RJdAKoLAR9Gb3HcJt7Wfls0G2dj1O0LGYx6MswmD1sMx6hZj//odsoR1kJ+jLaUyrKNYNhf6RUqRi302eSP4CgT9An6J+noG/6ZTlaqq1nIuS/K9xKbBSYRJd8OUtBXwK1HnY0ZeVovch60H9SL7xKVZmuWe8zFfQna3MRPhNppgoQ9An6BP3zE/TVOpvDViMm4VRGvklhOLXb7AcNcZjWoD+/ln+Z0nJsduronPagrzs0p7Bc85mZH2OkVLkd4TPxiGE2AYI+QZ+gfz6Cvoyfr774hq0j7iBDc9TZVdMY9O2RilJ5V+RkWc9i0JcLPXvUm3SW6VGc+Qv6SXfINf5MlAsEkhNA0CfoE/SHPuiPPli+GaEj7q20fybYM63GDDsyuozUuspMrfayZt2T5iIJbNuujfbX6qcx6CfcfnxHNwH6mujFQ5tQmuagb48elO4L0fWsfP+rz6R941lyS9UFkhNA0CfoE/ST+BJa6bDsxwnwI5PV9122by8dg36pUjLdr9Sipfnz4OfVBzdjhpzNrm3W69bzpNuYz797cFeH06AlzrCLjQ7btRfpbOs/T2dCrNi1zg17Ui1fJ0/ZtsxMnMTEZdLOPTDo1wuPA8/XmcE31gVLx/Jcs5Y6XoQ6r/Nx2he5uM3C9/9IsfrFPOhnbx4QgKBP0CfopzDod7kI+Bwn6F8sLP8Q+0uyVHlhtN9i9SD9tfn2bK2Ra2P/tl64HGo/MYdElNptgzsUu/0aBca1UC/8GL8JSOFW59A7NZpAX4otk/P6pV4YT7rZldH7M/6FhjNjcD3/1j4Xz0WUXLDZd55kbPy4Q8pmpGOurtAwDPqVDZITQNAn6BP0hz7oy0yRhvvdSvvnQcwJneZCv6+dISfjhKlGmoN+AnctFkOdmzM6UqzgG/bibNBBP4G7TbLsP1mduBOyXOPcMWkG3elJm9HJ6qsIn5+HJCeAoE/QJ+ifg6BveAyT1Y8ZCPqRh4LsNIpLmwAeawKpoNF30hL047ZxDxNGT/YlY7j3aV+DDPoJ9Hk4NHmP6s7UB9GbRVmpb8secYjN48uF15dzAAj6BH2C/pAH/V3D/a6k/fMgTtCXGtd+huGw+xtQ0P/Ur1p2qf2PFfTX8rNZCPrza9ZevEmtCo+N/z/E6+T9KfU1+uYT/mVmUAEABH2CPkE/7jEcme23spj2z4NYkzutFZ6Z7EtqVyU4Rl1C9wcYRNB/V7gV59z6GEal5vl52oO+3HWIud/tbrMBB9GdqqN25j6S56c66E9WxiMNZlD87T7pCSDoE/QTMDc3t6SWlYws1rkJ+o9WLg7j9PEyNGC/mkb08Zz6HvT7enEWd2jRtXzo9+Wggn78iceiT2T1ZDX/YVhH35Ga+YifobM5AAR9gj6GNejL882H9KzNpb1cZbjF+ENCWnNRak8J+gT9XoTtbrMXh9j36350UB+EKJ9jWam0AEDQJ+gT9CP7w1Tt+jDWgiUwLOTp6CbqoiENNZoE/SGo0Y/RKTbuaxjnboJcJAxj0JfRevgWAgj6BH0MbdCP2LY19UFfauJjhqrAJj26SdCLJ/X8/X4PO5i1oC/lI23S9aRYc3bQtMNmoRI4yVTMUXfSHvT1UKwDm6k2ZrOhdM+SO/7rhYifoSt8CwEEfYI+CPoZbNcavz10uAAtoU9qo8MOkzmMQV8urOzwbId5ezKog/l+z+Sa8qCfQEfchn4PRF2iz3CsLsIy8FlK0AcI+gR9gj5BP27Ql6HsMhH0ZcbVuEMZRpihVWr847SlzlLQtydkqlvLAwn2GQv6C6sT1sDLaIibfhH0AYI+QZ+gT9BPIuir52SlfHVb/eZggqf1UfY/jEFfaqdjDWF6Hmv04/ZBIOgT9AGCPkGfoE/QJ+ifCchzgwxJEoiT6MybhqBv3yWJOUHYeQ36MjQmQZ+gD4CgT9An6Kc76JcqpayVsw77zQEGpaYE0TjDdQ466MvcAjJhU2rDaNqDfn/6jBD0CfoAQZ+gz8y4zIwbPehndZIZuxlP/9vsn2nOI7XiWQv6OuTvpzqMEvQJ+gR9gKBP0CfoE/TPZ9AXf1svXH6yar0ZZO2+NOWJUrM/qKCvh4XcTX0YJegT9An6AEGfoE/QJ+if+naqdvc8ThtvjxazZr0fWOCvW8tZCfrqwqSe8PkftBn+8WC4g37hGUG/Rx6tXIz0GTpZfZ0DkJmgvxwz5DZ6cEzPCPoE/TQH/YgzSs4Oy+eGDIMpM98OokmPhM20B/0EAvHJhEsycZbcUWl7QTHkM+My6k7vRJ0Zd6RYe5kDkA2/53Iv44bq/+Zyo0kek9rmYsxj2ifoE/R7GfS/Kf79WoRasOfD+Bky/+7BXTv0r1qb/RpzP+1BX09+Fecc98MOMTr0Qb+ev0/QT1fQv1SqPCU9ARmxmcvNxQ36/8rlbiUc9N/HPKavBH2Cfi+Dvj4GasF8pOZZT3C0KLOCqp9HvWmvP3EnrUFfZvqNO9KQybCiwx707eZiMe+K8E0fbKRUuR3xM3SW0gOyU6N/L27Ql4uFhIP+bsxjWjfcH0GfoG9+DMXqgdnwmrXl8/b5IiPl/LJm3ZtfLVQSbeazZi2lNejHnX9AOj0b1XgPedB/tDJ+MeY+G3GGZx1mEQcVyNycIMC59q9c7vu4QV8tHxK88LiewPG8IugT9Htfo1/5arTfYrV+3j9vJPQnNDPsZoqDfryJsd49uEvQP1OmX2P161grlHII+hydjfL5+Yep2nVKD8gQFVT3YgbdplwwJHQsiwncYbAI+gT9PjTd+WC4XyZWaw2ncUbuOUpx0N+IE0pNa5/PRdCvW8txh2btxfs463cKLhVrz6J8fubGf+UOCZAlKhi/TaAWPfa4umobY2o5jHvRsZXLXSboE/R7HfRHSpWKURv9UnUnvTXthVKboRu7LlFrS3UH3sjhTcapT2nQ7+v+zkPQ1/0+Yt4FypeT/D8jd17sDugRJ3JLR41+bcm4r1GKP8cAtPF7LldOIOgfq+08jHoMKilfUBccHxM4ji8RLjAI+gT9CMdQeWq432Zqa9jjjGxiEBS9fl59cDNOcJMhPvsQvI2HD1bPOSToJ9sxVrfTb8Rtqy8zFScY8hvurM1Zrdkfmay+j/D5+SEHIFtUSr0o4+EnELKbctFgun8ZnlM60CZ0sbFA0Cfo9yno3zPdrwzLmcbPgJih+1OkfaqgHq8t+59CNReMPTvtu4LRqGIxA2lTQq3R/pwJzPoS9GO/ZqvWftT3aNzmO+7+5b0eK+Sv5p+eaXYWYSK3dNToV7fMPz9rSzkAmazVryQRtPXyPsyQm/oCYzaBUXbc5ci02U7ag/5f/vKXaz///PMPWVgePXp0uV/v11QE/ana98M0WkWsmmjDMCxiNsdoGpzXbsz23XXDcoy3v7X8rMG+FuOPYNTXoK9CceHxIO4AeWv2Jayb1sLLvAad5op4UrcWsva9P1KqNow/w0oVOjYDGQ36MtpNM8GwL8uOWt7omW5nPcsrXYPfSHJ/m7lcpGm50xz0kd6gbx+H4RCbI5O1ubSW6Xw9/zZGePraafZWPwlZepz9nk+alchEXmvWR+mLIE0/JOyeLCp8+mfqjXleshx0a2IiZR3z9YoU9O39xt9nU4ZbleDcUpZqkfkDOl00xr570fqa7kk/EZmTIaidvfQBcYaGtS+mdkLNf6DWz8pnaNTJshhxB8gwFViXEw76/VwaUUf+IegT9GMcxwezjmyVSlrLVNdYxglPO2Fmc5VQFTewPVnNh76oTzQchmhXL8eWSK2zCuDefghSbnYodYLnYXKB16yPRaL7NuywO/8uf71Xk7DJBZank3nUEaEacZsG9a02v/jb/Qifnft8+wDZDvoy6s1BRoP+sxjnTdAn6Ef8sqy9NJsdt/olzeWaSO33qrUl4dHu4PuucMtu7qF+SlMdHYL3+zkzbtzRfYyDfpyOzQNYpHwM7/x8GVTQd8rXep7yMt0N239koEG/VHlh/NnJXCBA9skY9BkM+Rsyag9Bn6Df76BvOrOktIlN8xjUejSRtIfTLZNz0s0v+hb09Qgx+xkK+0ZDXibSLyDG8Uizr4QmXevlsmHaqbrfRku1deOhNVPc9BCAWfBdzFDI31ff+j/EPF+CPkE/mkcrF9X2joz2P1W7leaylfbTqQ5RhjPHJjQ0o9GQmHJHIzM1+qt5o+ESExhiM/aFh9SYSxv7VJdt3XqY6s9Qw/5FtM8HhojUjsvIOVlol6+Wu3HPl6BP0I93LLVPZvuvPE1z2epgvJHK8LRmRRraT8JjP4O+LsPdjIT9rQjluTvoOwzSYTm1d07WrPdp/j/+balyI8Ln5jbfPABhP3Mhn6BP0I9fM2Y2jbzcMk97+do1pqvWdtrCU9SJiaSPQIwOlpEmudKdm5sZCPpH5kHfHkt+4E2J0hj2pVlR2pvtSBMc86GBq6/45gGGkB4KM20hfy/MOP0EfYJ+P4K+3M423P9hmtvp+8L+VlpCftzw1MMmSW1ns5Wx1ftURvEuKAznQbCHR+3dhaBRnwE9tv/XdDTXyb/Nwiy5pqOFZaHJIYB4Qfh+ikbjkbsMYwmfH0GfoB/zeCpfh2XirNawL0M6WvVBjwqTRHiyh/XsTTjdHWDt97EeBedFvDI2n+xJ3yVpDDroe96nbwZ5VyQzE2Y9WrloOlGWWn+Hbx1gyMmMs3qc/eaAAv6OjAjUowsZgj5BPxbjoeomq6+zVN4yWdQAmkhs+yejSuguxXY/g76n/Bq9aCYiIdeeaCretj5Fel84HXMbgw76Lj206U6f7zZ9lPH9s/J/eWSyahmPtqM+3/jWAc4JPYOuBOOjPgX8bZlNN87wmQR9gn6vg36E5jt7WStzZ6IrezSZwx4Hpz2pHe1VEwiZ8VRGmuln0Be6icmnBEfLee0to9ij0EQMq7pmfzsNQd+psJaO0PmnvR6VRy6ykr4Q7c9nZ+2t4WdV85vi36/xrQOcM3pyradq+dKDcC/NhN5s5nLjfToXgj5Bv+/HlJXmO8FByppLeOIkme10XWq++9XGWdf+bvYr6LfsN0bZScAMmjAs7vj2JrMN9zJcSxOcJF5feR/pOynric2mKxehqpyyMvut33dTtVHT4YCzMHgAgB6TZj16oq0l9fOjdJY1HD1nSz3vrVw4JNnJ1iDo35W7BlGX33O5e7wL+h30K/fUl9Bs1EW+8JI+ptFi5aHZBUftbdZfh//9R/Hak7X8rG4fvWUQqPbtJg8qnNoTWr2bGh3UOdg10s6dik8h71YcSlCXwCez/UY9dqlBl7b1evKnRpeOtlvSV6FTwLTvVMhrEXExnZ+gXbiW0Yb0DMibId8P+/YdFvUaSA15Ly707Db8coG1Zi3p1/kg9Cy36kJBZuM1mY05raKMtnNpsvoj3zgAzpCmNjKR1X9yudtSM+9fdBOgMUoKQ8OZPGvf4Ev06Nuf/m/o/g/Y7eBVeJbQ5l0kKEnzlbSPSiKBWQK1//jlMflbTy+aVBl59ykXA1kYxaXbeUkfAn952hc6A73AmxqV96P/uOzXWj2e9iEyo1WQVLcMg/5WDgAAOEw75Y4Uay8pNQC9Jk0FjTvhTlYtSg4AAO1y4fVlGSff4Mt0X+4EUHIAeilCvyZq8wEA8JNaeoauA5AW1OYDAJAQu1a/WD0wmSl3GNvqA0hJ0C9VNgyDPiPJAQDQ/ou1umD4xbpCqQFI2kix8th03PzRB8s3KTkAANoZ//WC8QgXDGMHIEEy0ZVhnyEZ9neJkgMAoOuX7G93pHbMZLZcmvAASKyyYbL60bA2f7cXc4wAADCUpHbMsDbtk3xBU3IA4jAdFEAqJaRygpIDACCsCE14RovVNxQcgMgVDJO1svEoO8zpAQCAuT9M1a6PlKoNw/b6ryk5AKZGS5WSYZNB+bz5yJ1EAAAiGin+dt/4y1dG4uHLF0Dozxl7hB3Tz5ltGRKY0gMAIIZLxdoz09vpMv41JQega8gvVV6Yfr7IzNxyx5HSAwAgibA/WX1tfEsdALownbvDbk44VbtFyQEAMKCwP1qsPKTEAHQjQ/Oqz4yj0LNxT9XuUmoAAPQi7Jcqi12/jIvVg9yjlYuUFoBQnyvFaj3UfB2lyg1KCwCAHurWcW6kVKlQSgBCB/3J6o/d+vxcmqp9T0kBANCPsF+q3JbZKAO/mGk/C8A07Ad/njRl8j5G8QIAoM9kynndbt9bu79JyQAwrjw4OyPuFjPeAgAwYKMPlm+Olmrrzi326gIlAsDUN8W/X9Oj6uyon7PU4gMAkCLSUY4JbABED/vU4AMAAAAAAAAAAAAAAAAAAAAAAAAAAAAAAAAAAAAAAAAAAAAAAAAAAAAAAAAAAAAAAAAAcrnNXG48zPI5l7soP/+dyx3/nsu97NXxqO3Pyj7kJ68OXD+MP7o4VpgevzJRvtNune/+9Oh7Wee7/PR1Siy6+Xd/+v6XemG82/JkdcJ+LebX8i/nV61jeWwoy0Of38/1wg8nj9ULj3+p52/3/7XJX59fzT/99fP4Bd6pAIAwwfo4zLKlshZBP5hbNnIxxDuqd8by01+uWtPH3xX+51bQ36/mZz7I3yXsU1rRPVnLz0qwDbHsnsegLz/1+W/0ap9/Wy9clvL0Xlw4x2K9T3NZy/HKscnxxzlvudjkfyIAJBRSvYsK2Huy+B9XIfYCQT+YlId7McQ7qnekNl+C/FWr/OnMRYAK987fptcpqZjB9t3UqAQ2d5l/9+CuHWxVyPQ+/r//KF47j0HffmzVmnPvaPSCHXbtMs+3fNb+vPrgZppr9OO+F9zzlotN/icCQG+C9q4sQX8j6BP0B00F+fdBtfbqsc9qaV6d+OkGpZQsTw32Si/CXRaDfq+1C/pZKSuCPgBkOOir5ZValtTS0L/vqb89DgjAd9TfvniaAG3IY1GCvnregnpsp9221P7f6mMf8x3znH78vmdb9+T5nm1tqfVKvueV5Hn+43Ufl5/uv9Vy6JZDu7JDMqT9vR3oVbB3HzutzS8v+9cfy8/cljsA+jlS478zZk3Peddx7hSUd68UpkuBj+enn55eUJR31TZfy778x3Heg/583Xqofq6rpanX3wqq9dZNg3b0Okd2c5QQTTV+WbPuSXMZb9MhfyBU21qSx/W6W3q9pn8fcjdC1pOaeTkv+zicdXfkPLoFffu5al8t60n7+TXr48m21qy9J3Vr4Ux5Ofvc9pzHhjcY6+Pa1387dM6nUHL+ln8qv7t3U3zb3Dk531Xrk78PwUnZ/HPihvzd3f+TVeuzPNY1xK/my559tBy3vM76uA/13/bdpl1C7kCo31/odZzn1/Nf3GP0vB7ueR/Yr6/n/eMpX/f99fVJPX+fT0UASD7oS8D/okP0M7Xsq6Wpfr/pW1ce25SLAL3ujn7uDZOgr577Wh7TYf6+bE+H6oYK4tf1Oo/1Oo99Fwif1ONH/83lRvXvD/V6clxzetn079M9DjmPdscn+9a/r+vHntGJuPecoH1aq3/Fmt5SvzekM653vT8++PNdHcZ3rlozC1fz5VkV8j/agb9QfnXmQkH9vWU/+nEV9F+eBn37YuFILfsq7K+on88J+jror1oNFd7e6iC/qAP2nreZiQ57Ei7rsp4Kws/t56nQ9mhl/GL7kF8ouaFUgrj+3Q79bgjW21/xBORF+1jUMbkXHu6xeM6paYfHeuHx/FrhmQ6azYV64ccuQb+lPPT2GnK+EsZ1Gaz7a+Xdbdnnr0Kq56KnKUHWcyG0qPexbv+u/xZ0LE/qhVfONvMfdJku6NDcaAnKp2WjQnSh4pSNtRymv4G+iJP1Pvn20ZSwLhdRLeesy/7kGFetN87jar9y3s7z9+0yU8+V5mLe85b1nfN2Ls6cTsj2+2THfq68XqvWpv+1AgAkE/Q/S5t9z3Puu0HX85iE+h03YAvdB6CplhWToK/+va2W974Af0+v91xv+7IEegn2nv1d1hcbb+V36Syrfj+Q7XmPS/6tHvsqNfPu42GCvudYaLrTR99O/DSmAvahWjavTvzZ8odxl74AOPRfALg1/JcLj36IGPT3/dsk6KtwpgJn6+N2DfKxW2urt9OUkNuynlNTfCw/2wdNO6y3XAxIx01ne/kP/jArNfq+oGoH2oXVCct3Ti19Opw28Cp01/NfTIK+7iTb9NeMy7HZNfwqyOrnfZULi5ZjO+kDcXpB0K7pjv9YdABunt2mCs/Oxc7WmaCvQrLvdbI7+P71nxNjbcvfqUk/9F606bKyw7v/+FruUKhzd2rnrTdtLh7m/Od95k6NcwHR8N7J0Nvd975WAIAEgr6/jb4O8CeP/yeXu92uLb9uMrNjEvSD+Pepn/teX0iM6QBe1mHdandB4jk3945AiaCffiqsv9ChWwL/vgy/2fL3iZ9uODX30xX/c90AP1YoP4sW9Msr56mso7bRd0fvcR/XNeZn1pPw7tbimh6bDpCf/WHW357+9BycUHrye0AbeB3Oj0/CeZig79Tmfzy7rYk78vxOo9AElW/ooN+mTJ1jKlTsv+mLj3ZlE6YPglycBV1AhX0vBAk6x6Cgry/opKnP24DXX86pyXCjANDHoO8GbF17vutbjuRvJkFf7h5Izb20pddB/mTYT++xSKD3Nt/Rwf/QHfZSN605E96956Z+viDop58EexW694ICuhP0nZr+oL9Jbbw3sBP0+xP0T5pv2M1b7GYf3uXYG9iDQ32+bDfdcZpwHHvbmHcL+m44d2v/OwZ93RTmNEx3Dvq6fXnb8vFy2qrb7ey3PP0CjiMHfX2+QbXxbvm7TVviBH1958DtVyCv14rcHfEH7HbvBX0x98K+o3Haxv44TNDX7f9P+iv4lsN+d5QGgHMf9D1heF0eC1pMgr769wcd8F/9J5f7UY7DbWvv3ZbbNEea7+h/S3+AN57tdA36/nMg6KeXbiN/7DbBCRv0rxTL1wj6/Q/6btBUYfu1/Rzf0mmkFbfm2m3b7k7aJU03TIK+W+s+qKDv1kBLW3QJ4PY5nDZhiRz03bsPgeWva+HjBH33IkXCvW4G5XbK/ert5Nz2vaAv0KRsT87bueDpGvRPHpNtBLxvut0xAQAkHPQljLdrIhNi/y1BWnd4lcD9utM+Pc9f1hcF9nbkWDzHbwV12PXuVy4gCPrZD/oyqZYTymcW/X/zjNLzgqDfv6DvBugoM8rqjpsbAY+bNd1RIbVb0HfbrBs23Tnyt/e3H9dzEtg1+U67+ZY27e3K1yDov2hXpm4fifl3hVtxgr4cu/zNf9fA00H6Taf3gt1Z1zm/Fy3PD9l05+RCSr92AIABB31dm37o7/SqQ/Gd/5fLXTMI+neCgr4nmPuD/l1Ps6F9b6dh3en2UEbZ8T6umwZ90c2K3Pb9D4MuCtRjiwT99Ad9Hcp37I6zU621nVes6bo8748PZuxRotyJuNTjLcMlXinMPCboJ9l0RzfBCGhrLbX0nUbd0Z14W5r26GEij4KCvn9YTzcQu0NntjsnHcYb3osKg864R2eGvXRqv5tS4+x2XpU7Gt517Fpy3/ZOyqpL0D/pEOsr05OOqqvWTreLoG5BX2/rTIdfPWTmsffx4KCvw3vdet76mtsj73QN+vrYv9rNdHzDsMp7QMqAT0MA6GPQ1+s+9gxjKWPOj0v7dz0kZiVs0NcXDfZQmvr5MqxlxdNWfzlgGztBFwf6uOb0sX6SkXv06D3r3hF8xL9yue918JehQ2f13YBlz369QX9Bb7PidvzF4IP+WH76vh5ec1PGyL9aKP+ox78/HrOmTzt+jo9fcIbLnG7IMJzO82YW9TCaBP2Egr4TfJ2hLqUJjjQpsce71yPieIfJPLsPXcvuDgvpBPcDd9hMf5h1Qm6+bAdH5/ikuczXgOE17W3azUmcGuot7+g8YYO+DtxygbAt23ECq9MZ1q3B18HYGUpTN1WymzGdtlk/2Z7UnuvHN+UiqOPwmm7fB1WOnvOwh570dp6N1Ub/ZBhOt6zseQrW/aP4uK+57Ms5bnWR4FwoHDhNd6znnmE9m/7Rmk4vhqzPzvOdYC/71OvvuK+rvlA4COoEDQDocdDXAbisQ/qxZ/z9JW9teregr/d7U3fEdbezo4O3BPGNgG280uvd7bAP73HtywVAwPla+s6Au962W3vvPT49jOfJ8fEuSkfQPw37M9t6hB49Sk/5hYR773rOmPvlXc96e/bY+wT9RIO+DruLLR1qZWKpLjOh2uO0u6PhuB0znXb7G77hK1fc8OiZfMkeJ94Nyy3n5ATOTy3b9Qz3GDboO4HbroXfbD3G/Etvh1V9F2Kr5dwl0DpNf7ZatqebOnlruIOOxS5T53FvJ+XtM0OMxgj6zj7spkDefRzIa+Bdz+50W89/cddxt6nLZrv1+JymP1L+Qcfpf+/osP/Vs40je92A/gkAgD6SpjpyMdAp4Ichteydmv14gvxKmBlq3ePqtI4cs6wj++62PX3BM8Yrnj4y0o59QTDeeRg+WUc661JiveW2+/Y3denGbgKj27wHXhD4wqwd6ANm3fW30Zca9E7bNRFmW3JMYUaKcbdlUqZhZhmO+7p1OyZ5XYNGApLHw7zmcg7t1nPLrlNTLwDAEF9U6Jr+V5QGcL50GnWnU9AHAAApJp12pU2+bnp0GKYGHgBBn1IDACDl9Ky3EvI3JPRTIsD5Y3f2lPHWuzRfcdr8W5+79Q0AAAAAAAAAAAAAAAAAAAAAAAAAAGDg/p3LfWaSKYSV9IRV301NjaptPr868dMNzz4+y366PVfG3D+PE2gBAAC0kNljZWZd/wRVBH0MMuhfnfizJdscs6bfEPQBAAAikJAvgf73XO4lQR9pCfo/jD+6OJafLtuz5hL0AQDAMJOZZT/ncqGmFlcBfUxq6pMM+rLN/+Zyo522pY7vgv/OQFjyvDDnp9e70O042k3MFfb5Yc9DyjlsWZ+boD8+fsEb0BPcR9ugL019vvvTo+8J+gAAIBMkcKqAvaiWAwndOpB/UiH2li+UL6nAvvmfXO5H9e9td10J651motUTWe3rdQ/ld7Wdkjfoq/3d825T779lm3IBoP62rJYjvV5DjqlboNbPe+N5XlMtHwKaEY2pZcWznvxc8QZs2Z8+n1l9Lsfudjzl2PA+33/hEnA8Z87D3Y+e8XfTU9YbarlxroN+fvqtCtfL6t9HutnNwVih/My73hVrekmts+t/vvv4lWL5mv37RPmO/Xt++mmnoC/hXj323gn2drjfvWrNLBD0AQBAqqkwWdfhuiKBWy0L6vc9HUBveMLnihvWpWZewq48Rz+23iHoz+oAbK+nn3fdG/RlmyrQvpC/qZ9v9fHUfRcjX+SYZD252FA/X+vnvul0fnqfTTlmubOg9yPntuvW7stP9fuWPC7ryfb1OTYlaLsh3FMGDf3vV3KB4ClHuYhY1BdDr/TzPwadh1qe6/24ZbgcUNYHejuz7vnKRdC5DvrWdHMsP/3lSmHmsQr5c+r3TXlcfj9dr7wSVCvvPu7eCRgrTI/bz81Pv2wb9MfHL+h9NK8WpitX8+VZtZ0X6vcGQR8AAKSWDqQSKJd84fiG1Dh7Q6obPuU5vnWllvmo0366Nd2Rv/se/yrh3/P8x/r5D33rSc34sTQ5CtqvDvAtFw36ec/dOwk6pC/o38u+i6AFXT73vWXgPs+zvft6vee+836h17/j24//PGS7Tfc83P2o51u+7X2Ux7s1bxryoP9Vwrf7mB45Z18te70I+les8kNnvzOL3m2pi437BH0AAJBabm1yUFtxt4babbrihk//eu0eNwn63bYptdhSC+5vpqOb/JwJzr5tHermNjc6rPNBLlb825faejlmN6h3KIM3OuiP+c77pvcCQJ/vYcB+7utgXwpT1lH7KAxH0D8brMfyM6/tv+lhMpMM+rqZ0LG/PwBt9AEAQKrp4NlscxEgTVeO3bb6gwz6Oqg39U/v4rb9f9Zh35bbnl73A5B2/nd9+5M7CLshyqtdGbhNkPzHt6cfXwx5HrME/QhB32nCcyzBPfmgH9w5l6APAACyEPQbGQn6e7p2/czib/rjJ3cldF+BFTd8yx0LT9v7rQSC/mGH47M857Hbbr2wZU3Q9z/udIztTdAvfyLoAwCAzHGb7gS1cVePv9ehcuBNd3Q/gMNuI+z4SVt2/5CaukPssrcNvO6we6ZpkDsEZogyeB+m7by+oDiIcUFB0A8K+tJJtsdNd9xhNQn6AAAgK0H/XlBnXAmS0mbdO8JLnKAvTWViBv3nOpg/9gd5t7lLmwuMkn7enO9xy9tUxtPZ198Z96HvgiDwXOV5enuv/BcKsg/3AsLtnOs/ZjkP774J+p2C/vRXmejKfSyoM67bZl/9vH3yZGf0nA3joK9nz71aKLe8tnTGBQAAWQj7LcNr6iYu0sSk4R1LP2bQH9Nt07eChtfstk0d6Lf1Npb0aEGz7pCY7cbx16PubLvDWeo7C/K8He/zvMNrShjX6z3Xz9vwD68ZsJ8Lnnb6y3qY0oduHwi3HH3n8ardeRD0OwZ9GT9/U9rle4fXlBluT0K4DvByUeAZhvOzOw5+hOE1NwKG1zwk6AMAgFTzTPR02G3CrKB27O0eD7igeKkD7knNub7ICLXNgAmtAo/TT8Kz3s+RZ+KpLypk3+6y/TMTXnU6Vx3ilzwTZsmdgE1//wE5nqDzkBF6wpZ1u+FEhz/oy0RVErJPJ8ySwO2fMEsH9uenY92rkG5PeDWz2G3CrCvWdN0/2dbZCbOm95waffVca3qJTxEAAJB6EiB7OUa77hQ7FvfCxN/u3uR53c7Ps/0LMc7TZD8XeedFMD5+wT/kZRBZx9vUJw5pJuRvqw8AAAAAAAAAAAAAAAAAAAAAAAAAAAAAAAAAAAAAAABkhAyt6Y7B3499hRk+FAAAAEBMzqy55d3+7Wv6mFIHAAAAEmLPhJsvz36Xn75O0AcAAACGxFhhelxCtoR9gj4AAADQR99NTY1KG3b5GfT4D+OPLnZ6/rcTP421awMfNujL82U7UY7TT47Xu16noH/Sfn98/ALvBAAAAGSeBN8r1vSSWurq3007jFvTR1cL5VcSkM8+Pl05E5IL/3NL/W1Dr3M8Zk0fXLVmFtzg7j7uXST4e4P+WH66rP69f7pO+ZM/8EunXfW3dc/xyM/3EtLPnlf5hfpbw11PHdMb9XPTH/SvWDP31LFue46tIedO4AcAAEDmg74O+3UVtu9fscoP1e9fddjetYP4xJ8tWdTfv9ghXYXyk+dP/HTDCdQz21cK0yU7OOdnPrjrycWC1OKrvy/qi4A3dlt9Hc51LXvTCfkzC07wLq/o/S+7+1EXDJf18TSu5KefyoXCWKH8zN23t3ZfP37sHrs+p8/uubrr/fHBzE297w3n3GXf0+/t9STsAwAAANkO+uVP3sd0AJZQvOdtriM17O5Fgef5UsN+1DJE5vj4BaeWfGb7NHx3arozfSQXDL7Hd2Q5/V1fKKhA7l1Ph3g5hxfyuxyv+v1QntvS1Mg+Jnubx6fbtGv9JdT/6F3PuaBpLRMAAAAgi0F/JfDx/PTb4PWnP8u/7dp63XzGv540B5J13eY3pp1x3QsAz+9f23XalbsBan9b9n4nynfsi5H89Ms22zz2XyTIXQa5Y8C7AQAAAOcj6Ld93An67drfexe3c27EoH8ctN826zbs/Tht/c/sJ2ibdu2903bfbe+/IU12mFQLAAAABH3n93W7HX7A4radTyDoN8MEfeknEDroazK2v7T7d5shOU2J/mzx7gAAAMB5DfqX9e/vu+0ngaDftumOjPLjNt0Zy8/cDt10p1i+1tK3IHcyss+eLLw7AAAAcC6DvvN7+ZPUgEsH3pb1ZDQeTydXN+hfKcw8jhb0nY6z0q6+JeS7TXWs6ef2A06n2z3ZpnckHqc/gT1qz7FvHw1/+3w9VOgR7w4AAACc26Cvx9BvOGPnTz93htK0Q/mhd+QaaR6jn7sp67jt4MMGfSeo2+Pd22P82/uRn05Tm6/eEXY84f+rDNnpLPaQoc2WoK8uROQxuRugjn9OH/uyf2hPAAAAIINBv7wrI+QYPl73Pia1+Soof/RMZHU4lp957Z+5Vgdzex0ZHUce0+P3f/Hvx5moq/UCQEbw0Z1nGyeTW6lAHjRijhPa7SY4er2ZRTkm/zZ12N/wdCCW8fwXmTALAAAAAAAAAAAAAAAAAAAAAAAAAAAAAAAAAAAAAAAAAAAAAAAAAAAAAAAAAAAAAAAAAAAAAAAAAAAAAAAAAAAAAAAAAAAAAAAAAAAAAAAAAAAAAAAAAAAAAAAAAAAAAAAAAAAAAAAAAAAAAAAAAAAAAAAAAAAAAAAAAAAAAAAAAAAAAAAAAAAAAAAAAAAAAAAAAAAAAAAAAAAAAAAAAAAAAAAAAAAAAAAAAAAAAAAAAAAAAAAAAAAAAAAAAAAAAAAAAAAAAAAAAAAAAAAAAAAAAAAAAAAAAAAAAAAAAAAAAAAAAAAAAAAAAAAAAAAAAAAAAAAAAAB08P8BA0/TRoRtKx4AAAAASUVORK5CYII=;" vertex="1" parent="1">
                    <mxGeometry x="-40" y="390" width="331.31" height="120" as="geometry"/>
                </mxCell>
                <mxCell id="8" value="Google Maps" style="shape=image;verticalLabelPosition=bottom;labelBackgroundColor=#ffffff;verticalAlign=top;aspect=fixed;imageAspect=0;image=data:image/png,iVBORw0KGgoAAAANSUhEUgAAAQAAAAEACAYAAABccqhmAAAgiklEQVR4AezBMQEBUQAAUMghjQxWAADQ5xdQggwWAGCzw0QNd/feSwEAAAAAAAAAAAAAAAAAAAAAAAAAAAAAAAAAAAAAAAAAAAAAABAt31khu5t2cvthM38cNYaXXi2ceqXFZVBfn/vVx2VQ+1yH9dd5ULuf+pXleVCZ7zqVcOrWOj927gFGkjSKA/h3Vsyzbd+trbHVg64217Zt27Zt294tnX1xcnz3vUwqGdZOrlnVb5LfW3v//w+Nm+1dDa94rc/hz8GxcgQHIfEJ4D61a/CVrwJOn9rBdoyH+l/VWQhKaTbIhWkg5bUDKasViGnN4W5KM7ib3AQQfh6/TsxsBVJuW5ALUkEpyQTVUQCyu/QfySfsEwOC/ZZXeJljiQxHfCGkk/sZpYOrrxy0/aY6i0AuSgcpsyWIKU1rhKHX17gSMb0FL5BUUO0FoHpLf7rlK+t2xml5imOJBgchMYer/a2OnkZf+e3nVZcFV+3yVTy1YthDL4Bq+I+XcpMAy0D0lJ671cH5BccSBQ5CYkr021t9FXRKqpDLV/pWGHpN5AsAJTUChIWDxwvJW3rrsldoyTGzw0FITIg9O7/+ddB+WbXmgJTRAsNeixALANWhADT46yklWSB6y85f5vcEVACEhNHtSZMe4Tf1076yF5av+GnNqgY+9F1ACAVQcUegCnkg+somLigre5RjZoODkKhRenV5Ww2U/SjnJ2PwUfQK4H+UAJKy24DotHx/zlf8KsfMBAchUaF08rTHyza8hcfQG6IAULuG+H1AtebCVWepm2NmgYOQiMIn3/An6axVLOla4A1VAFoJILkgBW45i9cMYOx+jhkdDkIiBs/7ql84IecmYdANXwAI7y1uO4oPbQ8GH+GYkeEgJCK+GtfpMcVnvSFltcGQm6YAEP6eJafl6uLiVk9wzKhwEBJ25St/2XUpqzXeppuuABD+viRb4dUKOwHaARACeOb3lx7Twm/WAtBK4La14BDeCdAdACHcV37bGtz2Y/DrWADIkAWgHQdu2ovWcsxocBASNkpHb1DOS8LQV2XaAkD4YqWLjgIPx4wER8IYcHX1w+k7h9RvvWXA1KStA09kbB/ye+bO4VBRxg596TuGhSRtx9BapW7Xl7J9yD0M1pW8TV/StkG62tVmKxoIQ2d3B8WSgWFPrAJAbRsCPrlpn8fyBseMAofpYfDbbhrQMXnroL+abOoNH6/pCO+tCsKbK73wxgpPJa8v1/facreuV5e5dL2i4+VlTl0vLXXoevEeXlhq1/X8Epuu52qyGAlQb7YAN9xFGPSELQB0syTzh3E5OY9xzAhwmFr6jhEvJm8e/Gu99d3gzRW+qoGPqwJAhiqAxRoBNvQSQExvmdgFgJIawxVr3iSOGQEO08LtfvNN/f5+e6Wfh9uLwl4AVAACOCY68BlyGHIqAA5fO3DAXvwqx+IdDlPClb/x+l5/a8EPbwFQAWjhf2OBAGf8Rfj8fiqACm5aMs4zxu5j0f+gDzzzN93Q55c6hJ/uAEIsgEEjbIArHhVAZWJKMzhUamnNsXiGw3RabOzXXtv21z38iApAT/XV3wYX3PmA4acCqO56XtKNGOwCaPX/Yn3nPyuGOm7Cb7IC6DnKhu+8W0sBUAGI/Nc9VJrXmGPxCoeppOwYVA9XfCqAyBQAhh89v1CAU9rqrwkt/KYrAHQzL+UMx+IVDlOpt77zhAiEnwqgyuqfP9munf01VAA1EFObwaqc5Gc4Fo9wmMr7qwKHqAAiUwAVH/ef19OCoY9ZAdzhoT7Woh78x95ZAMdx5Ht4HjPze8dsSmLH54jOkgW7ArPD7DAzk2NfbEdmCjOcMWASmSWLmWElmZmT2OH4//pXqa4ar1ar1ram1dM3rvr6OA+/r//dM7u7PHYYLblwCM08bwBNHfJrAvj7S4YNphUxQ6mQ/Xva0/svAKDyirEPMywdwWIUg5bdflQD+Y0NAH/013LtuGD5lQSgnZET/1uaM3QQTR38G+I8O/jX3TLn/IGUM3I4i8bv+iUAgQn+g4ouA70/eL1XXn6xAJy34m66buM8Wli1mtYFSqhuXzvtOXKAjp44TidOnqQDxw5T4/5O2tBeQS/WrKNbNi+moavu1SMAEuP/DfMmU+f4FOUBqPTF0sILB3PpxQLAGfQrWsiiUeWLUR4A/OfXXDzmFwxLN7AYhYT4QvLjH1/PpP+wdTsdPn6UTp06ReAkE16EYywO2YEyunnLYvy1XDn+L3ziCkivNAD5iVE0fcgAyB5xAMBz7O/nj7pIYQBALBVOSruZYekGFqOQEz+8/LdteYEq97Zy6e3yRwQmhtu3vuCuALwzmbbdMlFpAPLZOf73XH7JAICpg7pEwDH5eQCaJiTlMSzdwGIU4nKLByBpzZO0saMySHz5AHA2d1bR7z5+zBXn/6Gv30Cdl/iVBaDSH0fTzxvIRZcOgG0SwHFAWQDa0hO+u8Sy/oxh6QQWo+hr+e/e9jLO8o7Jz9l/7BDdvHmR9gG4Yv51EF5JANoZC4ezMz92/z4OAFg0dBAuBiG54wEA709M/zHD0gksRtGX8i+o+piL7ngAOA/kvyYgv+IA2M7/D0+7QlkAcuNHQH7Q5/JzckcOVxaAnHH+BIalE1iMoq/kf6M+V7n8NfsC9NtVD+i1+wPb+X/BwxeLB0Di+wDbR8fT3GGDHNv9OXPOH0DtaWoCUDg2+TaGpRNYjEJWfDC/8mNt5Ndp/EcAPrhtnJLdvyg5BvI7HgBQlHiRkgCUZcS/zLB0AotRyMqPMz8EjyQAeP5fy0TO31lL23bUUNXeVjwqlJVfqwBsuX60kgAsj7tQWQBWRl2gJAD1aSNzGZZOYDGKCMXnt/1hL/w4wZd3r9Xl0GV5mTRg2R1d3vzDB5MmZk+nF6rX0d6jBwXkl9j9FQSg5Oo0JQFYMvw8ZQFYMnSQkgDU+OIqGZZOYDEKidd68ahPWP7jJ0/QCzVraeiq+4Rf+z1/5T3sP7OOTpw4ISK/+vFfIAC1l6p5BPj8+QOVBWDmkF8rCUCDP24Xw9IJLEYBkSMAL/kIy99+aA929Yjf+b8idxYV7KyTll/1G4AIQOvEFCUBmHbeAGUBmMqITH4gJj9oTY47w7B0AotRRCA/pgK84SckP97tj/v4UakP/QAuufzurzYAzROdl58HQFp+gQBMGfhLuQCk9iIAidFnGJZOYDGKCAKAD/QInfd3H9lPo1Y/qYH8Eru/xCvAP3z7eiq51K8iADgCKNn9EQAcAVQEoD5lxC6GpRNYjCKSAOCDPSI3/TdtXighv3YBgOC9DsCGK9UE4IXhQ5QF4IVhg5QEoCYpqpJh6QQWo+it/PhILx7VhRMfrG0r1kB+xeN/iAB8eH2qkgCsiLtQWQDwGFBFAIoTo1YzLJ3AYhQy4z9E7w72s2IK5Fe0+0sE4N1b0+XlFwhAUXKssgAUJY5QEQB8O9FihqUTWEyi1wHAl3mEEx8U7qqXll//3V8sAPPvHOP47s9fBZ5zwSBHLwDBXP4qsIIA5KXEPcCwdAKLUQhIbxcY3+TTYwB+X7q01/L39avCRbsaFO/+oQNw1xOTlAQA5CSMcHz3z/vdcCXygxWjohMZlk5gMQoupyD4Uo4e5ZuUM6Or/IoDsOvIfvW7f1AAgD/zCupwePzndLApYNGwwY4FYPHQgRSAyIoCsDB+xA8Ylk5gMYneBgDf4dejfMM/uD9YfOUBAHitWEp+iQDw9wB++cZkahyvJgD4HsAqfxy+CqzPA/Ac+8/XpMRAdDWPAJOjvrQs688s74+jf3obAHyAp0fxfoVjA8Tu5wAMXXmv0vGfYw8AfhBk9VV+Zd8CDAoSo2na4AHS53/7V4IV2C7+lDwBSIrKY1i6gcUonAgA7g1+rkEAhq+633H5RQIw664MlQHgEcAkIL37Y+fn8qsMwPqk6HsYlm5gMQlHjgAXMvF6e9vvRACGrLhL0e4fPgCTpl5C7ZDY4fE/GBwHFg8bHHEAFg8bRDW+WHwHoFL5A/4YWhIf9QuGpRtYjMKJS8CJOTN6Jb9TAcAkIi+/ZAAYP339GiqeKLn7RxAAgIvB3IQR7PHdQOEAzL1gIG0YOZwCEBvyKw5AVXL0IU1/GMS7A1gbKO5RvGmlS8XldygAOw7vhej9HoAfvH0d/fCt62jubekSu7/87wDi576KkqNpZcxQemHYEHqePc+fNuQ3BPD3X2STwsrooVSUdBH790J6jvoArE2MmsKwdASLUfT2J7rmV30k8CJQg7D8nOfLV3ZP2bm807Cx5/8edtYrl98eAMADgPcBJk67mALyAVD/Q6CKA9DGWJwU9yuGpSNYjIILKco1G+b2KB9/FTis+BKv+T5R9HaP//Xfqs/rtwDwCPzgnevpB0x+BODHr19H2yckyY//+v8SsFQAikdFdTIsXcFiEr0OwKDld9LhE8d6FHBdW0lo8SXlB/k763r8r39v/ivq5BcIwA/evI6evHc0dWi3+wM9dv92xrJRI65hWLqCxSggZ29Z1VIgNAXghzv6Wv5JOTOF/mvHfPiwrPwSAYD8k4kHgN8DnL/4KqqC1CED4AWgOjHqzP0XR/0Nw9IVLEYBQXt/DJgjJCEeGSasfrzP5P/10tuoak9rj/91i3c19O/uzwMA3j53Cph9azqX313jv4IAfJQwYgrD0hksJhFBAHAxeCtV7GkRikDzgR34HT9p+X/O/rXlTVuF/ms+WfRO/+7+704GCECXY0DsvMupccwoM3d/iQBUJ8V8d39U1L8yLJ3BYhQQOgLwc91CMoKOw3toUvaMiOX/zbI7aFVzvthvBh49hHsKcfnld3+hAPBjwA/euJZemZxKHRLymzb+tzOyk6IWMCzdwWIUkQYAwua2lwtH4PiJ4/RizToatuo+YfHBtRvnUj1/+UiAzPKVOsgPuj0GxM25jOogsNTub874X5M44tvH4uL+hWHpDhajkPlSjpEfP4Yf+hCWE+CHRN6sz6PLc2exnf32LsL/7P2bKXH1k/RU0btUtrtJ+K/Lv358wPI75OWXD0C3xwBMAe/lj6XGx0ZRxxhDdn+JALT7Y2llwvApDMsNYDEKiCzD7VtegHwRcez4McLuju/8z2fgp8EOHjsS8V8P7yhosvt3ewxYWjSOPm/207HtPqodF/9HPf6D0pToU1NGj/5bhuUGsBgFJJZldvkHELBfeaF6LaTXa/cPisCy4vH0dSCVvmjx05kmH7VMT6DAH/H438p2/+VJUdcyLLeAxSi4xLK8Wpvdb/KvaSvCcUVL+XkAVpSMp2/b/SwAfvqqzU+YAj6p8FH1ZfF/tOP/5oQRLf38oR/vDxfYrZPAmtYi/FKR8/JLBGBF6QQ625lG33Wk0jeIgG0K2PlmIjVCXA12f5Xjf4Mvll5OGjmEYbkJLEbRVWTpOwF+Meg4L9asp18svVVefgd3/5VlE4h2pLEApCIAXaaA041+qrkrntrHuGj3lwxAuz+O1iREvcqw3AYWo5CXvuujvJEfPUbZ7WWOiY/b/hs2LYjozA8Uy89IRQAAAtBlCjiyJZlqxgnKb8D4X5oSdfKO+Pi/Z1huA4tRyAkfHkhaKvYoT/gln/mVH9HA5XfqID8QkB+kgrBTQOvsUdQ8Ol5+99d8/G9mu/+bicPHMCw3gsUoIKrTXJk3i1Y0b6PDx49FJD7e7X+66F18xZe4+HrJzwMAQt4FfFKbQlWTmaDa7v7yAQj44/DbBdkMy61gMQoIqgq80nsFi8Hcio9odWsR1ewL0I7D++jI8aN0lMVh95ED1LC/k3I7yumV2my6a9tLFG37VJ/75AepoIcpwEeIwMGsJKoeE+/Oyz+BAJQmRZ+ZEh//zwzLrWAxCi6nan4igbT88gGIRH6ObQpAAHz0ZSsLQHMKfdaQQs0z4nEUMG73x+j/3sioSxmWm8FiFHqJb778XacAHyLAjgI+Ot2YQqdqUqjqeiarQbs/Rv/cxItyGZbbwWIUBoqvgfwgVSACeCLgQwT4FMAiwI4C2fwoIC+/DgEoSYrRf/T3jgCqpPfktwfgWxaA7yPgxxTA7gK+Pwq0ZCZQy2hNdn+J8b/RH0tvxY8Yz7BMAItR6Ci8vPg6y8/xswj4eQT4UYBfCH5/FLgxntoz3Lv7B5j8WYm/XcOwTAGLUcgLr158xfIDEfmBsPw8AIAfBRAA+1HgUG4iVY4RkF/Ty7/ytHi6e8SIf2RYpoDFKCCcSjz5gd8egZBHgdNNybSv7hEqnDWdmpjEbtv98a7/hmefBJZJYDEKfcU3X34Q+iiQQocaH6WKigoqLSmhwpuvpnZEQIn88gEIpMZS/nWXUFZWFrBMAotRuFR6Lr7r5Q91FDjS8hhVV1dTZWUllZeXU0nWeqoYl+Sa3b8kI4Gy/vC+FwA3oIv45ssP/N3CA3C87Qmqq6uj2tpaQgQwBSACxfMyqTE9Xvvdv97PRv/nniXIn52dDSyTwGIUbpKei6+P/EBefs7J9iepvr6eAAJQU1NDVVVV3x8FSkup+NZrcRTQdvcPMLZNvpzv/JSTkwMsk8BiFHpI78l/quNJamhoAAgApgAE4JyjQHF2FpWPTdZ29y/JGEVZy5YSlz83NxdYJoHFKDSWXl58F8nf2NgIeABAyKNA0YLZ1JQ+UrvdH7f+edOnEh/9EYC8vDxgmQQWo9BNdnnxdZIfiMtvi0DYo0DRTVdTIF2f3T/gx63/ZQT5AZd/48aNwDIJLEYhL6pK8c2XH/R0FChZu5qqRidos/uXpcZT9nvvnDP6Q/5NmzYByySwGIVR4hsgv+hRoPC5Z6glfWS/7/74mO+mJx/pMvpD/s2bNwPLJLAYhU7ie/KLHwVKioqo5OqJ/Sp/O6Pg8rGUvX59l9Ef8m/duhVYJoHFKNwsPfihcfKLHwWKli+l+vSEfgtAtS+Wcl59qcvoD/m3bNlCBQUFwDIJLEbhRunlxddMfvEpoOtTgQfvogDEVSx/G2PL3beGHP0h/7Zt27wAuAEtpffkF38qsHEDVY1NUh6A0oxRlLNqRZfRH/Jj9If8RUVFwDIJLEahUHh58Y2UX/4oUDxjGrVCYEXyN/ljadOUJ4jv/hj9N2zYwC/9CPIXFhZSSUkJsEwCi1GoF125+BLyywfg6wMzaO/evWEElz8KlBYVUtnlYwXllw9A8aUZlLVuHfHRH/Jj98fOz0f/4uJivLMALJPAYhQQTFd+aID8n376KXAiAvwo8P0U8PrL1ASRndz9+Rt/i+ZD/pC3/nz0x+5fVlYGLJPAYhTGi6+B/GIRkD8KlN58tZz8AgHIn3x5l9GfX/zl5+fT9u3bsftDfEwnwDIJLEZhgPQS8kuILya/RATEpwB+FChd+h6mAMdG/zpfDOW+8lJ3F38IAB/9ESSECVgmgcUoTJCei6+1/A5EgL8haJ8CKm671rnd/4YrsfMHX/xBfn7xZ9/9cTwBlklgMQo3S8/F111++QiIvyZctvwP1ABh+1h+7P55/KWf8Bd/XH5MJ8AyCSxG4ULpufgS8qcqkF8yAhLvBpTdem2ff+Cn4Mbvd/9u3vizX/xhGkGQ+NMKyySwGIV64eXF119++QjIXAiWrlxKjRBYQv7gm//c114JtfuHuvjju78XADegTHJ58SXlT1Utv3wEJKaA8puvlpafUzj5MpHdn1/88d0fYQKWSWAxClkxFYhvtPzyEehmCnjlRWrrg9G/GV/yOW+WyO6P/7p89/cC4BZMEt8uv7z48vIriAACwEU7dwpgQtZekiG9+5dP8FN21nr7zb/47u8FQH90lF5e/lQXyS8fAT4BBD8WLJsxhdol5MdXfW1+6uHgt/74p/162v358cQyCSxGoYn0nvwRRsB+BODwKaByyyaqHx0f0egPatNHUs6qlcFv/Yns/l4A3IIW0svL77j4YNO25+mtLacdD8Ann3wiFAHIz+ERCH4voPKBOyPa/UHBnTeFeuefP/fv7uafy+8FwA1oILyk/OOVyZ8x+wyBNx2MAOQHPUQA0ocNAJ8CSv/wLrVFIH8rG//zXnqBB8C++we/9dfd7s//e7NMAotRuEl2O/8nLb8/IvnTZ50GiICD8oePAJe+pwggABVsPK+b6BeWn1M5wU9Z69cjAPZv+cXtv/2tvzC7vxcAV6Becnnx1cvPxeeIREBeflsEwsgvcAx4/MFeByD/gTvt4z8mgLCXf6F3fy8A2iMvpTrp5eX3y8svHgF5+YMjIBAAEHwMKH//bQr0Qv4WNv5vxPgfdP4PdfkXfvf3AqA9bhBfXn6/rPwSEZCX3xYBCBWWUAGoxDFgQoqQ/KCG/XuzbR/5tX3qL/jyzwuA29FSeg3ktwsuHwF5+UUjwAMQ/GZg5aP3CskPtt8Xcvznb/5h9xe4/PMC4Ap0lV5efr8y+UEaIrDlMwn5JSIgMAWUvfsWtQsEIIBXf19YDPntX/UtOv57AXAbugkvL79fQv6ZkcrPQQRk5JePQPAUwO8BmLSNGSN73P3xQyP4wk/Iz1/+sT37D3n5B2y7vxcAN6GL8PLy+5XLnxYaREBCfvkIQMRQHxCqu+mqsPKD8huugPzBl38Y//HsX2D89wLgKjSQXVJ+vyQ+efkFI8DFVRWB4GNAzdQnewzA9icf4s/+5cd/LwD60x9yy8vvB/rILxABLqyqCIQ6BlS+80ZY+QP4pd8XFvZ4+y8+/nsB0B4JSRXI75j4EcmfFgFvbv6Mi6oiAuGfBhTkU2uYADQy8tau5Wd/jP8St/9eAFyB/vL7+xCfOvlBJlAdgfDHgIZrJnb//P+q8dj5Qah3/wXGfy8ArkNP+f0OiB+Z/GmS8vdnBIK/NRji1j7xQDcBiKWSR+6B/PbxX/Ddfy6/FwAvABGyAvI7LL56+fs3AqGOATUvLAwpPyiYMxPi28f/bh//cfm9AHgBiIj/ffd6jgPy+6TklxdfjwiEehxYtfz9kPKDra+/wuXnn/yTePznBcAV9IPwDsrv009+DSJgvweo3riB2kMEAJ//37rmYy4//7kvicd/XgBcgQLZFcjvk5Y/TZH8IJXxhqII7Nmz59zHgZUVFEiP77L7N2fE48zPsX/0V+b87wVAdxySW4H8PiAtv0rxQSpQGIFTp07R7t27z3kfoPWaCefIDxqunsDF52D3D/fZfy8AJiAvs2r5fUbIryoCCADYtWsX8acBzffc3CUANXfdxMW3X/7Jnv+9AOiOO+T3ceTllxdfXn6FEeABOHnyJO3cuZMwBTRMfbxLACqfeRTS23/s0z7+28//dvm9ALgdfeX3gT6VP02TXV91BHgAjh8/TohA9YJZXQJQPGcGpMetP+C7f5gv//ACYAQK5ZcQXk7+NA13fZUR4AE4ceIEHTt2jJrzsqjCF02B1BhGLJX7Ymj78qVc/ODdnwdA4PzvBcALgLD8Po5j8qe5SH7/84BHwNkAHD16lKoXz6WtGaMYCVSYOR2P+rDjQ3z8Lf6xffy3nf+9ABiFOvl9HEflT3OZ+Hb5nYoAAmA/BiACR44coUAggN0dkkN2O1x+mfHf+2EQN9DXwv/PO9cRZ0XpOMipRH4l4iuQXz4C4lPA4cOH7RHAbT/Ex9/a5bfv/sALgEmICy2OMvk7ufyaiC8vv3wEBAJgnwIQgba2Noz5EJ5jlz/49h+Iyu8FQHfEpdZI/k6d5JcXX0EEEIDgKYBHgE8CEJ4D8bn8wru/TX4vAG7BNfJ3Ann59dn1xXm9jyNgnwL4cQAh6OjogPAcvvPb5Qfi8nsB0B9t5e/kOCB/pnvk9wEeAYeOAvxvEYIdO3Zgx4f43cnvBcAktJK/E0jIb5r4QCACEkcBHgIOf1mISy8rvxcA3VEgv4zw8vJnAnfKryACPATBIAKQXlZ+LwC6o0z+Tikgv6vEl5dfTQR4CEKADxDJyu8FQHdk5ReXXIH8mVqLLy+/M3cC4cBHiWXk9wKgO//NRO49kH+slNTy8isQX/2uL85MFoFNzrwxyLF9qYiA/F4AXIlr5c90s/jy8gP5CIgTFAGI7QXABFwlf6Yh4gNJ8fsvAl4AjEJ7+TPVi6/zrq9BBCC1FwBT0E3+jVtnQFAjxZeXX5sIeAEwhf6VP8WOY/Knaie+vPwaRMALgAmokz8lHJDfSPGBCvFBCtAvAl4AdEZcfnnJVcifCozb9cXl1zACXgB05r/evpZCsbx0TAQyS8hvkPgq5U/h6BsBLwA642b5U40VX15+jSLgBUBn3CR/qgLpTZJfkwh4AdAZ3eVPNVl8BfKD5Bmn6TV1EfAC4CY0kN8h4T3xufxAcQS8ALiF/pQ/lWO6+BrI348R8AKgM8tK1Mmfqr/06sVXKL/iCOCjxMAyCSxG8WWgryRP7g7I71rpOXqILy+/wgjwbxeyTAKLUexvSf4akjoF5Fcvvbfr6xCBgwcPfsWwTAKLUZTV+FsUy2++9GCm3vInAWcjgHuARoZlEliMoqpxzC2ukZ9L74kvL7+CCOzbt+8yhmUSWIzi7Nm7/+p0Y8K3usrP5VQovvnyK4jAgYMHvyaiP2NYJoHFOD7vSJh3tkO9/KqE98S3ya8gAvg+wQMHDtzOsEwDi3EQ3fIXn9YnfqZWfkioHp968bWSX0EEsPvvc9Hu700A4Ks944acqks+Ky+/vOiqpffEtzH9NL26MfII7N6z5yz7mbEfMCwTwWIsX+xI9p+oSTrbu+NAEpN/uryonvgayA8iigDGfvyQyFl2r3QBwzIVLEbz1Z6MwSdqRn32RUsS5A6PhvL7FIhvrvyRReDwkSO0Z+/e/S7f+b0JgIM7gdMt8XOPVI389nRTEn3VmkjftifR2Q795PdxPPHl5ReIAHb6EydPEn5J+OChQ7Rj586v2cZxh/yZ37sD0A48Iqwru+2mioJbmneXTvjyYFnK2WNViQQ+WjuFUqbu7ReSn9WfpCl7pEiMgFHPOMOCj3ZDdEBNbZ1ni+r3nFldfKA4r+roGD3E9wLg4fH/7dShAAAAAAAgf+tEGinUAKoBVAOoBlANoBpANYBqANUAqgFUA6gGUA2gGkA1gBpANYBqANUAqgFUA6gGUA2gGkA1gGoA1QCqAVQDqAZQDaAaQDWAagDVAKoBVAOoBlANoBpANYBqANUAqgFUA6gGUA2gGkA1gGoA1QAqYSo/Ud1L64EAAAAASUVORK5CYII=;fontSize=18;" vertex="1" parent="1">
                    <mxGeometry x="170" y="214" width="66" height="66" as="geometry"/>
                </mxCell>
                <mxCell id="10" value="Code Generation" style="rounded=1;whiteSpace=wrap;html=1;fontSize=18;" vertex="1" parent="1">
                    <mxGeometry x="45.66" y="500" width="160" height="30" as="geometry"/>
                </mxCell>
                <mxCell id="12" value="Dart" style="shape=image;verticalLabelPosition=bottom;labelBackgroundColor=#ffffff;verticalAlign=top;aspect=fixed;imageAspect=0;image=data:image/png,iVBORw0KGgoAAAANSUhEUgAABAAAAAQACAYAAAB/HSuDAAAAGXRFWHRTb2Z0d2FyZQBBZG9iZSBJbWFnZVJlYWR5ccllPAAAVTFJREFUeNrs3U1vneeZH/DLFCVblhVRVgRZriAcIy3QF5SVWzQoDASlByhKFAUiLboTEOkTRP4EIj+BnX0BK0B2WUTZzc7KhkC7GGtmWxThDDLTRVuMNNQhJfGQmXPr0YkoiRTJc57X+/n9gHNkJ36RLpoUr/99XffzXgAAVOmv/nxp/H5t/Po349dgz+soHrz88eH49dcvf3wYi8uPFBYAjuc9JQAASm74U7N/ffz66cvGvwrrL8OA370ICRaXHyo8AAgAAIDqm/7B+P3W+PWzOPrpfpkeRTEt8NuXgcC6DwoACAAAgHIb/7svm/82SRMBvxy/7gsDAEAAAABM3/gvvGz873TgZ3s/0mTA4vI9HzgABAAAAEdv/tN+/7fj10LHfuZpTSCFAL8wFQCAAAAA4ODGPzX8X0f7xv2ncf9lEPDABxYAAQAAwKvmfzB+/01Ud6t/U1IAsCoIAEAAAADwV3++9LL5X8j4VykIAEAAAAD0tvHv0kV/ggAAEAAAAFM0/0tRXPQ36GkF0h0BX7ksEAABAACQa+Pfx1P/d1kdv76JxeVHSgGAAAAAyKX5X4p+n/ofZD2KaYD7SgGAAAAA6HLj79T/aFIAcNs0AAACAACgi83/Ujj1P45HL0MA0wAACAAAgE40/k79Z2MaAAABAADQ+uZ/KZz6l2H9ZQjwQCkAEAAAAG1q/J36V2M1FpdXlAEAAQAA0Ibmfymc+lfpwfh1w0oAAAIAAKCpxj+d+n89ft1SjMqtvwwBHioFAAIAAKDO5v96FKf+C4pRmzQB8FUsLt9TCgAEAABA1Y3/wsvG/7piNMa9AAAIAACASpt/p/7tcS8Wl28rAwACAACgzMbfqX87pfsAvnQ5IAACAACgjObfqb8QAAAEAACQcePv1L9bIUB6QsC6UgAgAAAAjtP8O/XvnjQB8KXHBAIgAAAAjtL4O/UXAgCAAAAAMm/+nfoLAQBAAAAAGTf+Tv2FAAAgAACAzJt/p/5CAAAQAABAxo3/4GXjv6QYQgAAEAAAQJ7N/53x+91w6i8EAAABAABk2fgPwqm/EAAABAAAkHXz79QfIQAAAgAAyLjxH4RTf4QAAAgAACDr5t+pP0IAAAQAAJBx4z8Ip/4IAQAQAABA1s2/U3+EAAAIAAAg48Z/EE79EQIAIAAAgKybf6f+CAEAEAAAQMaN/yCc+iMEAEAAAABZN/8r4/efh1N/hAAACAAAIMvG/1oUp/7XFAMhAAACAADIs/lfiWLXH4QAAAgAACDDxt+pP0IAAAQAAJB5878STv0RAgAgAACAbBt/p/4IAQAQAABA5s3/Sjj1RwgAgAAAALJt/J36IwQAQAAAAJk3/yvh1B8hAAACAADItvF36o8QAAABAABk3vyvhFN/hAAACAAAINvG36k/QgAABAAAkHHjvxDFif8dxSCTEOCrWFy+pxQACAAA4FXzvxTFqf9AMcjMbSEAAAIAAHDqjxAAAAEAAGTf/C+FU3+EAAAIAAAg28bfqT9CAAAEAACQefO/FE79EQIIAQAEAACQbePv1B+EAAACAADIvPlfCqf+IAQAEAAAQLaNv1N/EAIAIAAAIPPmfymc+oMQAAABAADZNv5O/UEIAIAAAIDMm/+lcOoPQgAABAAAZNv4L7xs/K8rBggBABAAAJBn83/9ZfO/oBggBABAAABAfo2/U38QAgAgAAAg8+bfqT8IAQAQAACQcePv1B+EAAAIAADIvPl36g9CAAAEAABk3Pg79QchAAACAAAyb/6d+oMQAAABAAAZN/5O/UEIAIAAAIDMm3+n/iAEAEAAAEDGjb9TfxACACAAACDz5v/O+P1uOPUHIQAAAgAAsmz8B1Gc+i8pBggBABAAAJBn8+/UH4QAAAgAAMi48R+EU38QAgAgAAAg6+bfqT8IAQAQAACQceM/CKf+IAQAQAAAQNbNv1N/EAIAIAAAIOPGfxBO/UEIAIAAAICsm3+n/oAQAEAAAEDGjf8gnPoDQgAAAQAAWTf/Tv0BIQCAAACAjBv/QTj1B97tm1hc/koZAAQAAHS3+V+J4tQf4DD3YnH5tjIACAAA6Fbjfy2KU/9rigEIAQAEAADk2fyvhFN/QAgAIAAAINvG36k/IAQAEAAAkHnzvxJO/QEhAIAAAIBsG3+n/oAQAEAAAEDmzf9KOPUHhAAAAgAAsm38nfoDQgAAAQAAmTf/K+HUHxACAAgAAMi28XfqDwgBAAQAAGTe/K+EU39ACAAgAAAg28Z/afz+dTj1B4QAAAIAALJs/BeiOPG/oxiAEABAAABAns3/UhS7/gPFAIQAAAIAAPJr/J36A0IAAAEAAJk3/0vh1B8QAgAIAJQAINvG36k/IAQAQAAAkHnzvxRO/QEhAAACAIBsG3+n/oAQAAABAEDmzf9SOPUHhAAACAAAsm38nfoDQgAABAAAmTf/S+HUHxACACAAAMi28XfqDyAEABAAAGTe/F+P4tR/QTEAhAAAAgCA/Br/hZeN/3XFABACAAgAAPJs/p36AwgBAAQAABk3/k79AYQAAAIAgMybf6f+AEIAAAEAQMaNv1N/ACEAgAAAIPPm36k/gBAAQAAAkHHj79QfQAgAIAAAyLz5d+oPIAQAEAAAZNz4O/UHEAIACAAAMm/+nfoD1O/B+HUjFpcfKQUgAACg6sZ/MH7/Opz6AzTl4fj1pRAAEAAAUGXzf2f8fjec+gMIAQAEAABZNv6DKMb9lxQDQAgAIAAAyLP5d+oPIAQAEAAAZNz4D8KpP4AQAEAAAJB18+/UH0AIACAAAMi48R+EU38AIQCAAAAg6+bfqT+AEABAAACQceM/CKf+AEIAAAEAQNbNv1N/ACEAgAAAIOPGfxBO/QGEAAACAICsm3+n/gBCAAABAEDGjf+18fvX4dQfQAgAIAAAyLb5X4ni1B8AIQCAAAAgw8Y/nfqnXf9rigEgBBACAAIAgDyb/5Vw6g+AEAAQAABk2/g79QdACAAIAAAyb/5Xwqk/AEIAQAAAkG3j79QfACEAIAAAyLz5Xwmn/gAIAQABAEC2jb9TfwCEAIAAACDz5n8lnPoDIAQABAAA2Tb+Tv0BqMq9WFy+rQyAAACg2cZ/Yfx+J5z6A1CdR7G4fF4ZAAEAQHPN/1IUp/4DxQCgYrdjcfmeMgACAIB6G/906p9O/O8oBgA1uR+LyzeUARAAANTX/C+FU38AmnHeZYBAW80pAZBR478wfn09/qPvNP8ANOS6EgBtZQIAyKX5Xwqn/gA070EsLn+pDIAAAKD8xt+uPwBt81ksLq8rA9A2VgCALjf/S+P37zX/ALSMNQCglUwAAF1s/J36A9BmD2Nx+XNlAAQAALM1/0th1x+A9rMGALSOFQCgK42/G/4B6JKfKwHQNiYAgC40/0vh1B+AblmPxeXPlAEQAAAcrfFPu/7p1P+WYgDQQZ/H4vJDZQDawgoA0NbmP92g/HvNPwAd9jMlANrEBADQtsY/nfqncX+PUAKg6x7F4vJ5ZQAEAABvN//XXzb/C4oBQCZuxOLyfWUA2mBeCYAWNP5O/QHI1U/HLwEA0AomAICmm3+n/gDkzBoAIAAAet/4O/UHoC+sAQCt4CkAQBPN/+SGf80/AH3gaQBAK5gAAOps/J36A9BX52Nx+ZEyAE0yAQDU1fw79Qegz/z+BzTOBABQdePv1B8A0pMAFpdvKAMgAABybf5vjd+/Djf8A0DyWSwurysD0JR5JQAqaPwHUZz6LykGAPxJmob7RhmAprgDACi7+b8zfv9e8w8Ab/E0AKBRVgCAshr/QTj1B4DDWAMAGmMCACij+XfqDwBHc0sJgKaYAABmafwH4dQfAI5jPRaXP1MGQAAAdKn5T6f+d8MN/wBwXJ/H4vJDZQDq5ikAwHEb/0E49QeAWaTLAAUAQO3cAQAcp/m36w8As7uuBEATrAAAR2n8B+HUHwDKdCMWl+8rA1AnEwDAYc2/U38AKN9PlQComwkA4KDGfxBO/QGgKo9icfm8MgACAKDp5n9l/P7zcMM/AFTJGgAgAAAaa/yvRXHqf00xAKBy92Nx+YYyAAIAoO7mf2X8flchAKBW52Nx+ZEyAHWYVwLofePv1B8AmpMeCXhPGYA6eAoA9Lv5X4nihn/NPwA0w9MAgNpYAYB+Nv5O/QGgPT6LxeV1ZQCqZgIA+tf8r4RTfwBok+tKANTBBAD0p/F36g8A7fQwFpc/VwZAAACU0fyvhBv+AaDNrAEAlfMUAMi78XfqDwDdcGv8WlEGoEomACDf5j99E+HUHwC6YT0Wlz9TBkAAAByn8XfqDwDd9HksLj9UBqAqVgAgn8Z/IYoT/zuKAQCd9LNIFwICVMQEAOTR/C9Fceo/UAwA6CxrAIAAADiw8XfqDwB5uRGLy/eVAajCnBJAZ5v/pfH795p/AMjKT5UAqIoJAOhe4+/UHwDy9SgWl88rAyAAAM3/Utj1B4DcWQMABADQ48bfqT8A9Mf9WFy+oQyAAAD61/wvhVN/AOib87G4/EgZgDK5BBDa2/gvjF9fj//oO80/APTOdSUABADQj+Z/KdzwDwB95mkAQOmsAEC7Gn+7/gDAhDUAoFQmAKA9zX8a9XPqDwBM3FICoEwmAKD5xj+d+qdL/uz6AQB7PYzF5c+VARAAQB7N//WXzf+CYgAA+/gsFpfXlQEow7wSQCONv1N/AOAo0vcK3ygDUAYTAFB/8+/UHwA4qvVYXP5MGQABAHSr8XfqDwBM4/NYXH6oDMCsPAUA6mn+U9P/e80/ADCFnykBUAYTAFBt4+/UHwCYlTUAQAAArfbff3ctPtv+bvxZZtcfgGZtj7/le3wi71/jD0cH/3/ndiJO/rHrv8IvY3H5gf+YgVl4CgBUYXVtIf42fhOf7CzEX3yoHgDQVh/uFq/9pNAghQdv2hsovOvvL1daAxAAAAIAaKE749cgrj4v/kwIAADttDlXvA7yf04e/Z81mULY++NBIcLxpXXC2z5gwCysAEDZVteujd+/f/HHN/6h+N/+5pQQAAD6bDI1kEKB9MdpauD4wcCNWFy+r5jAtEwAQPm+fet/MQkAAP02uYPh/73x7fckENj7OthPxy8BADA1EwBQptW1lfH73T/9+WQCYMIkAABwmBQKTF5vX2B4PhaXHykSIACAZpv/V6P/BwUAQgAA4LhSCDAJBHZ/sBr///I3cfOKEAAQAECDAUBq/q8dGgAIAQCAaV38OOLsi+8hHkbxVIDfxc0r1gIAAQDU2PyvxN7R/8MCACEAADCN0+9HXL643/9z/0UYkH68eWVdoQABAFTT/L89+n+UAEAIAABM4+rliPkT7/orJtMBv4ybVx4qGCAAgPICgLdH/48aAAgBAIDjurAQce6jo/7V6y/DgN9aFQAEADBb878S+43+HycAEAIAAMdx6mTElUvT/J3p4sD7wgAQAADHb/4PHv0/bgAgBAAAjuPwNYCjhgFpTeCBgoIAAHh3AHDw6P80AYAQAAA4qrQCkFYByrG+JwxwZwAIAIA3mv+VeNfo/7QBgBAAADiK+fmIq59U8U9++CIIiLgXN688UmgQAEDfm//DR/9nCQCEAADAUaR7ANJ9ANWZTAW4LwAEANDbAODw0f9ZAwAhAABwmHLXAN5lPV5NBawrPAgAoC/N/0ocZfS/jABACAAAvMvcXMTg07r/raYCQAAAvWj+jz76X1YAIAQAAN7l0oWIM6eb+DevRzEV8I27AqA75pQAjuzbRv6tV59H/NtN1QcA3rb5tKl/8yCKqci/j1/94dvx65oPBrSfCQA4itW1O+P3r4/995UxATBhEgAAeFMzawAHeRDFesA9HxgQAEBXm/9BFKP/x79lp8wAQAgAAOzn4scRZ1v1/cH6+PWL8ChBaB0rAHC4b6dq/qtgHQAAeNPmVtt+RoMoJid/H7/6w8r4NfBBgnYwAQDvMu3o/0TZEwATJgEAgNda7k+LdYD2upe+s/IYQRAAQFub/0FMO/pfdQAgBAAA9mrfGoAgAFrICgAcrD2j//uxDgAATDwZduVneiuK1YDvxq8lHziolwkA2M+so/8TVU4ATJgEAACSq5cj5k907Wf9IIqJgAc+gCAAgCaa/0HMOvpfZwAgBAAAkgvjb13OfdTVn70gAGpgBQDe1u7R//1YBwAANoZd/tkvjV9pLeBbTw2A6pgAgL3KGv2fqGsCYMIkAAD0WzfXAPZzL1wWCAIAqLD5H0RZo/9NBQBCAADot7QCcGEhp1/RNy+DgEc+uDA7KwDwSvdG//djHQAA+mv4NLdfUZrOTE8NWPHBhdmZAICk7NH/iSYmACZMAgBAP125FHHqZI6/svUopgHu+SCDAACmbf4HUfbofxsCACEAAPRTfmsAb3oQnhgAU7ECALmM/u/HOgAA9M9G9r/3L4UnBoAAAI6tGP1fyvrXKAQAgH7Z3Y0YbvXhV3or0hSn+wHgyKwA0OfmfxBVjf5PNL0CsJd1AADoj7NnIi6e79OveH38um0tAN7NBAB9lu/o/35MAgBAf/RjAmCvQRRrAb8Zvxb8BwACAHhlde165D76LwQAgP5KawAbvfw9P32Plx4beMd/BPA2KwD0sflfePEbQx2n/21aAdjLOgAA5O/M6YhLF/pcgQfj11dx88pD/zFAwQQAfdSv0f/9mAQAgPylNYA0CdBfS+GSQHiNCQD6pRj9/01t/762TgBMmAQAgLxd/DjirN/rx9IUwG3TAAgAoD/Nf32j/10JAIQAAJA3awBvfUcYN6+sKAN9ZQWAPjH6vx/rAACQr7QGMNpRh1fuxq/+kNYCrikFAgDIVTH6f10hhAAA0MsQgL1S8+9uAHrJCgB9aP7rH/2f6MIKwF7WAQAgP6dORly5pA77exDF3QDrSkEfmACgD4z+H5VJAADIz/NtawAHW4piGsCkKL1gAoC81X3r/5u6NgEwYRIAAPJy/gfFi3e5N359FTevPFIKBADQvea/udH/rgcAQgAAyMv8fMTVT9ThcB4XSNasAJAzo/+zsA4AAPkYjYpVAA6TLgj8Ln71h1tKQY5MAJCnpkf/J7o8ATBhEgAA8nDuo4gLzkaO4V7cvHJbGRAAQLub/+ZH/3MKAIQAAJAHawDTSKsAX7oXgFxYASBHRv/LZh0AALovrQEMt9TheNJKwO/jV3+4phQIAKBtitF/j3ERAgAA+9l8qgbHlw6WvncvADmwAkBOzX97Rv8nclkB2Ms6AAB019xcxOBTdZjeN3HzylfKQGe/BCgBGfk6jP5XzyQAAHTX7q41gNnciV/94Tfjl+856SQTAORhdW0p0iNb2ibHCYAJkwAA0E1nTkdcuqAOs3E5IJ1kAoAcmv+UwH6rEDUzCQAA3ZQmANIkALNIlwJ+73JABABQv7vj10AZhAAAwFFDAJcBliB9//mdEIAusQJAt7V19H8i5xWAvawDAEC3WAMoU1oDSOsAD5WCtjMBQJebf6P/bWESAAC6Ja0BjHbUoRzpe9LvPCYQAQBUy+i/EAAAmCUEoMwQ4FshAG1nBYBuavvo/0RfVgD2sg4AAN1w6mTElUvqUL7bcfPKPWVAAADlNP8pYf0+unD638cAQAgAAN1x9XLE/Al1EALQE1YA6CKj/63/ZsI6AAB0wsZQDaphHYBWMgFAt3Rl9H+irxMAEyYBAKDd5ucjrn6iDtUxCYAAAKZs/rsz+i8AEAIAQFekewDSfQAIAcieFQC6xOh/F1kHAIB2swZQNesAtIYJALqha6P/EyYAXjEJAADtZA2gLiYBEADAEZr/7o3+CwCEAADQJZcuRJw5rQ5CADJnBYAuMPqfC+sAANBOm0/VoB7WAWiUCQDarauj/xMmAPZnEgAA2mVuLmLwqTrUxyQAAgB4o/nv7ui/AEAIAABdYw1ACED2rADQZnfC6H++rAMAQLs88ftyzawDUDsTALTT6tq1KE7/u80EwOFMAgBAe6Q1gDlnhDUzCUBtfHbTVt8qQU+YBACA9hi6DLCR73tNAiAAoLdW11bG79cUQggAANRsc0sNhABkzAoAbWv+8xj9n7ACcDzWAQCgeVcvR8yfUIdmWAegUiYAaBuj/73+hsMkAAA0bmgKoNHvhU0CIACgF3Ic/X8sPRcCAEDHbAzVoPkQwDoslbACQFua/7xG/yd+Mm5kfzjy8Z2GdQAAaI41gKY9Gr++jJtXHioFZTIBQFsY/eeNbzxMAgBAY0wBNG1h/PrOJAACAPLj1n+EAADQsgDA779CAHJkBYCmm/88R/8nrACUwzoAANTvyqWIUyfVoXnWASiNCQCaZvSfw5kEAID6WQNoC5MACADIgNF/hAAA0F7Dp2ogBCAzVgBoqvnPe/R/wgpA+awDAEB9Ll2IOHNaHdrDOgAzMQFAU4z+Mx2TAABQn01TAC1jEgABAB1j9B8hAAB0w3BLDYQAZMQKAHU3//0Y/Z+wAlAt6wAAUD1rAG1lHYBjMwFA3Yz+Ux6TAABQvSd+r20pkwAIAGix1bU7YfQfIQAAdEtaA9jdVQchABmwAkBdzf8gitH/hV79uq0A1Mc6AABU5+LHEWf9Ptti1gE4EhMA1OXb3jX/1MskAABUZ9NlgC1nEgABAC1RjP4vKQRCAADoqLQGMNpRByEAHWcFgKqb/0H0cfR/wgpAM6wDAED5Loy/nTv3kTq0n3UADmQCgKoZ/ad+JgEAoHwbQzXoBpMACABogNF/hAAAkI/n29YAhAB0nBUAqmr+B9Hn0f8JKwDNsw4AAOU5/4PiRVdYB+A1JgCoitF/2sEkAACUZ8PvqR1jEgABABUz+o8QAADyNBoVqwAIAegkKwCU3fwPwuj/K1YA2sU6AADMLj0J4IJv9TrIOgAmACid0X/ayyQAAMxu+FQNuskkAAIASmT0HyEAAOQvrQE8faYOQgA6yAoAZTX/gzD6/zYrAO1lHQAApnf2TMTF8+rQXdYBesoEAGUx+k+3mAQAgOkNt9Sg20wCCABgSkb/EQIAQL/s7goBhAB0kBUAZm3+B2H0/2BWALrBOgAAHJ81gFxYB+gREwDMyug/3WcSAACOb2NYTALQdSYBBABwBKtr18PoP0IAAOgvjwQUAtApVgCYtvlPXyR+H07/380KQPdYBwCAoztzOuLSBXXIh3WAzJkAYFpG/8mTSQAAOLp0EaA1gJyYBBAAwBuK0f/rCoEQAACIDb9nCgHoCisAHLf5N/p/HFYAus06AAAc7tTJiCuX1CE/1gEyZAKA4zL6T3+YBACAwz3fjhjtqEN+TAIIAOg1o/8IAQCA/aS7ABAC0HpWADhq82/0fxpWAPJhHQAADjY/H3H1E3XIl3WATJgA4KiM/tNvJgEA4GCjUbEKQK5MAggA6A2j/yAEAIDDbAzVQAhAy1kB4LDm3+j/LKwA5Mk6AAC8zRpAX1gH6DATABzG6D+8ySQAALwtrQE8faYO+TMJIAAgS0b/QQgAAMex4fdGIQBtZgWAg5p/o/9lsAKQP+sAAPDK3FzE4FN16A/rAF37FFUCDmD0H47CJAAAvLK7GzHcUof+MAkgAKDzjP6DEAAAprX5VA2EALSUFQDebP6N/pfJCkC/WAcAgEJaA5hz1tgz1gE6wGclb/pa8w9TMgkAAIWhKYAeMgnQASYAeGV1benFJy3lMQHQTyYBAOi7M6cjLl1Qh34yCSAAoAPNf0rsvh+/BoohAEAIAAAzswYgBBACtI7PSCbuav6hRNYBAOi7Db8P9ph1gJYyAYDR/yqZAMAkAAB9depkxJVL6tBvJgEEALSs+Tf6LwBACAAA1bh6OWL+hDoIAYQALWEFAKP/UPk3P9YBAOip4ZYaYB2gRUwA9JnR/+qZAGAvkwAA9M38fMTVT9SBxCSAAIAGm3+j/wIAhAAAUL10D0C6DwCEAI2zAtBfRv+hCdYBAOibjaEaMGEdoGEmAPrI6H99TABwEJMAAPSFNQDeZhJAAEBNzb/RfwEAQgAAqNenFyM+eF8dEAI0zApA/xj9h7awDgBAX2z4/Y63WAdogAmAPjH6Xz8TAByFSQAAcjc3FzH4VB3Yj0kAAQAVNP9G/wUACAEAoDmXLkScOa0OCAEaZAWgP4z+Q5tZBwAgd5tP1YCDWAeoiQmAPjD63xwTAByXSQAAcpbWAOacQXIgkwACAGZs/o3+CwAQAgBAO1z8OOKs3+MQAjRF/Ja/O5p/6BjrAADkanNLDTiMdYAKmQDI2epa+qT5XiEaZAKAWZgEACBH1gA4mjQBkCYBHilFeXzm5e1bJYAOMwkAQI42/N7GkaTDzDQJsKAUAgAOs7q28vKTBhACAECLAoChGiAEaIgVgDybf6P/bWEFgLJYBwAgJ1cvR8yfUAeOyjpASUwA5MnoP2T3jZJJAAAyMnQZIMdiEkAAwL6M/oMQAADa7vETNUAI0AArAHk1/0b/28YKAFWwDgBADq5cijh1Uh04LusAMzABkBej/9AHJgEAyIHLAJmOSQABAEb/QQgAAJ0yfKoGCAFqZgUgj+bf6H9bWQGgatYBAOiyTy9GfPC+OjAt6wDHZAIgD0b/oa9MAgDQZRt+D2MmJgEEAD1j9B8QAgDQVR4HiBCgVlYAut38G/1vOysA1Mk6AABddOlCxJnT6sCsrAMcgQmAbjP6D7xiEgCALtp0GSClMAkgAMiY0X9ACABADtLjAHd31QEhQA2sAHSz+Tf63xVWAGiKdQAAuuTixxFn/b5FaawDHMAEQDcZ/QfezSQAAF2y6TJASmUSQACQCaP/gBAAgNykpwFYA0AIUDkrAN1q/gdRjP77j7grrADQBtYBAOiCC+Nvcc99pA6UzTrAHiYAuuVbzT9wbCYBAOiCdBkglM8kgACgg1bX7ozflxQCEAIAkKXn2xGjHXVACFAhKwDdaP4HYfS/m6wA0DbWAQBoM2sAVKv36wAmALrB6D9QDpMAALSZNQCq1ftJAAFA2xn9B4QAAPRFWgNILxACVMIKQLub/0EY/e82KwC0mXUAANoorQBc8O0vlevlOoAJgHYz+g9UxyQAAG00fKoG1KGXkwACgLYy+g8IAQDoo9HIGgBCgIpYAWhn8z8Io/95sAJAV1gHAKBNzp6JuHheHahLb9YBTAC0k9F/oF4mAQBok+GWGlCn3kwCCADaxug/IAQAoO92d4UACAEqYAWgXc3/IIz+58UKAF1kHQCANrAGQDOyXgcwAdAuRv+B5pkEAKAN0gRAmgSAemU9CSAAaAuj/4AQAABeebEG4JGACAHKZAWgHc3/IIz+58kKAF1nHQCAJp05HXHpgjrQlOzWAUwAtIPRf6CdTAIA0CRrADQru0kAAUDTVtduhdF/QAgAAAeEANYAEAKUxQpAs81/+o/o9+H0P19WAMiJdQAAmnDqZMSVS+pA07JYBzAB0Cyj/0B3mAQAoAnPtyNGO+pA07KYBBAANGV17fr4/bpCAEIAADhEugsAhAAzswLQTPNv9L8vrACQK+sAANTJGgDt0tl1ABMAzTD6D3SbSQAA6pTWANIL2qGzkwACgLoZ/QeEAABwfBtDNUAIMCMrAPU2/0b/+8YKAH1gHQCAOszPR1z9RB1om06tA5gAqJfRfyA/JgEAqMNoZA2ANurUJIAAoC5G/wEhAADM5vETNUAIMAMrAPU0/0b/+8oKAH1jHQCAKs3NRQw+VQfaqvXrACYA6mH0H+gHkwAAVGl3N2K4pQ60VesnAQQAVTP6DwgBAKA8m0/VACHAlKwAVNv8G/3vOysA9Jl1AACqkNYA0tMA5pxl0mqtXAfwWVMto/9Af5kEAKAKL9YATAHQeq2cBBAAVMXoP4AQAIBqbLoHACHANKwAVNP8G/2nYAUACtYBAChbehqANQC6oTXrAD5jqmH0H2AvkwAAlM0aAN3RmkkAEwBlW11bevHBhcQEALzOJAAAZTl1MuLKJXWgSxqfBBAAlNv8p0Tn+/FroBgIAEAIAEDFrl6OmD+hDggBjsgKQLnuav4BDvtmzToAACUZugyQzml0HcAEQFmM/rMfEwBwMJMAAMzKGgDd1cgkgACgnObf6D8CABACANCEFACkIACEAIeyAlAOo/8A07AOAMCsNoZqQFfVvg5gAmBWRv95FxMAcDQmAQCY1vx8xNVP1IEuq20SQAAwW/Nv9B8BAAgBAGiaNQCEAEdiBWA2Rv8BymIdAIBpPX6iBnRdLesAJgCmZfSfozABAMdnEgCA45qbixh8qg7koNJJAAHAdM2/0X8EACAEAKBNLl2IOHNaHRACvIMVgOkY/QeoknUAAI5r86kakIvK1gEEAMdVjP7fUQgAIQAALTLcitjdVQfyCgEEAI02/ymB+VYhAIQAALRMav6HpgDILAT41R9K7T8FAMdj9B9ACABAW21uqQG5uVVmCOASwKNy6z/TcAkglMfFgAAcRXoawJxzTrJzL25euS0AqKf5d+s/AgAQAgDQBRc/jjjr9wqEAPsRjR2N0X+ANrAOAMBhHm+oAbmaeR3ABMBhVtfS7YvfKwRTMQEA1TAJAMC7XL0cMX9CHcjV1JMAJgAO59Z/gNZ9Y2cSAIB3GLoMkKxNPQkgAHiX1bWVKJ6/CIAQAICu2BiqAUKAfVgBOLj5N/rP7KwAQPWsAwCwnyuXIk6dVAdyd6x1ABMABzP6D9AFJgEA2I8pAPrhWJMAAoD9GP0HEAIA0G3Dp2qAEOANVgDebv6N/lMeKwBQL+sAAOxlDYB+OXQdwATA24z+A3SVSQAA9nr8RA3ok0MnAQQAexn9BxACAJAPjwNECPAaKwCvmn+j/5TPCgA0xzoAAMmlCxFnTqsDfbPvOoAJgFeM/gPkxCQAAMmmywDppX0nAQQAidF/ACEAAHlKawC7u+pAX0OArwUArzf/qfG/678NACEAABlKzb9HAtJf1wQArzP6DyAEACBnmy4DBAGA0X8AIQAA+bMGAD0PAIz+AwgBAOhRCGANAPo8AWD0H0AIAEBfPBmqAQKAXv6qjf4DCAGEAAD9svUsYrSjDggAetb8D8bvP/ehBxACCAEAemboMkAEAH2TRv8XfOgBEAIA9MyGNQAEAP2xunZn/L7kww6AEACgh55vWwNAANCT5n8Qbv0HQAgA0G+PN9QAAUAPGP0HQAgA0HceB4gAIHNG/wEQAgCQjEbFKgAIALJs/gdh9B8AIQAAEy4DRACQLaP/AAgBANgTAPgajwAgP0b/ARACAPCm3d2I4ZY6IADIqPkfhNF/AIQAAOxn02WACAByYvQfACEAAPszAYAAIBNG/wEQAgDwLmkNwF0ACAA63/wPwug/AEIAAA6zaQoAAUDXGf0HQAgAwOHSGkCaBAABQAcZ/QdACADAsUIAlwEiAOhi8z8Io/8ACAEAOI4nQzVAANBBRv8BEAIAcDxbzyJGO+qAAKAzVtduhdF/AIQAAEzDIwERAHSm+U+n/l/7UAIgBABgKhvWABAAdIXRfwCEAABM7/m2NQAEAK23unZ9/H7dhxEAIQAAM3m8oQYIAFrc/KdT/299CAEQAgAwM48DRADQakb/ARACAFCO0ahYBQABQMsY/QdACABA2VwGiACgdc2/0X8AhAAAVBAA+LqNAKBtjP4DIAQAoHy7uxHDLXVAANAKRv8BEAIAUKVNlwEiAGhD82/0HwAhAADVMgGAAKAVjP4DIAQAoFppDcBdAAgAGmT0HwAhAAB12TQFgACgqebf6D8AQgAA6pPWANIkAAgAamf0HwAhAAA1hwAuA0QAUC+j/wAIAQBowpOhGiAAqLH5N/oPgBAAgGZsPYsY7agDAoCaGP0HQAgAQHM8EhABQA1W15bC6D8AQgAAmrRhDQABQNXNv9F/AIQAADTv+bY1AAQAFbs7fg18aAAQAgDQuMcbaoAAoBLF6P8dHxYAhAAAtILHASIAqKT5N/oPAEIAgHYZjYpVABAAlMroPwAIAQDax2WACABKZPQfAIQAAK0NAHwtRgBQVvNv9B8AhAAA7bW7GzHcUgcEACUw+g8AQgCAdtt0GSACgNkY/QcAIQBAF5gAQAAwU/Nv9B8AhAAA3ZDWANwFgABgakb/AUAIANAdm6YAEAAcn9F/ABACAHRNWgNIkwAgADhy82/0HwCEAAAdDQFcBogA4DiM/gOAEACgm54M1QABwJEY/QcAIQBAl209ixjtqAMCgEOaf6P/ACAEAOg+jwREAHAoo/8AIAQA6L4NawAIAA62unYtjP4DgBAAIAfPt60BIAB4B6P/ACAEAMjH4w01QADwltW1lfH7NaUGACEAQDY8DhABwFvNf2r87yozAAgBALIyGhWrACAA+BOj/wAgBADIk8sAEQC8ZPQfAIQAADmzBoAAIIz+A4AQACB/aQ1guKUO9DwAMPoPAEIAgD7YNAVAnwMAo/8AIAQA6AsTAPQ2ADD6DwBCAIA+2d0VAtDTAMDoPwAIAQD65omvqfQtADD6DwBCAIA+ShMAaRIAehEAGP0HACEAQK9DAJcB0pcAwOg/AAgBAPps0z0A9CEAMPoPAEIAgL5LawCjHXUg4wDA6D8ACAEAeBUCQLYBgNF/ABACAFDYGKoBmQYARv8BQAgAwCvPt60BkGEAsLo2GL//XPkAQAgAwB6mAMguAChG/xeUDwCEAADsDQB87SSnAGB17c74fUnpAEAIAMAbRqNiFQA6HwC49R8AhAAAvJs1ADofABR7/9+F0X8AEAIAcLDhUzWg4wFAxG80/wAgBADgEGkNYLilDnQ0AFhd+zo88g8AhABCAICj2TQFQBcDgNW1pfH7HaUCAIQAAEdkAoBOBgDFI/8AAIQAAEe1uysEoGMBQPHIv4EyAQBCAIBjeuLrJF0JAFbX0oV/HvkHAAgBAKaRJgDSJAC0PgCIuB5u/QcAhAAAM4QALgOkGwGA038AQAgAMItN9wDQ9gCguPl/oDwAgBAAYAZpDWC0ow60OACI+JnSAABCAICSQgBocQBwXWkAACEAQAk2hmpASwOAYvzf5X8AgBAAoAzPt60B0NIAIGJJWQAAIQBAiUwB0NIA4D8qCwAgBAAoMwDw9ZB2BgDXlAUAEAIAlGg0KlYBoDUBwOraIOz/AwBCAIDyWQOgVQFAxEBJAAAhAEAFhk/VgFYFAMb/AQAhAEAV0hrAcEsdaE0AYPwfABACAFRl0xQA7QkAzikJACAEAKiICQBaFABYAQAAhAAAVdndFQLQmgAAAEAIAFClJ772IQAAAIQAAPlLEwBpEgAEAACAEAAg9xDAZYAIAAAAIQBA/jbdA4AAAAAQAgDkL60BjHbUgUYDgEdKAgAIAQBqCgGgwQDgL5UEABACANRgY6gGNBoAAAAIAQDq8HzbGgCNBgDrSgIACAEAamIKAAEAAIAQAOhDAOBrHAIAAAAhAJC/0ahYBYDaA4C7XwgAAAAhAECdrAHQSABQeKAsAIAQAKAmw6dqQGMBwLqyAABCAICapDWA4ZY60EgA8JfKAgAIAQBqtGkKgGYCgAfKAgAIAQBqZAKARgKAu188HL8/UhoAQAgAUJPdXSEADQQAhQdKAwAIAQBq9MTXM5oJAH6nNACAEACgRmkCIE0CQM0BwAOlAQCEAAB1hwAuA6TuAKC4B2BdeQAAIQBAjTbdA0DdAUDhvvIAAEIAgBqlNYDRjjpQewDwS+UBAIQAAA2EAFBrAGANAAAQAgDUb2OoBtQcABSsAQAAQgCAOj3ftgZAIwGANQAAQAgAUDdrANQeABRrAA+VCQAQAgDU6PETNaDmAKDwC2UCAIQAADUajYpVAKg5AEj3ADxSKgBACABQI5cBUnsAcPeL1PzfUyoAQAgAUKPhUzWg5gCgYA0AABACANQprQE8faYO1BwA3P1iPUwBAABCAIB6bfhaRd0BQGFVuQAAIQBAjTwOkEYCgGIK4IGSAQBCAICa7O4KAWggACiYAgAAhAAAddp0GSBNBAB3v3gQ7gIAAIQAAPVJjwNMkwBQawBQMAUAAAgBAOrkkYA0EgB4IgAAIAQAqNemewCYysPZAoDCV+PXI7UEAIQAADVIFwFaA+D4Hs8eANz9IjX/v1BLAEAIAFCTDV+XmM3c1H/n3S9Wxu/rSggACAEA6ggAhmpAQwFA4bYSAgBCAIAaPN+OGO2oAw0FAB4LCAAIAQDqM3QZIE0FAAUXAgIAQgCAOjx+ogY0GAAUFwJaBQAAhAAAVRuNilUAaCQAKEKA++P3+8oJAAgBACrmMkAaDQAKaQpgXUkBACEAQIWGT9WAhgMAqwAAgBAAoHppDeDpM3WgwQCgCAEejN9XlRUAEAIAVGjD1x+aDgCKEGBl/P5AaQEAIQBARTwOkFYEAIUb4dGAAIAQAKAau7tCAFoSABT3AXypvACAEACgIpsuA6QNAUARAjwMlwICAEIAgGqkxwGmSQBoPAAoQoB74/d7ygwACAEAKuCRgLQmAChCgDQF8ECpAQAhAEDJNt0DQJsCgEK6FPChcgMAQgCAEqWLAK0B0KoA4NWlgOtKDgAIAQBKtOFrDW0KAF6FAB4PCAAIAQBKDQCGakDLAoAiBEhrAF8KAQAAIQBASZ5vR4x21IGWBQBCAABACABQvqHLAGljACAEAACEAADlevxEDWhpACAEAACEAADlGY2KVQBoZQAgBAAAhAAA5XEZIK0OAIQAAIAQAKAcw6dqQMsDACEAACAEAJhdWgN4+kwdaHkAIAQAAIQAALPb8DWFLgQAr0KA2z4sAIAQAGAKHgdIZwKAIgS4LwQAAIQAAFPY3RUC0KEAoAgB7gkBAAAhAMAUNl0GSJcCACEAACAEAJhOehxgmgSAzgQAQgAAQAgAMB2PBKRzAYAQAAAQAgAc36Z7AOhiACAEAACEAADHky4CtAZAJwMAIQAAIAQAOJ4NXz/oagAgBAAAhAAAxwgAhmpAhwMAIQAAIAQAOJrn2xGjHXWgwwGAEAAAEAIAHM3QZYB0PQAQAgAAQgCAwz1+ogZkEAAIAQAAIQDAu41GxSoAdD4AEAIAAEIAgHdzGSDZBABCAABACABwsOFTNSCjAEAIAAAIAQD2l9YAnj5TBzIKAIQAAIAQAGB/G75OkFsAIAQAAIQAAG/zOECyDACEAACAEADgdbu7QgAyDQCEAACAEADgdZsuAxQA5EwIAAAIAQAKaQIgTQIgABACAAAIAYCMvVgDMAUgABACAAAIAYD8bboHQAAgBAAAEAIA+bMGIAAQAgAACAGAvoQA1gAEAEIAAAAhAJC/xxtqIAAQAgAACAGA7D3fjhjtqIMAQAgAACAEALI3dBmgAEAIAAAgBADytzFUAwGAEAAAQAgAZC+tAaQXAoCehgCrCgEACAGA3jAFIADocQiwMn6/pxAAgBAA6AWPAxQA9DwEuC0EAACEAEAvjEbWAAQAQgAhAAAgBAB64fETNRAACAGEAACAEADInscBCgAQAgAAQgCgB3Z3hQACAIQAAIAQAOiFTZcBCgAQAgAAQgAgf2kCIE0CIABACAAACAGAjL1YAzAFIABACAAACAGA/G26B0AAgBAAABACCAEgf9YABAAIAQAAhADQlxDAGoAAACEAAIAQAPL3eEMNBAAIAQAAhACQvefbEaMddRAAIAQAABACQPaGLgMUACAEAAAQAkD+NoZqIABACAAAIASA7KU1gPRCAIAQAABACACZMwUgAEAIAAAgBIAe8DhAAQBCAAAAIQD0wGhkDUAAgBAAAEAIAL3w+IkaCAAQAgAACAEgex4HKABACAAAIASAHtjdFQIIABACAAAIAaAXNl0GKABACAAAIASA/KUJgDQJgAAAIQAAgBAAMvZiDcAUgAAAIQAAgBAA8rfpHgABAEIAAAAhAOTPGoAAACEAAIAQAPoSAlgDEAAgBAAAEAJA/h5vqIEAACEAAIAQALL3fDtitKMOAgBK8NX49VAZAAAhANBaQ5cBCgCY3d0vHo3fvxQCAABCAKC1NoZqIABACAAAIASA7KU1gPRCAIAQAABACACZMwUgAEAIAAAgBIAe8DhAAQBCAAAAIQD0wGhkDUAAgBAAAEAIAL3w+IkaCAAQAgAACAEgex4HKABACAAAIASAHtjdFQIIABACAAAIAaAXNl0GKABACAAAIASA/KUJgDQJgAAAIQAAgBAAMvZiDcAUgAAAIQAAgBAA8rfpHgABAEIAAAAhAOTPGoAAACEAAIAQAPoSAlgDEAAgBAAAEAJA/h5vqIEAACEAAIAQALL3fDtitKMOAgCEAAAAQgDI3tBlgAIAhAAAAEIAyN/GUA0EAAgBAACEAJC9tAaQXggAEAIAAAgBIHOmAAQACAEYe+xTDACEAJA5jwMUACAEYGz7PTUAACEA5G00sgYgAEAIAAAgBIBesAYgAEAIAAAgBIA+BAA+5wQACAEAAIQAkL/d3YjhljoIABACAAAIASB7my4DFAAgBAAAEAJA/kwACAAQAvT7i6BPMQAQAkBPpDUAdwEIABAC9NamTzEAEAJAn77/NQUgAKCNIcCN8euRYgAAQgCgNGkNIE0CIACgVSHAehSTAEIAAEAIAJQYArgMUABAG0OAh0IAAEAIAJTqyVANBAAIAQAAhACQva1nEaMddRAAIAQAABACQPY8ElAAgBCgdzbfUwMAEAJA/2xYAxAAIAToXQDgUwwAhADQQ8+3rQEIABACAAAIAaAXHm+ogQAAIQAAgBAAsudxgAIAhAAAAEIA6IHRqFgFQACAEAAAQAgAmXMZoAAAIQAAgBAA+hAA+DwSACAE6BNPAgAAIQD01e5uxHBLHQQACAEEAACAEADy/37YZYACAIQAAABCAMifCQABAEIAAAAhAPRAWgNwF4AAACEAAIAQAHpg0xSAAAAhQB949CkACAGg79IaQJoEQACAECBrj0+oAQAIAYChywAFAAgBAACEAJC/J0M1EAAgBMjc8/fUAACEAMDWs4jRjjoIABACZMwKAAAIAYCCRwIKAMgqBPh8/Ppq/FpXEABACAC8ZsMaQJPMJlOd1bVr4/efjV/Xx69Br2tx4x/89wAAufubUxF/8aE6wGGuXo6YNyVbV1cWN6+sCACoOwxY2hMGLAgAAAAhAPTUuY8iLiyogwCAnoQBKQT46fh1qze/5p9sRvxw5GMPAEIAYH4+4uon6tBAAOAOAOp394v749ft8R+dH7/Sj/cVBQDIhjsB4N1Go4jn2+rQABMAtMPqWpoBuhXFmsC17H59/+JZxD9/5uMMAH1iEgAOZg2gtk7LCgBtDwMGUdwVkE8Y8KPnEYtPfWwBQAgAJHNzEYNP1UEAAK+FAXk8SeCHOxE/8cgTABACAH9y6ULEmdPqIACAA8OAn0cXnyRw8o8R/3XDxxAAhADAxNkzERfPq4MAAA4NAyZPEuhOGJACgBQEAABCAMAaQAMBgKcA0E2vniTwWXTlSQKPT/i4AUCfeToAvG53N2LD50SdTACQj+JJAmkiIK0JtO/ywHQJYLoMEADoN5MA8Eq6AyDdBUBlXZIVAPoQBgyibU8SuLod8e+2fGwAACEA7JXWAOYMpwsAoLwwYHJ54KCxn8e5nYg/8yQAAEAIAK+5+HHEWZ8LAgAoPwyYPFbwVjRxeeCNf/AxAACEALDX6fcjLl9UBwEAVBoG1P8kgZ9sRvxwpPYAgBAA9rp6OWLepdkCAKgnDLi1JwyojosAAQAhALztwkLEuY/UoeIAwE0LkNz94t74dWP8R+ejeKzgg0r+PY+kmgDAPjwikL7bcFdWHUwAwEGqeJLAh7sR//mJ2gIA+zMJQJ9ZA6ikq7ECANOFAbdehgGDmf5ZKQBIQQAAgBAAXkkrABcW1EEAAK0KAyZPEpjusYL/YTPisosAAQAhALxmfj7i6ifqIACA1oYBx3+SQLoEMF0GCAAgBIDXWQMQAECHwoDJZMDBzu1E/JlLTgAAIQC85vT7EZcvqkOFAYCnAEBZ7n5x/40nCdzf9697fCJiW/YGAByBpwPQJx+dUYOK6UKgSgc9ScA9AADAcZgEIHf2/yvrSKwAQLNhwM9P/tPtwfa/3lITAEAIAEm6/T89BQABAORmae1/rJy8uHv3f20/jb/deR7bf/yjogAAQgD6aW6uOP2fs6FedQCgwtCAi5feu78wdyL+/ftn4vqH5+OLDz6Kwfz7cfI9mRwA8A7uBCBHZz/U/NdElaEBv/7Rjx+Of3g0+fN/cuLUn8KA9GP6cwAAIQC9cO6sGtRkXgmgMekpAbfe/B/TJEB6pbWAtB6wPnoe/3dnW7UAgNdDgMQ6AF139sy4Kz2hDgIAyN7v9gsAJtI6wCQMGP5xN/5ulMKAZ/Fod0flAAAhAJkEAP77rZMVAGjO/aP+hWfem4t/dvKD+E+nz8V/+XDhxR+n/w0AEAJYB6CzTr8f8cH76iAAgPz9+kc/TncAPDzu35ca/2unPnwRBKRAIIUBLg8EACEAdM5HZ9SgZlYAoFm/Hb+uTfs3pycJpDAgvdJ9AX832vZYQQDoawiQWAegM53ovPH/BpgAgGbdL+sf5EkCACAEMAlAZ5z7SA0EANAvLx8HuF72PzddHPjFBx/9KQy4eOKkYgOAEABa0oXOOf1viBUAaN6DeMfTAGbhSQIA0NMQILEOQFul5n/OWXQTVB2a99s6/iWeJAAAPQsBTALQVufOqoEAAPrp1z/6cboH4FGd/05PEgAAIQA04uyZiPkT6iAAgF6739S/ePIkgXRfQLo3IK0LCAMAQAgA1QQAVlMEAMBv2/CT8CQBABACQGVOnYz44H11aJBjPmiJ//a//+ffj39YaNvPa/uPf4y/3XkefzfafvEjANBRf3PKxYA06+LHJgDqtxo3r6xM/sRTAKA90hrArbb9pDxJAAAy4ekANGl+XvPfhg+DEkBr/LaNAcBekycJpFcKA/569CzWt5+9+GMAQAgAB9L8t4I7AKAlmngawKxhwL88efq1Jwl4rCAAdCQEcCcAtXad4+8Rz32kDgIA4A33u/iTnjxJIIUBniQAAEIAeM2Z00UIgAAAeM1vu/4L2PskgRQGeJIAAAgB6LnzP1ADAQDwpq6tARwlDEghgMcKAoAQgJ5Kp//zJ9RBAAAc4F5uv6DJkwRSGJDWBNK6QFobAACEAGTO7r8AAHinX+b8i5s8SSBdHJjCgH916rTLAwFACECOTp2M+OB9dRAAAAf59Y9+/HD8w3offq2eJAAAQgAydu6sGggAgCP4Rd9+wZ4kAABCADIyPx9x9kN1EAAAR3C/z794TxIAACEAHaf5FwAAR/OP7N3PblzHlQfgMtn8Z4ay2gbhkWM4Ei6cRbKRFnPXynZmYy28CzDSG0RPMNYTRPMEodZ3EfoJ0tl6kXBvGNOeQbwxMOAmgCVS0twi2TYtkewm2X9uVX0fcNGWg8T2aTlS/e45dZqqHpYeApwOA2wSAAAhACmdMpdc/tdRPSWAzoqXAX6mDMdGmwTi88/Xr8J3hy/C8PB52H/1UnEAYFYhQPQ3b3K5pLj6b8m75i7yrUBHNVUdOwCGKnHGrylvbBKIdwe4PBAAZhQC6ATgsvo31EAAAFyBMYAJwwCbBABACEAXfnO2EUJvWR0EAMAV/JcSTO70JoH76zdsEgAAIQDzZvZfAABcjcsAr257ufezTQIxDAAAhADM0OpKCOt+zyUAAK7jmRJcz+m1gjYJAIAQgBl5b0sNBADAdbgMcHpGmwRGawXjuEAcGwAAhABcU68XwpaNEQIAYBp0AcwgDLBJAACEAEyJw78AAJiap0owOzYJAIAQgGty+Z8AAJiOpqr3248dlZg9mwQAQAjAJW1ttidLR0sBADBNVgLOmU0CACAEYAL9G2ogAACmqanqvfZjoBKLYZMAAAgBOMPGWgg9lyqnoqcEkJR4GeB9ZVic0SaB+By8fh2Gh8+Pnv1XLxUHACFA9DeXwRXF2/+k6ACAhDRVvROsBOxUGGCTAAC8EQLoBChHXP23bkRSAADMkrsAOsgmAQAQAhTH238BADBzO+2zrwzddXqTQAwDbBIAQAhAfifJ9ii5ZdxDAADM1MlKQF0ACYUBb24SEAYAIAQgee/9Qg0EAMCc7ChBekabBP5946ZNAgAIARAAIAAAxmuqeigESNdok0DsCBitFYydAgAgBCAJW5vHIwAkxxpASNeT9nmoDHmEAfH55+tX4bvDF9YKApBnCBBZEZgHl/8lS2wDidIFkJ/RJoF4caBNAgBkGQLoBEjfxloIPZ2LAgBgEZ4oQZ5sEgBACEAnefsvAAAW46QLYKAS+YcBNgkAIARg4Xq9ENbX1CHlr1AJIHmxC+C+MpQhbg6Iz93X74Z/vHwRvjs8OPoEgORCgMidAGnx9j95OgAgcU1VD4IugOLYJABAFiGAToCETo7t0XFLYJM6HQCQB10AwgCbBABIMwSIdAJ033u/UIMM6ACADOgCYMQmAQCSDAF0AggAmAsdAJAPXQD8zGiTQHxiN8DXBz8c3Rdw8Pq14gDQvRAg0gnQTVubxyMAJM+3CJk46QLYVQnOCwNsEgCg8yGAToBucvmfAADopMdKwDhxi8AoDIif8ccAIATgTBtrIfRcNCwAADqnqeph+7GjEkzqzU0C28srigKAEICf3DD7nxN3AEB+4l0AD5WBy7BJAIDOhQCROwEWfFpsj4ubG+qQER0AkJmTLoCnKsFVnd4k8G/v3rRJAIDFhQA6ARbL7L8AAEhC7ALYVwamEQbELQIxCBitFXR5IABCgBJOiu1RcXNdHQQAQNc1VR0P//+lEkzTaK2gTQIACAEK8N4vrP4TAAAJiWMAQ2VgFmwSAEAIkLmtTTUQAACpOOkCeKISzJpNAgAIATI8/Fv9JwAAkgsBdtqPPZVgHkabBO6vbx3dGRDHBeLYAAAIARLzntV/ubIGEPL3uH3+ogzM02iTQHziWsGvD344Wi0Y/xgArh0CRFYEzsbGWgiruvlypQMAMtdU9aD92FUJFhkG2CQAwNRDAJ0As3HD238BAJC62AVgLSALZ5MAAEKADuv1QtjcUAcBAJCypqqHwVpAOsYmAQCEAB3Tv6EGmXMHAJQjrgX8j/a5rRR0TewEiM/B69fhHy9fhOHhi/D9ywOFAWCyECByJ8D1LC2FsLmuDrl/zUoAZThZC/hYJegymwQAuHIIoBPgeuLN/0uOhwIAIKcQIF4G6EJAkjDaJBAvDoxhwG9XN47+HAAIAWZga1MNCmAEAMoTuwDut89NpSClMOA3KxtHz/6rl2F4+NxaQQDODgEi4wCXP/z3dNyVwKsUKIwLAUndaJNA7AqwSQCAM0MAnQCX857Vf6XwOyYo1OfffPX39uOuSpCLeHngtwcvjj4BIPzPqk6ASWyshXBrWx3y9ST8/uMvRj8wAgDliqMAf1EGchHXCMZntEngu8MDYQBAyYwDTOaGt/8lMQIAhWqqehCOVwNCVkabBOJ4gE0CAEIA4wAX6PVC2NxQh5K+ciWAoj1pn8/a57ZSkKPRJoH4xAsDvz18HoYHz10eCFBaCBDpBHhb/4YaFEYHABSsqer99uORSlBKGBC3CMSugLhaMIYC1goCFBQC6AR44yTY/hq4ua4OAgCgsBBgEIwCUBibBACEAMWLN/8vOQ4KAIASxVGAoTJQonhx4L+ubYbP3u0fhQHxxwAIAbK3takG+dtrn8HpP+F1B3Dk82++uh9sBYAjNgkAZK70FYHx8L/d9/MgT7vt8+XR5+8/3n/zPxQAAKdDgD+2H39QCfhJvDDwu8MXYXj4POy/eqkgAEKA9H20HcL6mp8DeYiH/MFFh34BAHBRCPD39uOuSsDZYYBNAgBCgKRttAf/W9u++/QP/cdv+n//8e5l/osCAODNACAe/v+uEjDmV95XL4+6AmJ3gDAAQAiQjO33Q9iyEjFBwzB603/JQ78AABgXAsQxgD+qBEzm+5eHR2FAvC8g3h8AgBCgk3q9ED75F993Wof+eNh/1h7696bxPygAAM4LAf7cfnymEnA5o8sDYyAAgBCgUz64ebz+jy4b3dw/tUO/AACYJABof4UI/90+N1UDLs8mAQAhQKcsLR2//V+yCb6jh/5n4fgSv+Es/0ICAOCiEOB+sBoQphIGxI4AmwQAhAALE9/8f+C9TofE1v6/zuPQLwAALhMCfNF+/KdKwHSM1gp+ffCDywMBhADz88mtEHrLvtvFH/onWtcnAAAWGQK4DwBmwCYBACHAXGxthrDd950u4Jf68PM3/fuL/hsSAACTBACxXyyuBrytGjAbNgkACAFm5qPtENbXfJ/zPfRfa12fAABYdAhwNxzfB2B4DGbMJgEAIcDUbLQH/1vbvsfZGp469A+6/DcqAAAuEwI8bD/+pBIwHzYJAAgBrm37/RC23vUdzu7QP5N1fQIAoCshwBfBpYCwkDDAJgEAIcCl9HrHq/+YltG6vkFKh34BAHDdECB2ATxUCVgMmwQAhAATiWv/4vo/pnHon+u6PgEA0KUAIN4DEO8DuKsasFg2CQAIAc60tHT89j9+clmjdX2DHA79AgBgWiGAzQDQITYJAAgBfhTf/H/g7uYrHPo7sa5PAAB0MQSwGQA66vTlgcIAgAJDgE9uhdBb9j2dr9Pr+gQAgBAAuDSbBAAKDAG2NkPY7vt+HPoFAMBMQoCHwXpASCYMiJcH2iQAkHEI8NF2COtrvptjw5Dguj4BACAEAKZmtEnAWkGAzEKAjfbgf2vbod+hXwAACAGAt9kkAJBRCLD9fghb75b4DWS1rk8AAAgBgLmEAXFEwOWBAAmGAL3e8eq/cgzCTzf3O/QLAAAhAHBVNgkAJBYC9G8cP3krYl2fAAAQAgALYZMAQAIhwNLS8dv/+JmXeMgfOPQLAAAhALCgMMAmAYCOhQB5rf4rfl2fAAAQAgCdYpMAQIdCgE9uhdBbTrlaw5ND/18d+gUAgBAA6DCbBAAWGAJsboTw4QcpH/qt6xMAAEIAINUwwCYBgDmGAB9th7C+lko14kF/NM/v0C8AAIQAQC5sEgCYcQiwuhLCxx+mcOh/FqzrEwAAQgAgfzYJAMwoBNh+P4Std7v4T3s8z+/QLwAAhABCABAGDA9fhO9fHigIIAS4ql7vePVftw791vUJAACEAMDbbBIAhADX0L9x/CzO/qlD/8ChXwAAIAQAJg4D4uWBNgkAQoAJLC0dv/2Pn4s69FvXJwAAEAIA1/7d5clawfi4PBAQApxhazOE7f68/k6Hpw79A1+cAABACADMhE0CgBDgDJ/cCqG3PI9D/zPr+gQAAEIAYO5iR4BNAkDxIcDmRggffjCLv5PRur6BQ78AAEAIAHSCTQJA0SHAR9shrK9N+9BvXZ8AAEAIAHSbTQJAUSHA6koIH3943b+SdX0CAAAhAJB+GGCTAJB1CLD9fghbV7o40KEfAQAgBADyZJMAkF0I0Osdr/6b8P8Gg3V9CAAAIQBQGpsEgCxCgP6N4+d8wxAv8HPoRwAACAEAbBIAEg0BlpaO3/7Hz7cP/db1IQAAhAAA57FJAEgqBNjaDGG7P/qz8aA/cOhHAAAIAQAuySYBoMtW/nctLP3fr/aev7NqXR8CAEAIADDNMODbeHngwXObBICF2nxnKfxmdSPc7q3FH/abqnZ7PwIAQAgAMAujTQLWCgLztL28En67stF+9kZ/arc9/D9QGQQAgBAAYA5sEgBmLb7pj2/845v/NzxqqnpHhRAAAEIAgAWEAd8evLBJALi2lXfeCb9eWQ+f9taP/vgc2v8RAABCACEAsEijTQLWCgKX9cZ8/0UG7eH/dyqGAAAQAggBgI6wSQCYxBnz/eM8bqr6qcohAAAQAgAdDQNsEgBGYmv/L5dXz5vvH+dOU9VDVUQAACAEADrOJgEoVzzs315ZGzfff5G99vB/TyURAAAIAYDE2CQAZbi5tBw+XVmfZL5/HO3/CAAAhABADmGATQKQl9jmHw/+l5jvH0f7PwIAACEAkAubBCBt15zvv4j2fwQAABOGAPfbjz+3z03VAFJhkwCkYwrz/eM8aar6C5VGAAAwWQhwt/34ixAASDUMsEkAumeK8/3j3Guqek/FEQAACAGAgtgkAIs3g/n+iwzbw/8dVUcAACAEAAr2/cvDozDAJgGYvRnO94/ztKnqx74BBAAAQgCAI6PLA2MgAExPPOyP2vxnNN8/jvZ/BAAAQgCAt9kkANOxvbzSHvpX5zHffxHt/wgAAIQAAJOFAbEjwCYBmFw88MdnTvP942j/RwAAIAQAuJzRWsGvD35weSC8Ibb2x0N/bPWf83z/OA+aqt71DSEAABACAFyJTQJwrAPz/Rf+q9oe/vu+JQQAAEIAgKmwSYASdWS+f5ydpqof+bYQAAAIAQCmziYBctex+f5xtP8jAAAQAgDMlk0C5KTD8/0X0f6PAABACAAw/zDAJgFS1PH5/nG0/yMAABACACyOTQKkIM73f7qyFn65vJryP8ajpqp3fJsIAACEAAALZ5MAXTNq87+5tJzDP06/qep93yoCAAAhAECn2CTAosTW/l+3h/5ftYf/hOb7x9ltD/8PfLsIAACEAACdZpMA8xAP+79Z3Thq809wvn8c7f8IAACEAADpsEmAWchkvn8c7f8IAACEAABphwHx8kCbBLiKzOb7L6L9HwEAgBAAIA+jTQLWCjJOpvP94zxuqvqpbx8BAIAQACArNglwlszn+8e501T10M8CBAAAQgCArMOAOCJgk0C5Cpnvv8hee/i/52cCAgAAIQBAMU5fHigMyF9B8/3jaP9HAAAgBAAok00C+RrN93/aWy+xzf882v8RAAAIAQCwSSAPo/n++Nafn9H+jwAAQAgAwJtsEkhPnO//7cpG+9lTjLM9aar6C2VAAAAgBADgHDYJdFt80x/f+Be0xu+q7jVVvacMCAAAhAAATBgG2CSweOb7L23YHv7vKAMCAAAhAABXYJPA/Jnvv7KnTVU/VgYEAABCAACuwSaB2TPff23a/xEAAAgBAJhFGGCTwHSY758K7f8IAACEAADMkk0CVxMP+7dX1sz3T4/2fwQAAEIAAOYZBsSuAJsEzndzaTl8urJuvn/6HjRVvasMCAAAhAAAzNlorWB8XB4Ywi+XV48O/ub7Z/PTrT3895UBAQCAEACABSt1k0Bs7Y8Hf/P9M7fTVPUjZUAAACAEAKBDYkdA7psEzPfPnfZ/BAAAQgAAumq0SWB4+CJ8//Igi38m8/0Lof0fAQCAEACAVKS+ScB8/0Jp/0cAACAEACDVMCCFTQLm+ztD+z8CAAAhAACp6+ImAfP9ndNvqnpfGRAAAAgBAMjEojcJbC+vhNu9VfP93bLbHv4fKAMCAAAhgBAAIFPz3CQQD/zxMd/fSY+aqt5RBgQAAEIAIQBA5ma1SSC29sdDf7zYz3x/p2n/RwAAwI8hwJ/b57ZqAORvGpsE4mF/tMbPfH/naf9HAADAz0KA2AEQOwHuqgZAWWHAZTYJmO9PkvZ/BAAACAEA+Mlok8BZYYD5/qTdaap6qAwIAAAQAgDwltEmgdjeb74/aXvt4f+eMiAAAEAIAAB5e9xU9VNloCtEiQAdc3JL8O/aZ081ACBpu0pAl+gAAOgonQAAkDTt/3SODgCAjtIJAABJe6YECAAAEAIAQP4GSkDXGAEASIBxAABIyrCp6jvKQNfoAABIgE4AAEiKy/8QAAAgBACAApj/p5OMAAAkxjgAAHSa9n86SwcAQGJ0AgBAp2n/RwAAgBAAAArwpRLQVUYAABJmHAAAOmW/qeq+MtBVOgAAEqYTAAA6Rfs/AgAAhAAAUADt/3SaEQCATBgHAICF0v5P5+kAAMiETgAAWCjt/wgAABACAEABtP8jAABACAAABRgoAV3nDgCATLkTAADmZrep6gfKQNfpAADIlE4AAJgb7f8kQQcAQOZ0AgDAzPVPgncQAAAgBACATGn/JxlGAAAKYBwAAGZG+z8CAACEAABQgIESkAojAACFMQ4AAFOz11T1PWUgFToAAAqjEwAApuaZEiAAAEAIAAD521UCUmIEAKBgxgEA4Mq0/5McHQAABdMJAABXpv0fAQAAQgAAKID2f5JjBACAI8YBAGBiw6aq7ygDqdEBAMARnQAAMDFv/xEAACAEAIACmP8nSUYAAHiLcQAAOJf2f5KlAwCAt+gEAIBzaf9HAACAEAAACqD9n2QZAQDgQsYBAOBH+01V95WBVOkAAOBCOgEA4Efa/xEAACAEAIACfKkEpMwIAAATMw4AQMG0/5M8HQAATOxUJ8COagBQGO3/JE8HAABX8vk3X/2p/XioEgAU4kFT1UIABAAACAEAIGft4d/ZieQZAQDgOr8ZehSMAwCQP2/+EQAAgBAAgAK4/Z8saGMBYCqMAwCQsf7JRbggAAAAIQAAmdptD/8PlIEcGAEAYGqMAwCQIe3/ZEMHAABTpxMAgIxo/0cAAABCAAAyt9ce/u8pA7kwAgDATBgHACADz5QAAQAACAEAyN+uEpATIwAAzJxxAAASpP2f7OgAAGDmdAIAkCDt/wgAAEAIAEABtP+THSMAAMyVcQAAEjBsqvqOMpAbHQAAzJVOAAAS4O0/AgAAEAIAUADz/2TJCAAAC2McAIAO0v5PtnQAALAwOgEA6CDt/wgAAEAIAEABtP+TLSMAAHSCcQAAOkD7P1nTAQBAJ+gEAKADBkqAAAAAhAAA5O9LJSBnRgAA6BzjAAAswH5T1X1lIGc6AADoHJ0AACyA2/8RAACAEACAAmj/J3tGAADoNOMAAMyB9n+KoAMAgE7TCQDAHAyUAAEAAAgBAMif9n+KYAQAgGQYBwBgRvpNVe8rAwIAABACAJCv3fbw/0AZKIERAACSYhwAgCnT/k8xdAAAkCSdAABMifZ/BAAAIAQAIHOD9vD/O2WgFEYAAEiWcQAArkn7PwIAABACAFCAXSWgJEYAAMiCcQAALmmvqep7ykBJdAAAkAWdAABc0jMlQAAAAEIAAPKn/Z/iGAEAIDvGAQAYQ/s/RdIBAEB2dAIAMMZACRAAAIAQAID8mf+nSEYAAMja59989cf24w8qAcCJYVPVd5SBEukAACBr7W/yHrcfj1QCgBMu/0MAAAAZhwA7QgAATmj/p1hGAAAoxufffPWw/fiTSgAUS/s/RdMBAEAxdAIAFG+gBAgAAEAIAED+vlQCSmYEAIAiGQcAKM5+U9V9ZUAAAABlhgCftR93z/iPftU+t1WIwtw8598HyMVOU9U6wCja/wswABFdt1Ym11DiAAAAAElFTkSuQmCC;fontSize=18;" vertex="1" parent="1">
                    <mxGeometry y="220" width="54" height="54" as="geometry"/>
                </mxCell>
                <mxCell id="13" value="Flutter" style="shape=image;verticalLabelPosition=bottom;labelBackgroundColor=#ffffff;verticalAlign=top;aspect=fixed;imageAspect=0;image=data:image/jpeg,/9j/4AAQSkZJRgABAQAAAQABAAD//gA7Q1JFQVRPUjogZ2QtanBlZyB2MS4wICh1c2luZyBJSkcgSlBFRyB2NjIpLCBxdWFsaXR5ID0gODAK/9sAQwAGBAUGBQQGBgUGBwcGCAoQCgoJCQoUDg8MEBcUGBgXFBYWGh0lHxobIxwWFiAsICMmJykqKRkfLTAtKDAlKCko/9sAQwEHBwcKCAoTCgoTKBoWGigoKCgoKCgoKCgoKCgoKCgoKCgoKCgoKCgoKCgoKCgoKCgoKCgoKCgoKCgoKCgoKCgo/8AAEQgCigNiAwEiAAIRAQMRAf/EAB8AAAEFAQEBAQEBAAAAAAAAAAABAgMEBQYHCAkKC//EALUQAAIBAwMCBAMFBQQEAAABfQECAwAEEQUSITFBBhNRYQcicRQygZGhCCNCscEVUtHwJDNicoIJChYXGBkaJSYnKCkqNDU2Nzg5OkNERUZHSElKU1RVVldYWVpjZGVmZ2hpanN0dXZ3eHl6g4SFhoeIiYqSk5SVlpeYmZqio6Slpqeoqaqys7S1tre4ubrCw8TFxsfIycrS09TV1tfY2drh4uPk5ebn6Onq8fLz9PX29/j5+v/EAB8BAAMBAQEBAQEBAQEAAAAAAAABAgMEBQYHCAkKC//EALURAAIBAgQEAwQHBQQEAAECdwABAgMRBAUhMQYSQVEHYXETIjKBCBRCkaGxwQkjM1LwFWJy0QoWJDThJfEXGBkaJicoKSo1Njc4OTpDREVGR0hJSlNUVVZXWFlaY2RlZmdoaWpzdHV2d3h5eoKDhIWGh4iJipKTlJWWl5iZmqKjpKWmp6ipqrKztLW2t7i5usLDxMXGx8jJytLT1NXW19jZ2uLj5OXm5+jp6vLz9PX29/j5+v/aAAwDAQACEQMRAD8A+qaKKKACiiigAooooAKKKKACiiigAooooAKKKKACiiigAooooAKKKKACiiigAooooAKKKKACiiigAooooAKKKKACiiigAooooAKKKKACiiigAooooAKKKKACiiigAooooAKKKKACiiigAooooAKKKKACiiigAooooAKKKKACiiigAooooAKKKKACiiigAooooAKKKKACiiigAooooAKKKKACiiigAooooAKKKKACiiigAooooAKKKKACiiigAooooAKKKKACiiigAooooAKKKKACiiigAooooAKKKKACiiigAooooAKKKKACiiigAooooAKKKKACiiigAooooAKKKKACiiigAooooAKKKKACiiigAooooAKKKM0AFFFFABRRRQAUUUUAFFFFABRRmigAoozRQAUUUUAFFFFABRRRQAUUUUAFFFFABRRRQAUUUUAFFFFABRRRmgAooooAKKKKACijNFABRRRQAUUUUAFFFGaACiijNABRRRQAUUUUAFFGaKACiiigAooozQAUUUZoAKKKKACiiigAoozRQAUUUUAFFGaKACiiigAooooAKKKM0AFFFFABRRRQAUUZooAMUUZooAKKKKACiiigAooooAKKKKACiiigAooooAKKKKACiiigAooooAKKKKACiiigAooooAKKKKACiiigAxRRRQAUUUUAFFFFABRRRQAUUUUAFFFFABRRRQAUUUUAFFFFABRRRQAUUUUAFFFFABRRRQAUUUUAFFFFABRRRQAUVT1TUrbTLbz7yTYmcDuSfYVj/wDCZ6R/z1l/79mtYUKlRXhFtGU69Om7SkkzpKK5v/hM9I/56y/9+zR/wmekf89Zf+/Zq/qlf+R/cR9bo/zr7zpKK5v/AITPSP8AnrL/AN+zR/wmekf89Zf+/Zo+qV/5H9wfW6P86+86Siub/wCEz0j/AJ6y/wDfs0f8JnpH/PWX/v2aPqlf+R/cH1uj/OvvOkorm/8AhM9I/wCesv8A37NH/CZ6R/z1l/79mj6pX/kf3B9bo/zr7zpKK5v/AITPSP8AnrL/AN+zR/wmekf89Zf+/Zo+qV/5H9wfW6P86+86Siub/wCEz0j/AJ6y/wDfs0f8JnpH/PWX/v2aPqlf+R/cH1uj/OvvOkpK5z/hM9I/56y/9+zR/wAJnpH/AD1l/wC/Zo+qV/5H9wfW6P8AOvvOkorm/wDhM9I/56y/9+zR/wAJno//AD1l/wC/Zo+qV/5H9wfW6P8AOvvOkorm/wDhM9I/56y/9+zR/wAJnpH/AD1l/wC/Zo+qV/5H9wfW6P8AOvvOkorm/wDhM9H/AOesv/fs0f8ACZ6R/wA9Zf8Av2aPqlf+R/cH1uj/ADr7zpKKr2N0l5bJPEriNxld67SR64qxWDTTszdNNXQUUUUhhRRRQAUUUUAFFFFABRRRQAUUUUAFFFFABRRRQAUUUUAFFFFABRRRQAUUUUAFFGaKACiiigAooooAKKKKACiiigAooooAKKKKACiiigAooooAKKKKACiiigAooooAKKKSgBaKKKACiiigAooooAKKSloAKKKKACikpaACikooAWiiigAopKKAFooooAKKKKACiiigAooooAKKKSgBaKKKACiiigAooooAKo6xqdvpVm1xdNgDhVHVj6CjV9Tt9Ks2uLpsAcKo6sfQV5Rreq3Gr3hnuDgDhEHRB6Cu7B4N4h3ekThxmMWHVl8Qa1qtxq94Z7g4A4SMdEHoKz6KK+lhBQSjFWR85KTm3KT1CiiiqEFFFFABRRRQIKKKKACiiigYUUUUAFFFFAgooooGFFFFAgrtPBvhfz9l/qSfuesUR/j9z7e3f+Z4O8Mefsv9ST9z1iiYff8Ac+3t3r0AcV42Px9r0qT9WexgcDe1WqvRCgcUUUV4Z7YUUlFAC0UUUAFFJRQAtFFJQAtFJS0AFFJRQAtFFJQAtFJRQAtFFJQAtFJS0AFFFJQAtFFFABRSUUALRRRQAUUUUAFFFFABRRRQAUUUUAFFFFABRRRQAUUUUAFFFFABRRRQAUUUlAC0UlLQAUUUUAFFJS0AFFJS0AFFFFABRRRQAUUlFAC0UUUAFFFFABRSUtABRRRQAUUUUAFFFFABRRRQAUUUUAFFJS0AFFFFABVHWNTt9Ks2uLpsAcKo6sfQUaxqdvpVm1xctgDhVHVj6CvJ9b1a41e8M9w2AOEQdEHpXdg8G8Q7v4ThxmMVBWXxC61qtxq94Z7g4A4SMdEHoKz6KK+lhBQSjFaI+clJzblJ6hRRRVCCiiigAooooAKKKKACiiigAooooAKKKKACiiigAooooEFdp4O8L+fsv9RT9z1iiYff9z7e3ejwd4Y8/Zf6kn7n70UTD7/ufb2716AOOBXjY/H2vSpP1Z7GBwN7Vaq9ELj6UUUleGe2LRSUUALRRSUALRSUUALRSUUALRRRQAUUUlAC0UlLQAUUUlAC0UUlAC0UlLQAUUlLQAUUUUAFFFJQAtFJmigBaKKKACiiigAooooAKKKKACiiigAooooAKKKKACiiigAooooAKKKKACiiigAooooAKKKKACiiigAooooAKKKKACiiigAooooAKKKKACiiigAooooAKKKKACiiigAooooAKKKKACiiigAooooAKo6xqdvpVm1xctgDhVHVj6CjWNTt9Ks2uLpsAcKo6sfQV5PrWq3Gr3hnuTgDhEHRB6Cu7B4N4h3fwo4cZjFh1ZfEGtarcaveGe4OAOEQHhB6CqFFFfSwgoJRirI+clJzfNLcKKKKoQUUUUAFFFFABRRRQAUUUUAFFFFABRRRQAUUUUAFFFFABXaeDfC/nlL/AFJP3PWKJh973Pt7d6PB3hfz9l/qSfuesUTD7/ufb27/AM/QeleNj8fa9Kk/VnsYHA3tVqr0QDjgUUUV4Z7QUUUUAFFFFABRRRQAUUUUAFFFFABRRRQAUUUUAFFFFABRRRQAUUUUAFFFFABRRRQAUUUUAFFFFABRRRQAUUUUAFFFFABRRRQAUUUUAFFFFABRRRQAUUUUAFFFFABRRRQAUUUUAFFFFABRRRQAUUUUAFFFFABRRRQAUUUUAFFFFABRRRQAUUUUAFFFFABRRRQAUUUUAFFFFABRRRQAUUUUAFFFFABVHWNTt9Ks2uLlsAcKo6sfQUaxqdvpVm1xctgDhVHVj6CvJ9a1W41e8M9wcAcIg6IPQV3YPBPEO7+E4cZjFh1ZfEGtarcaveGe5bAHCIDwg9BVCiivpYQUEoxWh85KTm3KW4UUUVRIUUUUDCiiigAooooAKKKKACiiigAooooAKKKKACiiigArtPBvhfz9l/qSfuusUTfxe59vbvR4O8L+fsv9RT911iiYfe9z7e3evQe3FeLj8fa9Kk/VnsYHA3tVqr0QYwOOlFFFeIe0FFFFABRRRQAUUUUAFFFFABRRRQAUUUUAFFFFABRRRQAUUUUAFFFFABRRRQAUUUUAFFFFABRRRQAUUUUAFFFFABRRRQAUUUUAFFFFABRRRQAUUUUAFFFFABRRRQAUUUUAFFFFABRRRQAUUUUAFFFFABRRRQAUUUUAFFFFABRRRQAUUUUAFFFFABRRRQAUUUUAFFFFABRRRQAUUUUAFFFFABRRRQAVR1jU7fSrNri5bA6Ko6sfQUaxqdvpVm1xctgDhVHVj6CvJ9a1W41e8M9y2AOEQdEHoK7sHg3iHd/CcOMxioKy+INa1W41e8M9ycAcIg6IPQVQoor6WEFBKMVoj5yUnN80nqFFFFUIKKKKACiiigAooooAKKKKACiiigAooooAKKKKACiiigArtPBvhfz9l/qSfuusUTD73ufb270eDvC/nlL/AFJP3XWKJh973Pt7d69B6V4uPx9r0qT9WexgcDe1WqvRBjjpRRRXiHtBRRRQAUUUUAFFFFABRRRQAUUUUAFFFFABRRRQAUUUUAFFFFABRRRQAUUUUAFFFFABRRRQAUUUUAFFFFABRRRQAUUUUAFFFFABRRRQAUUUUAFFFFABRRRQAUUUUAFFFFABRRRQAUUUUAFFFFABRRRQAUUUUAFFFFABRRRQAUUUUAFFFFABRRRQAUUUUAFFFFABRRRQAUUUUAFFFFABRRRQAUUUUAFUdY1O30qza4uWwBwqjqx9BRrGp2+lWbXFy2B0VR1Y+gryfWtVuNXvDPcnA6Ig6IPQV3YPBPEO7+E4cZjFQVl8Qa1qtxq94Z7luBwiDog9BVCiivpYQUEoxWh85KTm+aW4UUUVQgooooAKKKKACiiigAooooAKKKKACiiigAooooAKKKKACu08G+F/P2X+pJ+6+9FEw+97n29u9Hg3wv5+y/1JP3XWKJh973Pt7d69BFeLj8fa9Kk/VnsYHA3tVqr0QYwMUUUV4h7QUUUUAFFFFABRRRQAUUUUAFFFFABRRRQAUUUUAFFFFABRRRQAUUUUAFFFFABRRRQAUUUUAFFFFABRRRQAUUUUAFFFFABRRRQAUUUUAFFFFABRRRQAUUUUAFFFFABRRRQAUUUUAFFFFABRRRQAUUUUAFFFFABRRRQAUUUUAFFFFABRRRQAUUUUAFFFFABRRRQAUUUUAFFFFABRRRQAUUUUAFFFFABVHWNTt9Ks2uLlsDoqjqx9BRrGp2+lWbXFy2AOFUdWPoK8n1rVbjV7wz3JwOiIOiD0Fd2CwbxDu/hOHGYxUFZfEGtarcaveGe5OB0RB0QegqhRRX0sIqCUYrRHzkpObcpbhRRRVCCiiigAooooAKKKKACiiigAooooAKKKKACiiigAooooAK7Xwb4X8/Zf6kn7rrFEw+97n29u9Hg3wv5+y/1JP3X3oomH3vc+3t3r0D6V4uPx9r0qT9WexgcDe1WqvRB0ooorxD2gooooAKKKKACiiigAooooAKKKKACiiigAooooAKKKKACiiigAooooAKKKKACiiigAooooAKKKKACiiigAooooAKKKKACiiigAooooAKKKKACiiigAooooAKKKKACiiigAooooAKKKKACiiigAooooAKKKKACiiigAooooAKKKKACiiigAooooAKKKKACiiigAooooAKKKKACiiigAooooAKKKKACqOsanb6VZtcXLcdFUdWPoKNY1O30qza4uWwOiqOrH0FeT61qtxq94Z7k8dEQdEHoK7sFg3iHd/CjhxmMVBWXxBrWq3Gr3hnuTgdEQdEHoKoUUV9LCKglGK0PnJSc3zSeoUUUVQgooooAKKKKACiiigAooooAKKKKACiiigAooooAKKKKACu18G+F/OKX+pJ+6+9FEw+97n29u9Hg3wv5xS/1JP3XWKJh973Pt7d69Arxcfj7XpUn6s9jA4G9qtVeiAcCiiivEPaCiiigAooooAKKKKACiiigAooooAKKKKACiiigAooooAKKKKACiiigAooooAKKKKACiiigAooooAKKKKACiiigAooooAKKKKACiiigAooooAKKKKACiiigAooooAKKKKACiiigAooooAKKKKACiiigAooooAKKKKACiiigAooooAKKKKACiiigAooooAKKKKACiiigAooooAKKKKACiiigAooooAKo6xqdvpVm1xctx0VR1Y+go1jU7fSrNri5bjoqjq59BXk+tarcaveNPcnjoiDog9BXdgsE8Q7v4ThxmMWHVl8Qa1qtxq94Z7k8dEQdEHoKoUUV9LGKglGK0PnJSc25SeoUUUVQgooooAKKKKACiiigAooooAKKKKBBRRRQMKKKKBBRRRQMK7Xwd4X84pf6kn7rrFEw+97n29u9Hg3wv52y/1JP3XWKJv4vc+3t3r0DGOleLj8fa9Kk/VnsYHA3tVqr0QUUUV4h7QUUUUAFFFFABRRRQAUUUUAFFFFABRRRQAUUUUAFFFFABRRRQAUUUUAFFFFABRRRQAUUUUAFFFFABRRRQAUUUUAFFFFABRRRQAUUUUAFFFFABRRRQAUUUUAFFFFABRRRQAUUUUAFFFFABRRRQAUUUUAFFFFABRRRQAUUUUAFFFFABRRRQAUUUUAFFFFABRRRQAUUUUAFFFFABRRRQAUUUUAFFFFABVHWNTt9Ks2uLluOiqOrH0FJrGp2+k2bXFy3HRVHVj6CvKNa1W41a8M9yeOiIOiD0Fd2DwTxDu/hOHGYxUFZfEGtarcaveGe5bjoiDog9BVCiivpYxUEoxWh85KTm+aW4UUUVQgooooAKKKKACiiigAooooAKKKKACiiigAooooEFFFFABXa+DfC/nbL/AFJP3X3oomH3vc+3t3o8HeF/O2X+pJ+6+9FEw+97n29u9egCvFx+PtelSfqz2cDgb2q1V6IOlFFFeIe0FFFFABRRRQAUUUUAFGaKKACiiigAooooAKKKKACiiigAooooAKKKKACiiigAooooAKKKKACiiigAooooAKKKKACiiigAooooAKKKKACiiigAooooAKKKKACiiigAooooAKKKKACiiigAooooASloooAKSlooAKKKKACiiigAooooAKKKKACiiigAooooAKKKKACiiigAooooAKKKKACiiigAooooAKoaxqlvpVm1xct7Ko6sfQUusanb6TZtcXLcdFUdWPoK8n1rVLjVrwz3LcdEQdEHoK7sFgniHd/CcOMxioKy+INa1W41a8ae5bjoiDog9BVCiivpYxUEoxWh85KTm+aW4UUUVQgooooAKKKKACiiigAooooAKKKKACiiigAooooAKKKKACu18HeF/O2X+pJ+6+9FEw+97n29qPBvhfztl/qSfuusUTD73ufb2r0DpxXi4/H2vSpP1Z7GBwN7Vaq9EJS0UV4h7QUUUUAFFFFABRRRQAUUUUAFFFFABRRRQAUUUUAFFFFABRRRQAUUUUAFFFFABRRRQAUUUUAFFFFABRRRQAUUUUAFFFFABRRRQAUUUUAFFFFABRRRQAUUUUAJRS0UAFFFFABRRRQAUUUUAFFFFABRRRQAUUUUAFFFFABRRRQAUUUUAFFFFABRRRQAUUUUAFFFFABRRRQAUUUUAFFFFABRRRQAUUUUAFUdY1S30qza4uW9lUdWPoKTWNUt9Js2uLlvZVHVz6CvKNa1S41a8ae5bjoiDog9BXdgsE8Q7v4ThxmMVBWXxBrWqXGrXhnuTx0RB0QegqhRRX0sYqCUYrQ+clJzfNLcKKKKoQUUUUAFFFFABRRRQAUUUUAFFFFABRRRQAUUUUAFFFFABXa+DfC/nbL/AFJP3X3oomH3vc+3t3o8G+F/O2X+pJ+6+9FEw+97n29q9Arxcfj7XpUn6s9jA4G9qtVeiCiiivEPaCiiigAooooAKKKKACiiigAooooAKKKKACiiigAooooAKKKKACiiigAooooAKKKKACiiigAooooAKKKKACiiigAooooAKKKKACiiigAooooAKKKKACiiigAooooAKKKKACiiigAooooAKKKKAEpaKKACiiigAooooAKSlooAKKKKAEopaKACiiigAooooAKKKKACiiigAooooAKSlooAKKKKACiiigAqhrGqW+k2bXFy3HRUHVj6CjWdUt9Js2uLlvZVHVj6CvKNa1S41a8ae5PHREHRB6Cu7BYJ4h3fwnDjMYqC5Y/EGs6pcateNPctx0RB0QegqhRRX0sYqCUYrQ+clJzfNLcKKKKoQUUUUAFFFFABRRRQAUUUUAFFFFABRRRQAUUUUAFFFFABXa+DfC/nbL/Uk/d9YomH3vc+3tS+DfC/nbL/AFJP3f3oomH3vc+3tXfivFx+PtelSfqz2MDgb2q1V6IKKKK8Q9oKKKKACiiigAooooAKKKKACiiigAooooAKKKKACiiigAooooAKKKKACiiigAooooAKKKKACiiigAooooAKKKKACiiigAooooAKKKKACiiigAooooAKKKKACiiigAooooAKKKKACiiigAooooAKKKKACiiigAooooAKKKKACkpaKACiiigAooooAKKKKACiiigAooooAKKKKACiiigAooooAKKKKACqGsapb6TZtcXLeyoOrn0FGs6pb6TZtcXLeyoOrn0FeUa1qlxq1409y3HREHRB6Cu7BYJ4h3fwnDjMYqC5Y/EGtapcateNPcnjoiDog9BVCiivpYxUEoxWh85KTm+aT1CiiiqEFFFFABRRRQAUUUUAFFFFABRRRQAUUUUAFFFFABRRRQAV23g3wv52y/1JP3f3oomH3vc+3tSeDfC/m7L/AFJP3f3oomH3vc+3tXoArxcfj7XpUn6s9jA4G9qtVeiCiiivEPaCiiigAooooAKKKKACiiigAooooAKKKKACiiigAooooAKKKKACiiigAooooAKKKKACiiigAooooAKKKKACiiigAooooAKKKKACiiigAooooAKKKKACiiigAooooAKKKKACiiigAooooAKKKKACiiigAooooAKKKKACiiigAooooAKKKKACiiigAooooAKKKKACiiigAooooAKKKKACiiigAooooAKoaxqlvpNm1xct7Kg6ufQUazqlvpNm1xct7Kg6ufQV5RrOqXGrXjT3LcdEQdEHoK7sFgniHd/CcOMxioLlj8Qazqlxq14Z7luOiIOiD0FUKKK+ljFQSjFaHzkpOb5pbhRRRVCCiiigAooooAKKKKACiiigAooooAKKKKACiiigAooooAK7bwb4X83Zf6kn7vrFEw+97n29qPBvhfzdl/qSfu/vRRMPve59vau/FeLj8fa9Kk/VnsYHA3tVqr0QUUUV4h7QUUUUAFFFFABRRRQAUUUUAFFFFABRRRQAUUUUAFFFFABRRRQAUUUUAFFFFABRRRQAUUUUAFFFFABRRRQAUUUUAFFFFABRRRQAUUUUAFFFFABRRRQAUUUUAFFFFABRRRQAUUUUAFFFFABRRRQAUUUUAFFFFABRRRQAUUUUAFFFFABRRRQAUUUUAFFFFABRRRQAUUUUAFFFFABRRRQAUUUUAFFFFABVDWdUt9Js2uLlvZUHVz6CjWdUt9Js2uLlvZUHVz6CvKNZ1S41a8ae5b2RB0QegruwWCeId38Jw4zGKguWPxBrOqXGrXjT3LeyIOiD0FUKKK+ljFQSjFaHzkpOb5pPUKKKKoQUUUUAFFFFABRRRQAUUUUAFFFFABRRRQAUUUUAFFFFABXbeDfC/m7L/Uk/d9YomH3v9o+3tR4N8L+bsv8AUk/d/eiiYfe/2j7e1d/Xi4/H2vSpP1Z7GBwN7Vaq9EFFFFeIe0FFFFABRRRQAUUUUAFFMmljhjMkzrGg6sxwB+NVf7V0/wD5/rT/AL/L/jVKLeyJcordl2iqX9q6f/z/AFp/3+X/ABo/tXT/APn/ALT/AL/L/jT9nLsL2kO5doql/aun/wDP9af9/l/xo/tXT/8An/tP+/y/40ezl2D2kO5doqn/AGrp/wDz/wBp/wB/l/xo/tXT/wDn/tf+/wAv+NHs5dg9pDuXKKpf2rp//P8A2v8A3+X/ABo/tXT/APn/ALT/AL/L/jR7OXYPaQ7l2iqX9q6f/wA/1p/3+X/Gj+1dP/5/rT/v8v8AjR7OXYPaQ7l2iqX9q6f/AM/1p/3+X/Gj+1dP/wCf+1/7/L/jR7OXYPaQ7l2iqX9q6f8A8/8Aa/8Af5f8aP7V0/8A5/7X/v8AL/jR7OXYPaQ7l2iqX9q6f/z/AFr/AN/l/wAaP7V0/wD5/wC1/wC/y/40ezl2D2kO5doqn/aun/8AP/a/9/l/xo/tXT/+f+1/7/L/AI0ezl2D2kO5coql/aun/wDP/a/9/l/xo/tXT/8An+tf+/y/40ezl2D2kO5doqOCeK4j3wSJKh43IwYfmKkqGrFp32CiiigAooooAKKKKACiiigAooooAKKKKACiiigAooooAKKKKACiiigAooooAKKKKACiiigAooooAKKKKACiiigAooooAKKKKACiiigAooooAKKKKACiiigAooooAKKKKACiiigAooooAKoazqlvpNm1xct7Kg6ufQUazqlvpNm09y3sqDq59BXlGs6pcateNPct7Ig6IPQV3YLBPEO7+E4cZjFQXLH4g1nVLjVrxp7k+yIOiD0FUKKK+ljFQXLFaHzkpOb5pPUKKKKoQUUUUAFFFFAgooooGFFFFABRRRQIKKKKBhRRRQAUUUUAFdt4N8L+bsv9ST931iib+L3Pt7UeDfC/m7L/AFKP9396KJh973Pt7V39eLj8fa9Kk/VnsYHA3tVqr0QUUUV4h7QUUUUAFFFFABRRRQAVFczxW0DzTuEiQZZj2FFzPFawPNO6pEgyzHtXlvinxDLrE/lx7o7ND8id29zXXhMJLESsturOXFYqOHjrv0QeKfEMusT+XHlLND8if3v9o1g0UV9NTpxpRUILQ+aqVJVZOUnqFFFFaGYUUUUAFFFFABRRRQMKKKKBBRRRQAUUUUAFFFFAwooooEFdB4V8OyaxN5swZLJD8zd3PoP8aPCvh2TWJvNmBSyQ/M3dz6D/ABr1G3hjt4UihQJGgwqqOAK8rHY72X7un8X5HqYHA+1/eVPh/MLeGO3hSGBFSNBhVA4AqSiivn276s99K2iCiiigAooooAKKKKACiiigAooooAKKKKACiiigAooooAKKKKACiiigAooooAKKKKACiiigAooooAKKKKACiiigAooooAKKKKACiiigAooooAKKKKACiiigAooooAKKKKACiiigApGJCkqATjgE0tFAHj3iW7vrrVZf7SUxyodoi7IPb/HvWXXrXifQIdZtsjEd2g/dyf0PtXld3bTWdy8FzGY5UOCpr6fA4mFaCjFWa6HzONw86M+aWqfUhoooruOIKKKKBhRRRQAUUUUCCiiigYUUUUAFFFFABRRRQAUUUUAFdt4N8L+bsv8AUk/d/eiib+L/AGj7e1Hg3wv5uy/1JP3f3oomH3vc+3tXf14uPx9r0qT9WexgcDe1WqvRBRRRXiHtBRRRQAUUUUAFFFFABUVzcRWsDzTuqRIMsxPSi5nitYHmuHWOJBlmPQV5b4p8Qy6xPsj3JZofkT+97muvCYSWIlZbdWcuKxUcPHXfog8U+IZdYn8uPKWaH5E/ve5rBoor6anTjSioQWh81UqSqycpPUKKKK0ICiiigAooooAKKKKBBRRRQMKKKKACiiigAooooAKKKKACug8K+HZNXmEswZLJD8zdC59B/jR4V8OyavMJZgyWSH5m7ufQf416jbwx28KRQoqRoMKoHAFeVjsd7L93T+L8j08Dgfa/vKnw/n/wAt4Y7eFIYUVI0GFVeABUlFFfPt3PfStogooooAKKKKACiiigAooooAKKKKACiiigAooooAKKKKACiiigAooooAKKKKACiiigAooooAKKKKACiiigAooooAKKKKACiiigAooooAKKKKACiiigAooooAKKKKACiiigAooooAKKKKACiiigArE8TaBDrNtkYju0H7uT+h9q26KunUlTkpRdmiKlONSLjJaHiF3bTWdy8FyhjlQ4Kmoa9a8T6BDrNtkYS7Qfu5P6H2ryu8tprO5e3uUMcqHBU19NhMXHER81uj5rF4SWHl5dGQ0UUV2HKFFFFABRRRQAUUUUAFFFFABRRRQAUUUUAFdt4N8L+bsv9ST9396KJh973Pt7UeDfC/m7L/Uk/d/eiiYfe/2j7e1d/Xi4/H2vSpP1Z7GBwN7Vaq9EFFFFeIe0FFFFABRRRQAUUUUAFRXM8VrA81w4jiQZZj0FFzPFawPNcOscSDLMe1eW+KfEMusT7I9yWaH5E7t7muvCYSWIlZbdWcuKxUcPHz6IPFPiGXWJ9ke6OzQ/In94/wB41g0UV9NTpxpRUILQ+aqVJVJOUnqFFFFaEBRRRQAUUUUAFFFFABRRRQAUUUUAFFFFABRRRQAUUUUAFdB4V8OyavMJZgyWSH5m7ufQf40vhXw7Jq8wlmDJZIfmbu59B/jXqFvDHbwpFCipGgwqqOAK8rHY72X7un8X5Hp4HA+1/eVPh/MLeGO3hSKFAkaDCqBgAVJRRXz7dz30raIKKKKACiiigAooooAKKKKACiiigAooooAKKKKACiiigAooooAKKKKACiiigAooooAKKKKACiiigAooooAKKKKACiiigAooooAKKKKACiiigAooooAKKKKACiiigAooooAKKKKACiiigAooooAKKKKACiiigArE8T6BDrNtkYju0H7uT+h9q26KunUlTkpReqIqU41IuMloeIXltNZ3LwXKGOVDgqahr1rxNoEOs22RhLtB+7k/ofavK7y2ms7l7e5QxyocFTX02ExccRHz6o+axeElh5eT2ZDRRRXYcoUUUUAFFFFABRRRQAUUUUAFdt4N8L+bsv8AUk/d/eiiYfe/2j7e1Hg3wv5uy/1JP3f3oomH3v8AaPt7V39eLj8fa9Kk/VnsYHA3tVqr0QUUUV4h7QUUUUAFFFFABRRRQAVFczxWsDzXDiOJBlmPQUXM8VrA807qkSDLMe1eW+KfEMusz7I9yWaH5E/ve5rrwmEliJWW3VnLisVHDx8+iDxT4hl1ifZHlLND8if3v9o1g0UV9NTpxpRUILQ+aqVJVJOU3qFFFFaEBRRRQAUUUUAFFFFABRRRQAUUUUAFFFFABRRRQAUUUUAFdB4V8OyavMJZgyWSH5m7ufQf40vhXw7Jq8wlmDJZIfmbu59B/jXqFvDHbwpFCipGgwqqMACvKx2O9l+7p7/kengcD7X95U+H8wghjt4UigQJGgwqqOAKkoor59u576VtEFFFFABRRRQAUUUUAFFFFABRRRQAUUUUAFFFFABRRRQAUUUUAFFFFABRRRQAUUUUAFFFFABRRRQAUUUUAFFFFABRRRQAUUUUAFFFFABRRRQAUUUUAFFFFABRRRQAUUUUAFFFFABRRRQAUUUUAFFFFABRRRQAUUUUAFFFFABWJ4m0CHWbbIxHdoP3cn9D7Vt0VdOpKnJSi7MipTjUi4yWh4heW01ncvBcoY5UOCpqGvWvE+gQ6zbZGI7tB+7k/ofavK7y2ms7mSC5jMcqHBU19NhMXHER81uj5vF4SWHl5dGQ0UUV2HIFFFFABRRRQAV23g3wv5uy/wBST9396KJh97/aPt7Uvg3wv5my/wBST9396KJh97/aPt7V31eLj8fa9Kk/VnsYHA3tVqr0QUUUV4h7QUUUUAFFFFABRRRQAVFdXEVrbyT3EixwxjczMeAKLq4itbeSe4kWOKMbmZjgAV4z418VS69cGG3LR6fGflToZD/eb+grtwWCnip2WiW7OLG42GFhd6t7IXxp4rm1258m2LRafG2UXoXP94/0FZNndCUbH4cfrWZQDg5HBr62GHhTgqcFZI+TniJ1JupN3bN6iqlndCUbH4cfrVus2mnZmsZKSugooopFBRRRQAUUUUAFFFFABRRRQAUUUUAFFFFABRRRQAV0PhXw7Jq8wlmBSyQ/M3dz6D/Gjwr4dk1eYSzhkskPzN3c+g/xr1CCGO3hSKFAkaDCqo4ArysdjvZfu6e/5Hp4HA+1/eVPh/MIIY7eFIoEVI0GFVeABUlFFfPt3PfStogooooAKKKKACiiigAooooAKKKKACiiigAooooAKKKKACiiigAooooAKKKKACiiigAooooAKKKKACiiigAooooAKKKKACiiigAooooAKKKKACiiigAooooAKKKKACiiigAooooAKKKKACiiigAooooAKKKKACiiigAooooAKKKKACiiigArE8TaBDrNtkYS7Qfu5P6H2rboq6dSVOSlF6kVKcakXGS0PELy2ms7mS3uYzHKhwVNQ1614m0CHWbbIxHdoP3cn9D7V5XeW01ncyW9yhjlQ4KmvpsJi44iPmt0fN4vCSw8vLoyGiiiuw5ArtvBvhfzdl/qSfJ96KJh973Pt7UeDfC/mbL/AFJPk+9FEw+9/tH29q7+vFx+PtelSfqz2MDgb2q1V6IKKKK8Q9oKKKKACiiigAooooAKiuriK1t5J7mRY4YxuZ2OABRdXENrbyT3EixxRjczMcACvGfGviqXXrgw25aPT4z8idC5/vN/QV24LBTxU7LRLdnFjcbDCwu9W9kHjXxVLr1wYYC0enxn5U6Fz/eb/CuXoor7CjRhRgoQVkj5CtWnWm5zd2wooorQzAcHIOCO9adndCUbHOHH61mUA4OQcH1qZRUkVGTizeoqpZ3XmDY/Dj9at1zNNOzOqLUldBRRRSKCiiigAooooAKKKKACiiigAooooAK6Hwp4dk1eYSzhkskPzN0Ln0H+NHhTw7Jq8wmnDJZIfmboXPoP8a9Qghjt4UihRUjQYVV4AFeVjsd7L93T3/I9PA4H2v7yp8P5/wDACCGO3hSKFFSNBhVUcAVJRRXz+576VtEFFFFABRRRQAUUUUAFFFFABRRRQAUUUUAFFFFABRRRQAUUUUAFFFFABRRRQAUUUUAFFFFABRRRQAUUUUAFFFFABRRRQAflRRRQAUUUUAFFFFABRRRQAUUUUAFFFFABRRRQAUUUUAFFFFABRRRQAUUUUAFFFFABRRRQAUUUUAFFFFABRRRQAUUUUAFFFFABWJ4m0CHWbbIxHdoP3cmP0PtW3RV06kqclKL1IqU41IuMloeIXltNZ3L29yhjlQ4Kmux8G+F/M2X+pJ8n3oomH3v9o+3tXX3+k2V/cwT3UCvJCcqT39j6ir9elXzOVSmowVn1/wCAedQy2NOo5Td0tv8AghRRRXlHqBRRRQAUUUUAFFFFABUV1cRWtvJPcSLHFGNzM3AAouriK1t5J7iRY4oxuZmOABXjXjXxXLrtwYLctHp0Z+VehkP95v6Cu3BYKeKnZaJbs48bjYYWF3q3shPGviqXXrgwwFo9PjPyp0Ln+839BXL0UV9hRowowUIKyR8fWrTrTc5u7YUUUVoZhRRRQAUUUUAAODkcGtOzuvMGx/v/AM6zKBwcjgiplFSRUZOLN6iqlndeaNj8P/OrdczTTszqjJSV0FFFFIYUUUUAFFFFAwooooEFdD4U8OyavMJpwyWSH5m7ufQf40eFfDsmrzedOGSyQ/M3QufQf416hBDHbwpFCipGgwqgcAV5WOx3sv3dPf8AI9TA4H2v7yp8P5hBDHbwpFCipGgwqqMACpKKK+f3PfStogooooAKKKKACiiigAooooAKKKKACiiigAooooAKKKKACiiigAooooAKKKKACiiigAooooAKKKKACiiigAooooAKKKKACiiigBKKWigAooooAKKKKACiiigAooooAKKKKACiiigAooooAKKKKACiiigAooooAKKKKACiiigAooooAKKKKACiiigAooooAKKKKACiiigAooooAKKKKACiiigAooooAKiubiK1t5J7iRY4oxuZmOABRc3EVrbyT3EixwxjczMcACvGvGviuXXrgwW5aPT4z8q9DIf7zf0FduCwU8VOy0S3Zx43GwwsLvVvZB418Vy67cGC3LR6dGflXoZD/eb+grlqKK+wo0YUYKEFZI+QrVp1puc3dsKKKK0MgooooAKKKKACiiigAooooAOQQQeRWnZ3XmgI/D/zrMpRkHI4NTKKkioycWbtFVLO68wbH4f+dW65mmnZnVFqSugooopFBRRRQAV0PhTw7Jq8wmnBSyQ/M3dz6D/Gjwp4dk1eYTTgpZIfmboXPoP8a9Qghjt4UihRUjQYVVGABXlY7H+y/d09/wAj08Dgfa/vKnw/mEEMdvCkUKBI0GFVRgAVJRRXz7dz30rBRRRQAUUUUAFFFFABRRRQAUUUUAFFFFABRRRQAUUUUAFFFFABRRRQAUUUUAFFFFABRRRQAUUUUAFFFFABRRRQAUUUUAFFFFABRRRQAUUUUAFFFFABRRRQAUUUUAFFFFABRRRQAUUUUAFFFFABRRRQAUUUUAFFFFABRRRQAUUUUAFFFFABRRRQAUUUUAFFFFABRRRQAUUUUAFFFFABRRRQAUUUUAFRXU8VrbyT3DrHFGNzMxwAKLq4itbeSe4kWOKMbmdjgAV41418Vy67cGC3LR6fGflXoZD/AHm/oK7cFgp4qdloluzjxuNhhYXereyDxr4rl124MFuWj06M/KnQyH+839BXLUUV9hRowowUIKyR8hWrTrTc5u7YUUUVoZBRRRQAUUUUAFFFFABRRRQAUUUUAFFFFAADg5HWtOzuvMGxzh/51mUA4ORwamUVJFRk4s3qKqWd15g2Pw/86t1zNNOzOqMlJXQV0PhTw7Jq8wmnDJZIfmbu59B/jR4U8OyavMJpwyWSH5m6Fz6D/GvUIIY7eFIoUVI0GFUDAArycdj/AGX7unv+X/BPVwOB9r+8qfD+YQQx28KRQoEjQYVV4AFSUUV8+3c99KwUUUUAFFFFABRRRQAUUUUAFFFFABRRRQAUUUUAFFFFABRRRQAUUUUAFFFFABRRRQAUUUUAFFFFABRRRQAUUUUAFFFFABRRRQAUUUUAFFFFABRRRQAUUUUAFFFFABRRRQAUUUUAFFFFABRRRQAUUUUAFFFFABRRRQAUUUUAFFFFABRRRQAUUUUAFFFFABRRRQAUUUUAFFFFABRRRQAUUUUAFFFFABQaKKAPHfiNrt7e6nLp8kcltawNxG3WQ/3j6j0rjq9z8XeGrfxBZ4OI7yMfupsdPY+orxXULK4068ktbyMxzRnBB/mPUV9dleIpVKSpwVmt1+p8lmmHq06rnN3T2f6FaiiivTPMCiiigAooooAKKKKACiiigAooooAKKKKACiiigAooooABkHI4Ire8H3Wmar4lg0e/vo4bll3iInBlx/CD0BPp1x0rz7xZ4jj0mIwW5V75xwOoQep/wrzVJ52uxdedILgPvEoYhg2c5z61x4qXNFwi7Pv2PQwVDVVJrTt3PvyCGO3hSKFFSNBhVUcAVJXkPwY+KSeI4YtG16VU1lFxFKeBdAfyf1HfqK9er4+tSnSm4z3PrKc4zjeOwUUUVkaBRRRQAUUUUAFFFFABRRRQAUUUUAFFFFABRRRQAUUUUAFFFFABRRRQAUUUUAFFFFABRRRQAUUUUAFFFFABRRRQAUUUUAFFFFABRRRQAUUUUAFFFFABRRRQAUUUUAFFFFABRRRQAUUUUAFFFFABRRRQAUUUUAFFFFABRRRQAUUUUAFFFFABRRRQAUUUUAFFFFABRRRQAUUUUAFFFFABRRRQAUUUUAFFFFABXP8Ai7w1b+ILPBxHeRj91Njp7H2roKKunUlSkpwdmiKlONWLhNXTPnXUbG4068ktbyMxzRnBB/mPaq1e5+LvDVv4gs8HEd5GP3U2OnsfUV4rqNlcadeSWt5GY5ozgg/zHqK+vwOOjio9pLdHyOOwMsLLvF7MrUUUV3nAFFFFABRRRQAUUUUAFFFFABRRRQAUUUUAFc34t8SR6REYLcq9844HURj1P+FN8X+Jo9IiMFsVe+ccDqIx6n+grzFnkuJnlmdnkc7mZjkk1y16/L7sdzvwuE5/fnt+Y93kuJmlmdnkc5ZmOSTUqjApqDAqQVhBHoyfYfFI8MqSxOySIwZXU4KkdCDX058GfikniKKLRtelVNZQYilPAugP/Z/bv1FfMNOjkeGVJYXaORGDK6nBUjoQfWjEYSGJhyy36MdGvKjK6PvqivIfgx8U08RxR6Nr0qprKDEUp4F0B/7P6jv1FevV8rXoToTcJrU9unUjVjzRCiiisTQKKKKACiiigAooooAKKKKACiiigAooooAKKKKACiiigAooooAKKKKACiiigAooooAKKKKACiiigAooooAKKKKACiiigAooooAKKKKACiiigAooooAKKKKACiiigAooooAKKKKACiiigAooooAKKKKACiiigAooooAKKKKACiiigAooooAKKKKACiiigAooooAKKKKACiiigAooooAKKKKACiiigAooooAK5/xd4at/EFng4jvIx+6mx09j6iugoq6dSVKSnB2aIqU41YuE1dM+ddRsbjTryS1vIzHNGcEH+Y9RVavc/F3hq38QWeDiO8jH7qXHT2PqK8V1GxuNOvJLW8jMc0ZwQf5j1FfX4HHRxUe0luj5HHYGWFl3i9mVqKKK7zgCiiigAooooAKKKKACiiigArmPGHiePR4jb2xV79xwOojHqf6Cm+M/FMejRG3tSsmoOOB1EY9T/QV5U0klxM807tJI53MzHJJrjxGJ5fchuehhMHz/ALye35kzPJcTPLO7PI53MzHJJqZBio0GKmWuSC6nqSZIKUUgp1dMTJi0hpaQ1vEyYsUjwypLC7RyIwZXU4KkdCD619PfBj4pp4jii0bXpVj1lBiKU8C6A/8AZ/bv1FfLxp8UjwypLE7JIhDK6nBUjoQaxxeEhiYcst+jNaFeVGV0fflFeQfBj4pp4iii0bXpVTWUGIpTwLoD+T+3fqK9fr5GvQnQm4TWp7tOpGrHmiFFFFYmgUUUUAFFFFABRRRQAUUUUAFFFFABRRRQAUUUUAFFFFABRRRQAUUUUAFFFFABRRRQAUUUUAFFFFABRRRQAUUUUAFFFFABRRRQAUUUUAFFFFABRRRQAUUUUAFFFFABRRRQAUUUUAFFFFABRRRQAUUUUAFFFFABRRRQAUUUUAFFFFABRRRQAUUUUAFFFFABRRRQAUUUUAFFFFABRRRQAUUUUAFFFFABRRRQAVgeLvDVv4gs8HEd3GP3U2OnsfUVv0VdOpKlJTg7NEVKcasXCaumfOuo2Nxp15Ja3kZjmjOCD/MeoqtXufi7w1b+ILPBxHdxj91Njp7H1FeK6jZXGnXklreRmOaM4IP8x7V9fgcdHFR7SW6PkcdgZYWXeL2ZWooorvOAKKKKACiiigArk/G3iyPRITbWpWTUHHA6iMf3j7+gpvjnxdFocJtbQrJqLjgdREPU+/oK8haWW5nead2klc7mZjkk1w4rFcnuQ3PSweC9p+8qbfmWGkkuJnmndpJXO5mY5JNWIxxUEQqwlcEEetJky1KtRLUq10RMmSCnU0Uua6IJsybsOpDSZNFbxizJsSiiirJHxSPDKksTskiEMrKcFSOhB9a+nfgx8U08RRRaNr8qprKDEUp4F0B/7P7d+or5gp0UjwypJE7RyIwZXU4KkdCD61zYvCQxUOWW/Rm9CvKjK6PvyivIPgx8U08RRRaNr8qx6ygxFKeBdAf+z+3fqK9fr5CvQnQm4TWp71KrGrHmiFFFFYmgUUUUAFFFFABRRRQAUUUUAFFFFABRRRQAUUUUAFFFFABRRRQAUUUUAFFFFABRRRQAUUUUAFFFFABRRRQAUUUUAFFFFABRRRQAUUUUAFFFFABRRRQAUUUUAFFFFABRRRQAUUUUAFFFFABRRRQAUUUUAFFFFABRRRQAUUUUAFFFFABRRRQAUUUUAFFFFABRRRQAUUUUAFFFFABRRRQAUUUUAFFFFABRRRQAVz/i7w3b+ILPBxHdxj91Njp7H1FdBRV06kqUlODs0RUpxqxcJq6Z866jZXGnXklreRmOaM4IP8x6iq1e6eLvDdv4gs8HEd3GP3U2OnsfUV4pqNjcadeSWt5GY5ozgg/zHqK+vwOOjio9pLdHyOOwMsLLvF7MrUUUV3nAFcd498YxaDAbWzKyalIOB1EQ/vH39BR498YRaDAbWzKyak44HURA/wAR9/QV4rNLLczvNO7SSuSzOxySfWvPxeL5Pchv+R6eCwXtP3lTb8yVpZbmd5riRpJXYszsckk96tRCqsI6VoW9vLIAVQ49TxXm04uT01PZlJRQ+Op0qWKzx99vwFWUjVPugV308NN76HLOtHoRIjHt+dShMdadRXXGjGJhKo2FFFFa2sZhRRRTAKKKKACiiigB8UjwypJE7JIjBlZTgqR0INfTvwX+KaeIootF1+VU1lBiKU8C6A/9n9u/UV8v0+KR4ZUlidkkQhlZTgqR0INcuLwkMVDllv0ZvQryoyuj78oryD4MfFNPEUUWi6/KsesoMRTHgXQH8n9u/UV6/XyFehOhNwmtT3qVWNWPNEKKKKxNAooooAKKKKACiiigAooooAKKKKACiiigAooooAKKKKACiiigAooooAKKKKACiiigAooooAKKKKACiiigAooooAKKKKACiiigAooooAKKKKACiiigAooooAKKKKACiiigAooooAKKKKACiiigAooooAKKKKACiiigAooooAKKKKACiiigAooooAKKKKACiiigAooooAKKKKACiiigAooooAKKKKACiiigArA8XeG7fxBZ4bEd3GP3U2OnsfUVv0VdOpKlJTg7NEVKcasXCaumfOuo2Nxp15Ja3kZjmjOCD/MeorhfHvjGLQYDa2ZWTUnHA6iIf3j7+gr6d8eeGB4j0eaO0eO31RUP2a4ZchW9G9R/Lr7H4p1vw/eaNrl3a63byJqUbnzTMdxY/wB4HuD1BFfUUMe8VT5YaS6/8A+cnlqw9TmnrHp/wTlPKu9QneaQSSySMWaRz1J75NaNvo3Qzyfgv+Na6rgUta08FBay1Np4iT0joQQWkMONkYz6nk1PS0ldsYqKskc7berClpKKoQUtJRQAtFFJQAUUUUAFFLRQAlLSUtABSUtFADopHhlSSJ2SRCGVlOCpHQg19O/Bj4pp4iii0XX5VTWUGIpjwLoD/wBn9u/UV8v0+KR4ZUkidkkQhlZTgqR0INcmLwkMVDllv0ZtQryoyuj78orx/wCDHxTTxFFFouvyqmsIMRTHgXIH/s/t3617BXyNehOhNwmtT36VWNWPNEKKKKxNAooooAKKKKACiiigAooooAKKKKACiiigAooooAKKKKACiiigAooooAKKKKACiiigAooooAKKKKACiiigAooooAKKKKACiiigAooooAKKKKACiiigAooooAKKKKACiiigAooooAKKKKACiiigAooooAKKKKACiiigAooooAKKKKACiiigAooooAKKKKACiiigAooooAKKKKACiiigAooooAKKKKACiiigArhvij8PrHxvpf8ABb6tAp+z3OP/ABxvVT+nUdwe5oq6dSVKSnB2aJnBTXLLY+D9c0m90PVbjTtUga3u4G2ujfzB7g9jVGvsb4o/D6y8b6X/AA2+rQKfs9zj/wAcb1U/p1HcH5H1zSb3Q9UuNO1S3e3u4G2ujfoQe4PY19bgcbHFR7SW6PBxOGlRl5FGiikrvOYWikooAWiikoAWikooAWikooAWkoooAKWkooAWkoooAWikopAPikeGVJInZJEIZWU4KkdCDX058F/imniKKLRdflVNYQYimPAugP8A2f279RXzBT4pHilSSJ2SRCGVlOCpHQg1zYvCQxUOWW/Rm1CvKjK6PvyivH/gv8U08RRRaLr8qprCDEUzcC6A/wDZ/bvXsFfIV6E6E3Ca1PfpVY1Y80QooorE0CiiigAooooAKKKKACiiigAooooAKKKKACiiigAooooAKKKKACiiigAooooAKKKKACiiigAooooAKKKKACiiigAooooAKKKKACiiigAooooAKKKKACiiigAooooAKKKKACiiigAooooAKKKKACiiigAooooAKKKKACiiigAooooAKKKKACiiigAooooAKKKKACiiigAooooAKKKKACiiigAooooAKKKKACuH+KPw+svG+l87LfVYFP2e5x/443qp/TqO4PcUVdOpKlJTg7NEzgpx5ZbHwfrmk32h6pPp2qW7293C210b9CD3B7GqFfY/xR+H1l430vnZb6rAp+z3OP8AxxvVT+nUdwfkfXNJvtD1S407VLdoLuBtro36EHuD2NfXYHHRxUe0lujwcThnQfkUaKKK7jmCiikoAWiikoAWiiigAooooAKSlpKAFopKWgApKWigBKWiigB0UjxSpJE7JIhDKynBUjoQa+nPgv8AFNPEMUWi6/KqawgxFMeBdAf+z+3frXzDTopHilSSJ2SRCGVlOCpHQg1y4vCQxUOWW/Rm9CvKjK6PvyivH/gv8U08QxxaLr8qprCDEUzcC5A/9n9u9ewV8hXoToTcJrU96lVjVjzRCiiisTQKKKKACiiigAooooAKKKKACiiigAooooAKKKKACiiigAooooAKKKKACiiigAooooAKKKKACij8KKACiiigAooooAKKKKACiiigAooooAKKKKACiiigAooooAKKKKACiiigAooooAKKKKACiiigAooooAKKKKACiiigAooooAKKKKACiiigAooooAKKKKACiiigAooooAKKKKACiiigAooooAKKKKACiiigArh/ij8P7HxvpeDtg1WBT9mucf8Ajjeqn9Oo7g9xRV06kqUlODs0TOCmuWWx8H65pN7oeqXGnapA0F3A210b9CD3B7GqNfY3xR+H1l430vB22+qwKfs1zjp/sN6qf06j3+R9c0m+0PVLjTtUt2t7uBtro36EHuD2NfXYHHRxUe0lujwcThnQl5FClpKK7jmCilpKACiiigAooooAKKKKAClopKAFpKKKACiiigAooooAfFI8UqSROySIQyspwVI6EGvpz4L/ABTTxDHFouvyqmsIMRTHgXQH/s/t3r5gp8UjxSJJE7JIhDKynBUjoQa5cXhIYqHLLfozahXlRldH35RXj/wX+KaeIY4tF1+VU1hBiKZuBdAf+z+3evYK+Qr0J0JuE1qe/Sqxqx5ohRRRWJoFFFFABRRRQAUUUUAFFFFABRRRQAUUUUAFFFFABRRRQAUUUUAFFFFABRRRQAUUUUAJRS0UAFFFFABRRRQAUUUUAFFFFABRRRQAUUUUAFFFFABRRRQAUUUUAFFFFABRRRQAUUUUAFFFFABRRRQAUUUUAFFFFABRRRQAUUUUAFFFFABRRRQAUUUUAFFFFABRRRQAUUUUAFFFFABRRRQAUUUUAFFFFABRRRQAVw/xR+H1j430vB22+qwKfs9zj/xxvVT+nUdwe4oq6dSVKSnB2aJnBTXLLY+D9c0i+0PVJ9O1SBoLuBtrI36EHuD2NUa+yviV8PdN8c2Ma3DfZdQh/wBTeIm5lHdSMjcvtng/jnzT/hnb/qZv/JH/AO2V9NQzajKCdR2fzPGqYCpGVoK6Pn+ivoD/AIZ2/wCpm/8AJH/7ZR/wzt/1Mv8A5I//AGytv7Uwv834P/Iz+pV/5fyPn+ivoD/hnb/qZv8AyR/+2Uf8M7f9TN/5I/8A2yj+1ML/ADfg/wDIPqVf+X8j5/or6A/4Z2/6mb/yR/8AtlH/AAzt/wBTN/5I/wD2yj+1ML/N+D/yD6lX/l/I+f6K+gP+Gdv+pl/8kf8A7ZR/wzt/1M3/AJI//bKP7Uwv834P/IPqVf8Al/I+f6K+gP8Ahnb/AKmb/wAkf/tlH/DO3/Uzf+SP/wBso/tTC/zfg/8AIPqVf+X8j5/or6A/4Z2/6mb/AMkf/tlH/DO3/Uy/+SP/ANso/tTC/wA34P8AyD6lX/l/I+f6K+gP+Gdv+pm/8kf/ALZR/wAM7f8AUzf+SP8A9so/tTC/zfg/8g+pV/5fyPn+lr3/AP4Z2/6mb/yR/wDtlH/DO3/Uzf8Akj/9so/tTC/zfg/8g+pV/wCX8jwCivf/APhnb/qZv/JH/wC2Uf8ADO3/AFM3/kj/APbKP7Uwv834P/IPqVf+X8UeBRSPFKkkTskiEMrKcFSOhBr6c+C/xTTxDHFouvyqmsIMRTNwLkD/ANn/AJ1gf8M7f9TN/wCSP/2ynRfs8vFKkkXihkkQhlZbLBUjoQfMrlxeJwWKhyylr0dn/kb0KOIoyuo/ij32is7w9aX9jpMFtqt+uoXUQ2tciLyzIOxIyefU1o1821Z2R66d0FFFFIYUUUUAFFFFABRRRQAUUUUAFFFFABRRRQAUUUUAFFFFABRRRQAUUUUAFFFFABRRRQAUUUUAFFFFABRRRQAUUUUAFFFFABRRRQAUUUUAFFFFABRRRQAUUUUAFFFFABRRRQAUUUUAFFFFABRRRQAUUUUAFFFFABRRRQAUUUUAFFFFABRRRQAUUUUAFFFFABRRRQAUUUUAFFFFABRRRQAUUUUAFFFFABRRRQAUUUUAFFFFABRRRQAUUUUAFFFFABRRRQAUUUUAFFFFABRRRQAUUUUAFFFFABRRRQAUUUUAFFFFABRRRQAUUUUAFFFFABRRRQAUUUUAFFFFABRRRQAUUUUAFFFFABRRRQAlFLRQAUUUUAFFFFABRRRQAUUUUAFFFFABRRRQAUUUUAFFFFABRRRQAUUUUAFFFFABRRRQAUUUUAFFFFABRRRQAUUUUAFFFFABRRRQAUUUUAFFFFABRRRQAUUUUAFFFFABRRRQAUUUUAFFJS0AFFFFABRRRQAUUUUAFFFFABRRRQAUUUUAFFFFABRRRQAUUUUAFFFFABRRRQAUUUUAFFFFABRRRQAUUUUAFFFFABRRRQAUUUUAFFFFABRRRQAUUUUAFFFFABRRRQAUUUlAC0UUUAFFFFABRRRQAUUUUAFFFFABRRRQAUUUUAFFFFABRRRQAUUUUAFFFFABRRRQAUUUUAFFFFABRRRQAUUUUAFFFFABRRRQAUUUUAFFFFABRRRQAUUUUAFFFFABRRRQAUUUUAFFFFABRRRQAUUUUAFFFFABRRRQAUUUUAFFFFABRRRQAUUUUAFFFFABRRRQAUUUUAFFFFABRRRQAUUUUAFFFFABRRRQAUUUUAFFFFABRRRQAUUUUAFFFFABRRRQAUUUUAFFFFABRRRQAUUUUAFFFFABRRRQAUUUUAFFFFABRRRQAUUUUAFFFFABRRRQB//Z;fontSize=18;" vertex="1" parent="1">
                    <mxGeometry x="71.28999999999999" y="220" width="78.71" height="59.08" as="geometry"/>
                </mxCell>
            </root>
        </mxGraphModel>
    </diagram>
</mxfile>